<svg xmlns="http://www.w3.org/2000/svg" viewBox="0 0 22.46 11.62"><defs><style>.cls-1{fill:#2f444f;}</style></defs><g id="레이어_2" data-name="레이어 2"><g id="_迹_1" data-name="卵迹_1"><path class="cls-1" d="M18.15,3.08c.06-.07,0-.13,0-.18v0h-.26l0,.46h.35s0,0,0,0S18.05,3.21,18.15,3.08Z"/><path class="cls-1" d="M18.49,3.13c.06,0,.09-.11.16,0a.32.32,0,0,1,.05.19.2.2,0,0,0,0,.07l.41,0a.17.17,0,0,0,0-.1h.13l0,.13a8.33,8.33,0,0,1,3.14.94V3.84a8.72,8.72,0,0,0-3.84-1C18.46,2.92,18.35,3,18.49,3.13Z"/><path class="cls-1" d="M17.77,2.88c-.35,0-.69.05-1,.1,0,.06.1.07.16.09s.25.12.27.3-.13-.22-.22,0l0,.06c.27,0,.54-.05.82-.06C17.64,3.16,17.64,3,17.77,2.88Z"/><path class="cls-1" d="M.46,5.09.41,4.85l0-.21L.12,4.5V5l.23.13A.08.08,0,0,1,.46,5.09Z"/><path class="cls-1" d="M14.58,3.51a.25.25,0,0,0,.15-.15l-.23.06-.05,0h0l-.63.17c0,.07,0,.11-.11.1a.09.09,0,0,1,0-.06l-.12,0a.26.26,0,0,1-.1.27.22.22,0,0,1-.07-.21l-.65.19h.06l.15.1c0,.07.2.15,0,.2l-.12,0c-.12-.09-.27,0-.38-.09V4h0l-.16,0c.11.06.08.17,0,.29a.35.35,0,0,1-.08-.26l-.71.23C8.12,5.4,4.68,6.5,1.34,5.12l-.05,0c-.15,0-.15.11-.1.24a.24.24,0,0,1,.05.18,8.66,8.66,0,0,0,2,.56c-.05-.13-.09-.27,0-.36s.15.2.28.14a.12.12,0,0,1,0,.17.12.12,0,0,0,0,.08,9.28,9.28,0,0,0,1.06.08,11,11,0,0,0,1.28-.05h0A20.07,20.07,0,0,0,9.1,5.52a.12.12,0,0,1,.12-.08.5.5,0,0,1,.2-.23.22.22,0,0,1,0,.22L10,5.25a.45.45,0,0,1,0-.32c.12.06.09.18.07.29l1.41-.44.79-.25v0h.1L13,4.32h0c.07-.07.09-.18.17-.25l.06.06h0c.06,0,.15,0,.17,0a.06.06,0,0,1,0,0c.31-.1.62-.18.93-.27C14.34,3.75,14.35,3.59,14.58,3.51ZM4,6s-.07.14-.15.11c-.06-.3-.06-.3.33-.27C4.18,6,4.05,5.93,4,6Zm2.05-.11s-.09,0-.13-.07L6,5.73s.1,0,.12.06S6.09,5.87,6.05,5.88Zm2.8-.51c0-.14.05-.26.18-.26s.06.07.05.09S8.92,5.3,8.85,5.37Z"/><path class="cls-1" d="M16.38,3.21v0a.41.41,0,0,0,0-.16l-.91.16c.06.11,0,.25.05.35a.06.06,0,0,0,0,.06.17.17,0,0,0,0,.05l.89-.16a1.72,1.72,0,0,0,0-.24Z"/><path class="cls-1" d="M12.69,1.08l-.53.17A.12.12,0,0,1,12,1.3h0l-.26.09c0,.09.05.18-.08.23a.14.14,0,0,1-.09,0,.28.28,0,0,1,0-.18l-.08,0-.14.05a.15.15,0,0,1-.07,0c-.08,0-.12.15-.22.12l-.07,0C7.61,2.7,4.12,3.68.73,1.94a.62.62,0,0,0,0,.38.34.34,0,0,0,0,.1c2.93,1.47,5.92,1,8.86.11,0,0,0,0,0,0a0,0,0,0,1,.06,0c.64-.19,1.29-.4,1.93-.61l.25-.08V1.77l.06,0,.78-.25a.31.31,0,0,0,0-.13C12.53,1.26,12.61,1.17,12.69,1.08ZM10.4,2.21l-.13-.11a.17.17,0,0,1,0-.24h0C10.39,1.94,10.61,2,10.4,2.21Z"/><path class="cls-1" d="M.18,1.63v.5l.31.17a1.42,1.42,0,0,1,.06-.46Z"/><path class="cls-1" d="M15.34.82A15.2,15.2,0,0,1,17,.55a.15.15,0,0,1,0-.18c.1-.18.21,0,.32.08a.14.14,0,0,1,0,.06,10.35,10.35,0,0,1,2.61.08.23.23,0,0,1,.11,0l.52.11a.14.14,0,0,1,0-.06c0-.05,0-.12.08-.1s.08.07.07.15l0,0a8.51,8.51,0,0,1,1.84.71V1A9.07,9.07,0,0,0,17.58,0c.1.05.11.16,0,.32A.56.56,0,0,1,17.47,0,20.25,20.25,0,0,0,13.13,1v.11a.35.35,0,0,0-.07.37h0l.22-.07a.09.09,0,0,1,0-.05.1.1,0,0,1,.1,0C14,1.15,14.63,1,15.26.84,15.27.79,15.3.78,15.34.82ZM19.23.26a.47.47,0,0,1-.42,0C18.92.07,19,.13,19.23.26Z"/><path class="cls-1" d="M12.6,6.46l-1.19.38-1.56.49c-.1.24-.2.33-.29.09l-.33.09c-.08.09-.1.29-.28.25a.46.46,0,0,1,0-.17,17.16,17.16,0,0,1-3.9.68v0A.49.49,0,0,1,5,8.45s-.07-.06-.07-.09a.08.08,0,0,1,0-.08A8.73,8.73,0,0,1,.07,7v.49c3.22,1.9,6.51,1.28,9.74.31l0-.06.13,0c.53-.15,1-.32,1.57-.49l1.13-.36a1.37,1.37,0,0,1,0-.19.19.19,0,0,1,.13.15A15.65,15.65,0,0,1,19.57,6l0-.12c.11,0,.16.06.21.15L20,6c-.05-.1-.09-.19.11-.21h.13a1.55,1.55,0,0,1-.08.23l.53.13V6c.08,0,.18-.09.2,0s-.07.15-.16.14a8.57,8.57,0,0,1,1.66.66V6.36A8.64,8.64,0,0,0,20,5.55a.29.29,0,0,1,0,.09H19.9l-.07-.09,0,0a10.83,10.83,0,0,0-3.41,0l0,0c-.05.07-.13.18-.18.17s-.08-.08-.08-.15a28.86,28.86,0,0,0-3.47.87v.08ZM1.57,8a.2.2,0,0,1-.05-.14s0-.08,0-.08.12.09.12.15S1.61,8,1.57,8Zm3.09.66s-.07,0-.07-.06a.1.1,0,0,1,.08-.11s.06,0,.07.09S4.7,8.64,4.66,8.65Zm14.5-3.07c.1,0,.18,0,.28.12a.24.24,0,0,1-.31,0A.15.15,0,0,1,19.16,5.58Z"/><path class="cls-1" d="M13.1,9.63,14,9.37a.31.31,0,0,1,.11-.26.22.22,0,0,1,0,.22c.47-.12.93-.23,1.4-.33a.05.05,0,0,1-.05,0c0-.1.06-.13.12-.17l0-.26c-.43.08-.85.18-1.28.29,0,.06,0,.1-.1.1s-.06,0-.07-.05l-1,.29h0C13.07,9.31,13.2,9.56,13.1,9.63Z"/><path class="cls-1" d="M8.79,10.49a17.18,17.18,0,0,1-2.87.58v0c0,.08-.1,0-.15,0h0a9.56,9.56,0,0,1-3.68-.28s0,0-.13,0A8.39,8.39,0,0,1,.77,10.3h0a.36.36,0,0,1,0,.35l.07.16c.18.08.36.16.54.22,0-.11.11-.18.17-.15s0,.14-.05.18h0a9.07,9.07,0,0,0,2.92.54,12.38,12.38,0,0,0,1.36-.06,1.07,1.07,0,0,1,0-.25c0-.09.07,0,.09,0a.09.09,0,0,1,0,.05l.25-.11a.13.13,0,0,0,0-.06c.08,0,.19-.07.23,0s-.09.12-.16.14l-.34.06.09.1A18,18,0,0,0,8.65,11a.64.64,0,0,1,.06-.16C8.76,10.73,8.84,10.63,8.79,10.49Z"/><path class="cls-1" d="M13,9.2c-.55.16-1.09.34-1.63.51-.79.26-1.59.51-2.39.74a.31.31,0,0,1,0,.13.86.86,0,0,0-.08.36c.85-.23,1.7-.51,2.54-.78L13,9.65C12.89,9.66,13,9.37,13,9.2Z"/><path class="cls-1" d="M15.87,8.81l0,0h0V9a9.58,9.58,0,0,1,6.43.77V9.23a9.83,9.83,0,0,0-6.52-.74C15.83,8.54,15.84,8.62,15.87,8.81Z"/><path class="cls-1" d="M15.64,8.84h0s0,0,0-.05,0,0,0,.05Z"/><path class="cls-1" d="M.33,10.07c0,.06,0,.2,0,.24s-.07.19-.15.12,0-.19,0-.3a.23.23,0,0,1,.13-.07L0,9.89v.5l.63.33.09-.44A3.72,3.72,0,0,1,.33,10.07Z"/></g></g></svg>