<svg xmlns="http://www.w3.org/2000/svg" viewBox="0 0 23.84 20.11"><defs><style>.cls-1{fill:none;}.cls-2{fill:#414042;}</style></defs><g id="레이어_2" data-name="레이어 2"><g id="_迹_1" data-name="卵迹_1"><path class="cls-1" d="M18,6.66A1.28,1.28,0,0,0,18.18,6,1.29,1.29,0,0,0,18,6.66Z"/><path class="cls-1" d="M19.18,8.59v.05h0l0,0h0Z"/><path class="cls-1" d="M17.72,7.34h-.07a.2.2,0,0,1,0,.11l0,.06-.05,0,0,.06v0l0,0-.07.16,0,0,0,0s0,0,0,0v0l.06,0,.05,0c0,.08,0,.15,0,.2a.65.65,0,0,0,.09.19s0,0,0,0a.43.43,0,0,0,0,0l.1,0v0l.11.06.17.07.16,0,.1,0,.09,0,.12,0a.19.19,0,0,1,.12,0l.05,0,.06,0,.07,0,.06-.05.05,0s0,0,0,0v0l.05,0L19,8.43l.06-.07a.15.15,0,0,0,0-.06V8.23a.18.18,0,0,1,0-.06.08.08,0,0,1,0-.07l.06,0a.12.12,0,0,1,0-.08.3.3,0,0,1,0-.11.3.3,0,0,1,0-.11l.06-.12.07-.13a.26.26,0,0,0,0-.11l0-.06.06-.08a.93.93,0,0,0,.05-.1.16.16,0,0,0,0-.08l0-.17a.47.47,0,0,1,0-.17.11.11,0,0,1-.06-.07.2.2,0,0,0,0-.08l-.12-.06-.06-.07-.06-.07a.06.06,0,0,0-.05,0l-.07,0-.07,0-.05,0h0l0,0-.06,0-.08,0-.07,0s-.05,0-.07,0l-.06,0-.07,0a.53.53,0,0,0-.23.16,1.7,1.7,0,0,0-.18.26L17.92,7a2.52,2.52,0,0,1-.15.34Zm.14,0v0a.15.15,0,0,0,.06-.11L18,7l.15-.26c0-.09.09-.18.14-.27h0s0,0,.05,0a.52.52,0,0,0,0,.21.79.79,0,0,1,0,.2l.06.09.06.09.15,0v.06a.38.38,0,0,0,.11.05l.15,0H19a.14.14,0,0,0,.09,0,.19.19,0,0,0,.07-.08A.83.83,0,0,0,19.21,7l.06-.14.05-.12h.09a.33.33,0,0,0,0,.17.49.49,0,0,1,0,.17l-.11.25a2.55,2.55,0,0,0-.13.29,2.33,2.33,0,0,0-.1.27h0a.4.4,0,0,0-.13,0h-.14a1.06,1.06,0,0,1-.25-.09l-.25-.13-.24-.14-.21-.12Z"/><rect class="cls-1" x="19.01" y="8.6" width="0.04" height="0.04" transform="translate(3.23 22.28) rotate(-65.22)"/><path class="cls-1" d="M11.7,5.94s0,0,0,0h0S11.71,5.94,11.7,5.94Z"/><path class="cls-1" d="M17.65,8.76l0,0h.05v0Z"/><path class="cls-1" d="M17.35,7.49h0l0,0,0,0S17.34,7.5,17.35,7.49Z"/><path class="cls-1" d="M17.44,8.41h0s0,0,0,.05,0,.11,0,.16.08,0,.1-.08v0l0,0v0s0,0,0,0S17.48,8.38,17.44,8.41Z"/><path class="cls-1" d="M10.12,3.38h0l0,0s0,0,0,0l0,0,0,0v0Z"/><path class="cls-1" d="M18.94,8.65h0s0,0,0,0h0Z"/><rect class="cls-1" x="10.89" y="4.3" width="0.03" height="0.06" transform="translate(2.42 12.43) rotate(-65.29)"/><path class="cls-1" d="M10.47,4.36s0,0,0,0l0,0v0h0Z"/><path class="cls-1" d="M10.3,3.92l0,0v0h0l0,0,0,0v0Z"/><rect class="cls-1" x="10.28" y="4.03" width="0.03" height="0.04" transform="translate(2.32 11.72) rotate(-65.36)"/><path class="cls-1" d="M12.83,5.82h0l0,0,0,0Z"/><path class="cls-1" d="M10.17,3.56h0l0,0h0v0l0,0Z"/><polygon class="cls-1" points="13 5.77 13.07 5.8 13.08 5.78 13.01 5.75 13 5.77"/><path class="cls-1" d="M10.57,4.47v0l0,0h0Z"/><path class="cls-1" d="M10.91,4.22h0v0Z"/><rect class="cls-1" x="17.38" y="7.66" width="0.04" height="0.04" transform="translate(3.16 20.3) rotate(-65.36)"/><path class="cls-1" d="M12.74,5.84l0,0h0l0,0h0Z"/><path class="cls-1" d="M17.38,7.27l0-.06h0l0,0v0Z"/><path class="cls-1" d="M17.24,7.93l0,0,.05,0V8h0S17.25,7.94,17.24,7.93Z"/><path class="cls-1" d="M20.43,7.49h0a0,0,0,0,0,0,0h0v0Z"/><path class="cls-1" d="M17.32,7.92l0,0h0V8h0Z"/><path class="cls-1" d="M20.45,7.55s0,0,0,0,0,0,0,0l0,0Z"/><path class="cls-1" d="M20.65,7.56a.1.1,0,0,0,0,.05h0l0,0h0l0,0,0,0Z"/><path class="cls-1" d="M20.61,7.46l0,0h0l0,0A0,0,0,0,1,20.61,7.46Z"/><path class="cls-1" d="M20.62,7.36h0s0,0,0,0l0,0Z"/><path class="cls-1" d="M20.46,7.7h0l0,0h0l0,0Z"/><path class="cls-1" d="M6.51,2.57l0,0v0l0,0S6.53,2.56,6.51,2.57Z"/><path class="cls-1" d="M5.14,2.9l0,0h0s0,0,0,0Z"/><path class="cls-1" d="M5.19,3V3l0,0,0,0Z"/><path class="cls-1" d="M19.14,10.88a.17.17,0,0,0,.19-.13c0-.1,0-.15-.11-.18s-.12,0-.14.1S19.06,10.84,19.14,10.88Z"/><path class="cls-1" d="M15.61,10.23l0,0S15.6,10.24,15.61,10.23Z"/><path class="cls-1" d="M15.21,8.7a.18.18,0,0,0,.11-.17s0,0-.07-.06a.71.71,0,0,0-.08.15S15.15,8.71,15.21,8.7Z"/><path class="cls-1" d="M5.21,3.07h0V3l0,0Z"/><path class="cls-1" d="M6.06,3s0,0,0,0H6V3h0Z"/><path class="cls-1" d="M6.14,3V3h0s0,0,0,0Z"/><path class="cls-1" d="M6,3V3s0,0,0,0,0,0,0,0H6Z"/><path class="cls-1" d="M5.86,3.06h0a0,0,0,0,1,0,0h0s0,0,0,0h0Z"/><path class="cls-1" d="M5.78,3.08l0,0,0,0,0,0Z"/><path class="cls-1" d="M11.13,15.59c.08.12.16.18.27,0a.19.19,0,0,0,0-.12C11.32,15.46,11.23,15.48,11.13,15.59Z"/><path class="cls-1" d="M18.9,14.67a.09.09,0,0,0,0,.1v0A.08.08,0,0,0,18.9,14.67Z"/><path class="cls-1" d="M16.1,13.38a1,1,0,0,0,0,.17,1.07,1.07,0,0,1,.08-.27Z"/><path class="cls-1" d="M14.66,13.23h0Z"/><path class="cls-1" d="M9.3,15.22l0,0-.13-.06,0,0Z"/><path class="cls-1" d="M7.3,9.6a.37.37,0,0,0,.26.41c.29-.07.1-.28.07-.44Z"/><path class="cls-1" d="M16.56,19.13h0a.06.06,0,0,1,0,0v0Z"/><path class="cls-1" d="M6,8.77c-.06,0-.09.05-.11.11S5.91,9,6,9s.08-.05.1-.07S6.07,8.78,6,8.77Z"/><path class="cls-1" d="M6.37,2.11h0v0h0Z"/><path class="cls-1" d="M7,3.45H7l0,0H7Z"/><rect class="cls-1" x="7.13" y="3.89" width="0.04" height="0.03" transform="translate(0.6 8.76) rotate(-65.21)"/><path class="cls-1" d="M7,3.76H7l.12-.06h0a.09.09,0,0,1-.06,0S7,3.73,7,3.76Z"/><path class="cls-1" d="M7.07,2.65,7,2.7h0s0,0,0,0Z"/><path class="cls-1" d="M7.4,2.64h0l0,0-.07,0,0,0,0,0Z"/><path class="cls-1" d="M6.88,3.76l0,0a.08.08,0,0,0,0,0l0,0v0h0Z"/><rect class="cls-1" x="6.72" y="3.55" width="0.03" height="0.04" transform="translate(0.68 8.2) rotate(-65.36)"/><path class="cls-1" d="M7.59,4h0l0,0,0,0Z"/><polygon class="cls-1" points="8.02 4.29 7.99 4.28 7.97 4.31 8 4.32 8.02 4.29"/><path class="cls-1" d="M6.38,2.21s0,0,0,0v0h0Z"/><path class="cls-1" d="M6.41,2.29l0,0,0,0s0,0,0,0Z"/><path class="cls-1" d="M7.13,2.68s0,0,0,0a0,0,0,0,0,0,0l.08,0,.09,0h0a.13.13,0,0,1-.1,0A.07.07,0,0,0,7.13,2.68Z"/><path class="cls-1" d="M6.4,2.47h0l0,0v0h0Z"/><path class="cls-1" d="M6.71,3.49h0l0,0,0,0v0h0Z"/><path class="cls-1" d="M6.42,2.53v0h0v0Z"/><path class="cls-1" d="M6.28,2.1v0h0s0,0,0,0h0l0,0Z"/><path class="cls-1" d="M6.44,2.39h0l0,0h0Z"/><path class="cls-1" d="M6.51,2.49h0v0S6.49,2.49,6.51,2.49Z"/><path class="cls-2" d="M5,3.08a.05.05,0,0,0,0,0,.1.1,0,0,0,.1,0h.09l.11.06.12,0a.7.7,0,0,0,.29,0A.66.66,0,0,0,6,3.24s0,0,0,0l0,0,0-.09.08,0v0s0,0,0,0h.06l0,0,0,0,.06,0,0,0v0l0,0H6.5l0,0,0-.07.05,0,0-.07a.26.26,0,0,1,.07-.11.14.14,0,0,0,0-.08.4.4,0,0,0,0-.22l-.07-.2a.12.12,0,0,1,0-.08.08.08,0,0,0,0-.07l0,0,0,0a.56.56,0,0,1,0-.08l-.06-.09L6.72,2a.64.64,0,0,0,.2.08l0,0L6.4,1.8v0s0,0,0,0l-.14-.07v0l-.06,0v0l-.12-.05s0,0,0,0a.06.06,0,0,0,0-.05L5.93,1.4a.08.08,0,0,1,0,0,.33.33,0,0,0,0-.06l-.08,0V1.21l0,0a.1.1,0,0,1,0,0l0-.08,0,0V1a.21.21,0,0,0,0-.06s0,0,0-.05l0-.06,0,0,0-.08V.66a.12.12,0,0,1,0-.07h0l0,0L5.78.49l.08,0,0,0,0,0,0,0,.07,0s0,0,.06,0a.05.05,0,0,1,0,0,.06.06,0,0,1,0,0,.23.23,0,0,0,.11,0l.11,0a.56.56,0,0,1,.15.1.52.52,0,0,1,.11.1A.44.44,0,0,1,6.72.8l.07.12a.11.11,0,0,1,0,.11.16.16,0,0,0,0,.11.45.45,0,0,0,0,.08.15.15,0,0,0,0,.07L6.31,1,6.18.94,6.06.9s0,0,0,.06a0,0,0,0,0,0,.06A.08.08,0,0,0,6.2,1l.22.08.23.11.21.11L7,1.38l0,0L7,1.3H7l.08,0,.12,0,0,0,0,0,0,0s0,0,0,0L7.3,1s0,0,0-.08l0-.11,0-.11,0-.07,0,0a.35.35,0,0,1,0-.06.08.08,0,0,0,0-.06L7,.48v0L6.86.37a.1.1,0,0,1,0,0l-.08,0v0L6.32,0s0,0,0,0L6.14,0l0,0L6.06,0S6,0,6,0L6,0a.11.11,0,0,0-.08,0h0L5.74,0l-.09,0h0l0,.06h0a0,0,0,0,0,0,0,.08.08,0,0,1,0,0l0,0,0,0h0L5.24.45a.08.08,0,0,0,0,0s0,0,0,0h0a.8.8,0,0,1,0,.18l0,.13a.28.28,0,0,0,0,.06.15.15,0,0,0,0,.06l0,.05,0,.06s0,0,0,0,0,0,.05,0v.05a.06.06,0,0,0,0,0l0,0v.08l0,0s0,0,0,0h0v.06l0,0s0,0,0,0,0,0,0,0v0l.16.07s0,0,0,0,0,0,0,0l.23.11a0,0,0,0,1,0,0v0l.08,0L6.05,2l.06.08,0,0a.09.09,0,0,1,0,0s0,0,0,0a.15.15,0,0,0,0,.06.1.1,0,0,1,0,0,.45.45,0,0,1,0,.25.49.49,0,0,1-.08.21A.4.4,0,0,1,6,2.9.62.62,0,0,1,5.81,3L5.72,3,5.59,3H5.46l-.08,0-.1-.06-.11-.08h0s0,0-.06,0l0-.06a0,0,0,0,1,0,0L5,3.05Zm1.4-.51h0v0h0v0Zm.13,0v0l0,0s0,0,0,0Zm0-.09h0s0,0,0,0v0Zm0-.09,0,0h0l0,0h0Zm0-.09,0,0,0,0,0,0S6.43,2.28,6.46,2.29Zm0-.09v0s0,0,0,0v0h0Zm-.07-.09v0h0Zm0,.33,0,0h0ZM6.24,2.1h0s0,0,0,0h0v0Zm-.11.83h0V3h0S6.13,3,6.13,2.93ZM6,3h0s0,0,0,0H6Zm-.1,0s0,0,0,0V3h0S5.93,3,5.93,3ZM5.85,3h0a0,0,0,0,0,0,0h0S5.85,3.05,5.85,3Zm-.09,0,0,0v0l0,0Zm-.54,0h0l0,0Zm0-.12,0,0V3h0Zm0-.08h0l0,0h0s0,0,0,0Z"/><path class="cls-2" d="M7.11,2.29a.1.1,0,0,0,0,.12l-.22.46h0l-.14.3s0,0,0,0a.06.06,0,0,1,0,.06l0,0,0,0,0,0h0l-.07.15,0,0a.06.06,0,0,1,0,.06.17.17,0,0,1,0,.05l.06.17h.1a.09.09,0,0,1,.06,0,.13.13,0,0,0,0,.06l.08,0h.09l.09,0s0,0,.06,0a0,0,0,0,1,0,0l0,0s0,0,.07,0h0a.08.08,0,0,1,.09,0l0,.06.08.05.12,0,.12,0H7.9a1,1,0,0,0,.17.07.15.15,0,0,0,.14,0s0,0,0,0l0-.07-.12-.07,0,0a.24.24,0,0,1-.09-.08A.12.12,0,0,0,8,4l0,0L7.78,4a.09.09,0,0,1-.06-.06.06.06,0,0,0-.06,0h0l-.09,0-.15-.07-.14-.08-.07,0s0,0,0,0h0a.13.13,0,0,0,0-.05s0,0,0,0l-.1-.06A.22.22,0,0,1,7,3.44l.09-.13a.5.5,0,0,0,.1-.18v0l0,.06s0,.05,0,.06a.1.1,0,0,0,.09,0l.22.08.22.11.21.1a1,1,0,0,0,.19.08v0l-.75-.35-.13-.06-.12,0V3a.06.06,0,0,1,0,0h0a.19.19,0,0,0,0-.09.15.15,0,0,1,0-.08l.05,0a0,0,0,0,0,0-.06s0,0,0,0,0,0,0,0h0l0,0a.08.08,0,0,0,0,0,.22.22,0,0,0,.22,0l.06,0s0,0,0,0v0H8a.11.11,0,0,1,.1.05.15.15,0,0,0,.09.06h0l.3.14h0l0,0,.08,0h0l0,0,.08,0,.09,0h0s0,0,0,0V3l0,0H9a.18.18,0,0,0,0,0,.13.13,0,0,0,0-.05s0,0-.07,0a.22.22,0,0,0-.07.06s0,0,0,0a.07.07,0,0,1,0,0l-1-.47a.08.08,0,0,1,0,0l-.06,0,0,0a.13.13,0,0,0,0-.05.05.05,0,0,0,0,0s0,0,0,0a0,0,0,0,1,0,0,.05.05,0,0,0,0,0L7.79,2l0-.06a.13.13,0,0,0,0-.06h0s0,0,0,.06a.1.1,0,0,0,.09,0l.08,0,.08,0h.06l.32.17a1.17,1.17,0,0,0,.3.12v0L8.21,2V2H8.17l-.1-.05-.13-.06-.12,0a.54.54,0,0,0,.07-.12.61.61,0,0,1,.05-.11H8l0,0,0,0s0,0,0,0l0,0,0,0a.17.17,0,0,0,0-.07s0,0,0-.06h0a.32.32,0,0,0,.17.05.38.38,0,0,0,.13-.06.1.1,0,0,1,.06.05s0,0,0,.06a.08.08,0,0,0,.07,0l.06,0,.25.11a0,0,0,0,1,0,0v0s0,0,0,0H9l0,0a.1.1,0,0,1,0,.06.1.1,0,0,0,.09,0h0l.2.09,0,0,0,0s0,0,0,0,0,0,0,0l0,0,0,0a.12.12,0,0,0,0-.1l0-.08L8.36,1,8.21,1,8.06.88,7.9.82l-.13,0A.68.68,0,0,0,7.71,1a1.67,1.67,0,0,1-.06.2.1.1,0,0,1-.05,0s0,0,0,.07a.11.11,0,0,1,0,0,.14.14,0,0,1,0,.08l-.06.07s0,0,0,.06,0,0,0,.05l-.27.59A.53.53,0,0,0,7.11,2.29ZM6.69,3.47l0,0,0,0h0Zm0,.12h0v0h0Zm.14.21,0,0a.08.08,0,0,1,0,0l0,0h0ZM8,4.27l0,0,0,0H8ZM7.57,4h0l0,0,0,0ZM7,3.43H7v0H7Zm.18.5h0v0l0,0Zm0-.24h0L7,3.77H7s0,0,0,0A.09.09,0,0,0,7.12,3.69Zm.25-1.13.07,0,0,0h0l0,0,0,0Zm-.3.14H7l0-.05,0,0S7.08,2.7,7.07,2.7Zm.23-.11h0l-.09,0-.08,0a0,0,0,0,1,0,0s0,0,0,0a.07.07,0,0,1,.06-.06.13.13,0,0,0,.1,0Z"/><path class="cls-2" d="M8,1.73v0H8a0,0,0,0,0,0,0S8,1.74,8,1.73Z"/><path class="cls-2" d="M9.21,3.21a.31.31,0,0,0,0,.18l0,0a.43.43,0,0,0,0,.07.25.25,0,0,1,0,.07l0,0s0,0,0,0a.26.26,0,0,0,0,.07.12.12,0,0,1,0,.09A.22.22,0,0,0,9,3.86L8.89,4a.5.5,0,0,0-.05.13s0,.07,0,.09l-.08.18s0,.09,0,.15l.11,0,.08,0H9s0-.08.05-.15a.37.37,0,0,1,.08-.14h0l0-.09h0l0,0,0,0L9.29,4s0,0,0,0l.13-.3.07-.08.09-.07a.27.27,0,0,0,.07-.08.14.14,0,0,0,0-.11l0-.09.06-.06.05,0,.07,0a.16.16,0,0,1,.08.1.5.5,0,0,1,0,.13v.14c0,.05,0,.09,0,.14l0,0,0,0s0,0,0,0a0,0,0,0,1,0,0v0l0,0,0,0,0,.05a.15.15,0,0,1,0,.06l0,0,.06.14,0,.08,0,0,0,0,0,.09s0,0,0,0l-.58-.27L9.4,4.09l-.12,0s0,0,0,.06,0,0,0,.06a.1.1,0,0,0,.09,0,1.48,1.48,0,0,1,.35.15l.34.16,0,.06,0,.08,0,0a.08.08,0,0,0,0,0l0,0,0,.06,0,0,0,0a.66.66,0,0,1,0,.14.24.24,0,0,0,0,.13l0,0,.05,0h0a.09.09,0,0,0,0,.08.09.09,0,0,0,0,.06l0,0a.1.1,0,0,1,0,.08l.09,0h.07a.16.16,0,0,0,.07-.07.13.13,0,0,1,.1,0s0-.07,0-.14a.21.21,0,0,1,.07-.15h0L10.85,5s0,0,0,0a.36.36,0,0,1,0-.09s0,0,.06,0a.08.08,0,0,0,0,0h0v0a.11.11,0,0,1,0-.07l0,0s0,0,0,0l0,0,0-.08,0,0s.07,0,.08,0l0-.06s0,0,0,0a.06.06,0,0,1,0,0l.25-.55h0l.21-.46.13-.29a.85.85,0,0,0,.09-.27l-.2-.08s0,0,0-.06,0,0-.08,0a.34.34,0,0,0-.06.12,1.14,1.14,0,0,1-.06.14L11.3,3l-.57-.26v0l.22.1.33.16-.3.65h0s0,0,0,0h0v0l-.21.46a.44.44,0,0,0,0,.19.59.59,0,0,0,.07.16v0s0,0,0,0l0-.09,0-.09a.39.39,0,0,1,0-.06l-.14-.07a.14.14,0,0,0-.12,0s0,0,0,0,0,0,0-.07a.25.25,0,0,0,0-.07.18.18,0,0,0,0-.06V4h0a.64.64,0,0,0,0-.07.13.13,0,0,0,0-.06s0,0,0,0,0,0,0,0l0,0,0,0s0,0,0,0a.05.05,0,0,1,0,0l0,0s0,0,0-.05,0,0,0,0l0-.08a.31.31,0,0,0,0-.08.94.94,0,0,0,0-.09s0,0,0,0l0,0,0,0,0-.08,0-.05s0,0,0,0a.13.13,0,0,1,0-.05.14.14,0,0,0,0-.06l0,0a.08.08,0,0,1,0,0l0-.06s0,0,0,0l0,0,0,0h0v0l.07,0h0s0,0,0,0,0,0,0,0l-.1,0h0l0,0,0-.05,0,0,0,0s0,0,0,0a.05.05,0,0,1,0,0,.23.23,0,0,1,0-.07.2.2,0,0,0,0-.07h0a0,0,0,0,1,0,0s0,0,0,0,0,0,0,0,0-.05,0-.06a.14.14,0,0,1,0-.06l-.16-.07a.13.13,0,0,1-.1-.09.13.13,0,0,0-.1,0,.1.1,0,0,0,0,.06l-.05.1,0,.12s0,.07-.05.1L9.31,3Zm1.68,1h0Zm0,.09,0,0v0l0,0Zm-.33.15v0h0Zm-.11-.1v0l0,0s0,0,0,0h0Zm-.16-.49,0,0h0v0l0,0h0v0Zm0,.17h0v0h0ZM10.2,3.5v0h0l0,0h0v0Zm-.09-.15,0,0,0,0s0,0,0,0l0,0h0Z"/><path class="cls-2" d="M11.73,3.57a.64.64,0,0,1,.17.05l.17.07h.1s0,0,0,0a.17.17,0,0,0,0-.1l.08-.09.1-.08a.11.11,0,0,1,.1,0,.12.12,0,0,0,.1,0l.39.19a2.27,2.27,0,0,1,.28.21.82.82,0,0,1,.16.25,1,1,0,0,1,0,.31l-.19.42-.17.32,0,.07,0,.07,0,0h0l0,0s0,0,0,0a.07.07,0,0,1,0,.05l0,0,0,0s0,0,0,0l0,0a1,1,0,0,1-.19.22.53.53,0,0,1-.21.11,1,1,0,0,1-.24,0l-.26,0A.34.34,0,0,1,12,5.81l-.12-.08-.11-.07a.1.1,0,0,0-.09,0,.36.36,0,0,1-.13-.09.27.27,0,0,1-.06-.1.49.49,0,0,1,0-.11.3.3,0,0,0,0-.11l.29-.64-.06.08a0,0,0,0,1-.06,0l0,0-.1-.14v0l0,0,.27.09,0,0,0,0,0,0,.07-.13s0,0,0,0l.05,0H12l0,0s0,0,0,0l-.1,0L12,4.05A.25.25,0,0,1,12,4l-.1-.09a.45.45,0,0,1-.34,0L11.53,4a.93.93,0,0,1,0,.1l-.06.13-.05.11a.14.14,0,0,0,0,.09l-.07.13-.07.16a.65.65,0,0,0-.05.15.1.1,0,0,0,0,.11V5l-.06,0a.35.35,0,0,1-.08.11.37.37,0,0,0-.07.13.07.07,0,0,0,0,.06s0,0,0,.07h0a.28.28,0,0,0,0,.18.27.27,0,0,0,.09.15l.06,0,.07,0a.36.36,0,0,0,.09.09.34.34,0,0,0,.15.07l0,0h0a.05.05,0,0,1,.05,0,.12.12,0,0,1,0,0l.06,0,.08,0h.06a.1.1,0,0,1,.07,0l0,0s0,0,.07,0h0l.08,0,.07,0,.06.07h.13l.15,0h.28l.12,0,.09-.12H13a.39.39,0,0,0,.08-.1.11.11,0,0,1,.1,0l0-.06V5.74a.09.09,0,0,1,0-.06l0,0s.06-.07.05-.12a.31.31,0,0,1,0-.1v0h.05a.21.21,0,0,0,0-.07l.05-.1a.44.44,0,0,0,0-.1.11.11,0,0,0,0-.06.12.12,0,0,1,.05,0h.06a.51.51,0,0,0,0-.11.16.16,0,0,0,0-.09s0-.05.06-.05h.08a.35.35,0,0,0,0-.14.17.17,0,0,0,0-.12.25.25,0,0,1,.05-.07l.07,0a.15.15,0,0,0,0-.12.3.3,0,0,1,0-.1s0,0,0-.06a.64.64,0,0,0,0-.07.86.86,0,0,0-.09-.3,1.21,1.21,0,0,0-.17-.25.29.29,0,0,0-.12-.1.42.42,0,0,1-.14-.09.26.26,0,0,0-.14-.08L13,3.17l-.2-.08c-.05,0-.08-.06-.08-.1l-.17-.08-.18-.08-.17-.07-.15,0s0,0,0,.07,0,0,0,0Zm0,2.4h0s0,0,0,0,0,0,0,0h0Zm1-.09h0l0,0h0Zm.09,0,0,0h0Zm.23-.06-.07,0v0l.07,0Z"/><path class="cls-2" d="M15.48,7.83s.07,0,.09,0a.08.08,0,0,0,0,0l0,0,0,0,.05,0a1.12,1.12,0,0,1,.06-.23c0-.08.07-.17.12-.26l.18.09.18.09.18.09.15,0v0l-.69-.32L16,7l.06-.14,0-.05v0l.07-.15s0,0,0,0,0,0,0,0l0,0,0,0,.05-.11a2.26,2.26,0,0,1,.35.17,1.24,1.24,0,0,0,.3.13l0,0-.65-.3.11-.24L16.54,6a.75.75,0,0,0,.08-.2.54.54,0,0,1,.05-.11.19.19,0,0,1,.07-.06.36.36,0,0,1,.06-.11l.07,0,0,0s0,0,0,0H17a.23.23,0,0,0,.11,0l0,0,0,0s.05,0,.06,0l0,0a.08.08,0,0,1,.07,0l0,0,0,0s0,0,.05,0l.1,0h.11l.08,0a1.21,1.21,0,0,0,.05-.14.2.2,0,0,0,0-.11L16.31,4.7l-.16-.08L16,4.54l-.17-.07a.24.24,0,0,0-.14,0c0,.06,0,.1-.05.14a.53.53,0,0,0,0,.12l.07,0,0,0,0,0,.06,0s0,0,0,0l0,0,.14,0A.23.23,0,0,1,16,5V5l0,0,.09.06.09.06.07,0s0,.09,0,.12a.16.16,0,0,0,0,.09l-.07.16h0s0,0,0,0a.52.52,0,0,1-.06.22L16,6.13c-.05.11-.09.21-.12.29s-.06.16-.09.26l0,0,0,0,0,0a.1.1,0,0,1,0,0l0,0-.15.34,0,0a.09.09,0,0,1,0,.07l-.06.07-.06.06a.19.19,0,0,0,0,.08l0,0s0,0,0,0v.1s0,.06,0,.09Z"/><path class="cls-2" d="M17.67,6.39a.07.07,0,0,0,0,.07.09.09,0,0,1,0,0l0,0-.05,0a.1.1,0,0,1-.05,0s0,0,0,0a.2.2,0,0,0,0,.07s0,0,0,.06a.31.31,0,0,1-.05.09l-.05,0,0,0s0,0,0,0,0,0,0,0l-.13.27a.43.43,0,0,1,0,.05.08.08,0,0,1,0,0,.16.16,0,0,1,0,.06h-.06a.45.45,0,0,0,0,.1.11.11,0,0,0,0,.08.28.28,0,0,1-.06.08.1.1,0,0,0-.05.08,1.22,1.22,0,0,0,0,.33c0-.07.05-.12.13-.11s.13.16.13.27,0,.2-.11.19h0l.1.15a.1.1,0,0,0,.06,0l.07,0h.1a.09.09,0,0,1,0,0v.05l.15.07v0s0,0,.06,0h.05L18,9l.21.09a.33.33,0,0,0,.17,0s0,0,0,0h.09l.1,0h.21l.05,0L18.94,9h0L19,9a.08.08,0,0,0,0-.07.08.08,0,0,1,0-.06l.07,0,.07,0a.09.09,0,0,0,0-.08V8.63s0,0,0,0l0,0a.2.2,0,0,0,.06-.11.56.56,0,0,1,0-.1s0,0,0,0,0,0,0,0L19.57,8,19.66,8l0,0h0a.16.16,0,0,1-.05-.09c0-.08.07-.08.11-.07l0,0s0,0,0,0a.07.07,0,0,0,0,0,.16.16,0,0,1,.08-.06l.09,0s0-.06,0-.1a.13.13,0,0,0,0-.1c0-.07.06-.09.08-.09H20a.22.22,0,0,0,0-.08H20a1.15,1.15,0,0,0,0-.37,1.35,1.35,0,0,0-.11-.34,1.22,1.22,0,0,0-.23-.29A1.66,1.66,0,0,0,19.29,6H19.2l-.09-.05L19,5.87l-.12,0h0s0,0,0,0l-.18-.09h-.31a.49.49,0,0,0-.21.08A.93.93,0,0,0,18,6c-.05.06-.11.12-.16.19ZM17.26,8l-.05,0,0,0s0,0,0,0h0Zm.07,0h0l0,0v0h0Zm.05-.77h0l0,.06h0v0Zm0,.46h0l0,0,0,0Zm-.09-.14,0,0h0s0,0,0,0Zm.23,1,0,0v0s0,.08-.1.08,0-.11,0-.16,0,0,0-.05h0s.08,0,.09,0,0,0,0,0Zm.13.3h0l0,0h0v0Zm1.28-.13h0s0,0,0,0h0Zm.09,0,0,0v0l0,0Zm.14,0h0V8.59h0ZM18.18,6a1.28,1.28,0,0,1-.18.69A1.29,1.29,0,0,1,18.18,6Zm-.11.71a1.7,1.7,0,0,1,.18-.26.53.53,0,0,1,.23-.16l.07,0,.06,0s0,0,.07,0l.07,0,.08,0,.06,0,0,0h0l.05,0,.07,0,.07,0a.06.06,0,0,1,.05,0l.06.07.06.07.12.06a.2.2,0,0,1,0,.08.11.11,0,0,0,.06.07.47.47,0,0,0,0,.17l0,.17a.16.16,0,0,1,0,.08.93.93,0,0,1-.05.1l-.06.08,0,.06a.26.26,0,0,1,0,.11l-.07.13-.06.12a.3.3,0,0,0,0,.11.3.3,0,0,0,0,.11.12.12,0,0,0,0,.08l-.06,0a.08.08,0,0,0,0,.07.18.18,0,0,0,0,.06V8.3a.15.15,0,0,1,0,.06L19,8.43,19,8.49l-.05,0v0s0,0,0,0l-.05,0-.06.05-.07,0-.06,0-.05,0a.19.19,0,0,0-.12,0l-.12,0-.09,0-.1,0-.16,0-.17-.07-.11-.06v0l-.1,0a.43.43,0,0,1,0,0s0,0,0,0a.65.65,0,0,1-.09-.19c0-.05,0-.12,0-.2l-.05,0-.06,0v0s0,0,0,0l0,0,0,0,.07-.16,0,0v0l0-.06.05,0,0-.06a.2.2,0,0,0,0-.11h.12A2.52,2.52,0,0,0,17.92,7Z"/><path class="cls-2" d="M5.24,2.19v0l.14,0,.22.11.21.11L6,2.57l0,0-.75-.35Z"/><path class="cls-2" d="M6.16.89s0,0,0,0h0v0Z"/><path class="cls-2" d="M4.6,2.6v.08l0,0V1.85H4.56a0,0,0,0,0,0,0s0,0,0,0,0,0,0,0a.09.09,0,0,0,0,.08.92.92,0,0,0,0,.29Z"/><path class="cls-2" d="M5.81.78s0,0,0,.06a.06.06,0,0,0,0,0H6l0,0Z"/><path class="cls-2" d="M7,.16l0,0h0l0,0Z"/><path class="cls-2" d="M6.37,1.25s0,0,0,0h0s0,0,0,0,0,0,0,0A.08.08,0,0,0,6.37,1.25Z"/><path class="cls-2" d="M5.41,2l0,0a0,0,0,0,1,0,0h0Z"/><path class="cls-2" d="M4.89.9a.3.3,0,0,0,0-.1s0,0,0,0h0a1.34,1.34,0,0,1,0,.2h0Z"/><polygon class="cls-2" points="7.83 2.15 7.85 2.16 7.88 2.13 7.85 2.1 7.83 2.15"/><path class="cls-2" d="M9,2,9,2h0A0,0,0,0,1,9,2H9l0,0s0,.06,0,.08Z"/><path class="cls-2" d="M7.57,2.85h0a.67.67,0,0,0,0,.2.31.31,0,0,0,.11.16.22.22,0,0,0,0-.18Z"/><path class="cls-2" d="M8.81,2.55a.28.28,0,0,0-.05.08.16.16,0,0,0,0,.08v0a.24.24,0,0,1,.09-.06.43.43,0,0,1,0,0v0h0S8.81,2.56,8.81,2.55Z"/><path class="cls-2" d="M10.48,2.44h-.07s0,0,0,0v0l0,0Z"/><path class="cls-2" d="M10.77,3.84l.07,0v0h-.13s0,0,0,.05Z"/><path class="cls-2" d="M10.59,3.85h0Z"/><path class="cls-2" d="M11.56,2.37h0l0,0-.06,0v.06Z"/><path class="cls-2" d="M11.27,2.35h.1l0,0,0-.06s-.08,0-.1,0h-.1l0,.09a.13.13,0,0,0,0,.08h0l.05,0A.06.06,0,0,1,11.27,2.35Z"/><path class="cls-2" d="M10.47,2.29v0h0l0,0-.09,0-.05.06v0h.06Z"/><path class="cls-2" d="M9.81,3.43a.12.12,0,0,1-.09,0s0,0,0,0v0l.08,0,0-.08Z"/><path class="cls-2" d="M10.61,3.64a.32.32,0,0,0-.09,0,.14.14,0,0,0,0,.07v.06l.06,0,0-.07S10.6,3.66,10.61,3.64Z"/><path class="cls-2" d="M10.73,2.69l0,0a.12.12,0,0,1,.07,0,.09.09,0,0,0,0-.05V2.57a.21.21,0,0,0-.06-.08s0,0,0,.06,0,0,0,.05h0l0,0A.09.09,0,0,0,10.73,2.69Z"/><path class="cls-2" d="M10.52,2.64h-.06l0,0,0,0s0,0,0,0a.15.15,0,0,1,0-.09Z"/><path class="cls-2" d="M12.11,4.56a.08.08,0,0,0,.08,0,.85.85,0,0,1,.22.09l.22.1.21.11a1,1,0,0,0,.19.08l0,0-.75-.34-.14-.06a.34.34,0,0,0-.11-.05s0,0,0,.07S12.08,4.55,12.11,4.56Z"/><path class="cls-2" d="M15.67,6.18l.06,0,.06,0h.11l0,0s0,0,0,0v0l-.33-.14s0,0,0,0A.1.1,0,0,0,15.67,6.18Z"/><path class="cls-2" d="M16.08,5.32l0,0H16l0,0a.13.13,0,0,0,.08,0l.06,0s0,0,0,0,0,0,0,0Z"/><path class="cls-2" d="M16.82,5.7s0,0,0,.06a.08.08,0,0,1,0,0h.05a.11.11,0,0,0,0-.05.07.07,0,0,1,0,0Z"/><rect class="cls-2" x="15.93" y="5.53" width="0.03" height="0.03" transform="translate(4.26 17.73) rotate(-65.38)"/><polygon class="cls-2" points="16.72 5.9 16.74 5.86 16.71 5.84 16.69 5.89 16.72 5.9"/><path class="cls-2" d="M15.43,7s0,0,.06,0,0,0,0,0l0,0V7l-.21-.09s0,0,0,.06Z"/><path class="cls-2" d="M19.94,7.74a.23.23,0,0,0,0-.09s0,0,0-.05l0,0v0a.43.43,0,0,1,0,.05Z"/><path class="cls-2" d="M18.07,7.5l.24.14.25.13a1.06,1.06,0,0,0,.25.09H19a.4.4,0,0,1,.13,0h0a2.33,2.33,0,0,1,.1-.27,2.55,2.55,0,0,1,.13-.29l.11-.25a.49.49,0,0,0,0-.17.33.33,0,0,1,0-.17h-.09l-.05.12L19.21,7a.83.83,0,0,1-.07.13.19.19,0,0,1-.07.08.14.14,0,0,1-.09,0h-.15l-.15,0a.38.38,0,0,1-.11-.05V7.12l-.15,0L18.34,7l-.06-.09a.79.79,0,0,0,0-.2.52.52,0,0,1,0-.21s0,0-.05,0h0c-.05.09-.1.18-.14.27L18,7l-.06.16a.15.15,0,0,1-.06.11v.09Z"/><path class="cls-2" d="M21.06,6.63l.12,0h.12l-.13-.07L21,6.52v.05A.11.11,0,0,1,21.06,6.63Z"/><path class="cls-2" d="M21.37,6.78s0,0,0,0l0,0h0v0h0Z"/><path class="cls-2" d="M20.14,8.86v0a.13.13,0,0,1,0-.07.19.19,0,0,1,0-.08l-.17-.08a1.29,1.29,0,0,0-.1.22.15.15,0,0,0,.05.16s0,.05-.05.05l0,.05.15.08a.26.26,0,0,1,.07.1l.08,0,.07,0,.05-.09.09-.16A1.09,1.09,0,0,0,20.35,9s0-.06,0-.07l0,0-.07,0-.06,0,0,0,0,0Z"/><path class="cls-2" d="M20.35,7.71h.06a0,0,0,0,1,0,0s0,0,0,0a.14.14,0,0,0,.11,0,.16.16,0,0,1,.1,0l0,0a.5.5,0,0,0,0-.12c0-.28.15-.07.22-.13s.1,0,.07.09l0,0h0a.31.31,0,0,0,.05-.1.23.23,0,0,0,0-.09l0,0a0,0,0,0,1,0,0,.09.09,0,0,0-.1,0,.27.27,0,0,0-.07.08h-.14l0-.08a.41.41,0,0,0,0-.08l-.08-.05-.1-.06-.09,0a.13.13,0,0,1-.05-.06l-.05,0h-.05a.08.08,0,0,0,0,.08s0,0,0,.06l-.06.12s0,.07,0,.09l0,0h0a.08.08,0,0,0,0,.05A.14.14,0,0,0,20.35,7.71Zm.32-.08h0l0,0h0a.1.1,0,0,1,0-.05l0,0,0,0Zm0-.18h0l0,0a0,0,0,0,0,0,0Zm-.08-.1h0l0,0,0,0S20.58,7.36,20.58,7.35Zm-.07.3h0l0,0h0l0,0,0,0Zm0-.09,0,0s0,0,0,0,0,0,0,0Zm-.06-.11h0a0,0,0,0,1,0,0h0Z"/><path class="cls-2" d="M21.12,7.06v0l0,0v0Z"/><path class="cls-2" d="M21,6.51h0l-.07,0,0,0Z"/><path class="cls-2" d="M20.89,6.46l0,0-.05,0h0v0l.12.06Z"/><path class="cls-2" d="M20.93,6.93h-.08V7L21,7V7s0,0,0,0Z"/><path class="cls-2" d="M20.71,6.66l.06-.13,0,0,0,0,0,0,0,.06,0,.07a.11.11,0,0,0,0,0v0h0Z"/><path class="cls-2" d="M21.1,6.94v0l0,0,0,.06,0,0Z"/><path class="cls-2" d="M7.15,5.34c0-.15,0-.34.21-.45.06.26.3.49.1.77l3.62,1.62c.07-.06.15-.11.17-.2a.55.55,0,0,1-.05.26l1,.43a.91.91,0,0,1,.23-.52,2.05,2.05,0,0,1-.16.55h0l.06-.19,0-.08a1.71,1.71,0,0,1,0,.32l.29.13.13-.17c0-.08.08-.15.13-.08s0,.15-.08.21l0,.1.33.14,0,0a.5.5,0,0,0,.12-.29.08.08,0,0,1,0-.09c.1,0,.13.08.08.19s0,.24,0,.36l.14.06c0-.1.05-.21.15-.15s.09.14,0,.24L14.88,9h0L15,9A.21.21,0,0,1,15.14,9a.38.38,0,0,0,0,.15l.33.15a.79.79,0,0,1,0-.63l0,.05a.11.11,0,0,1,.07-.08L14,7.86c0,.1-.08.18-.19.13s0-.11,0-.21L10,6.05a.15.15,0,0,1-.09,0,.07.07,0,0,1,0,0l-.4-.17h0v0l-4.5-2c0,.25.06.5-.19.5s-.13-.36-.13-.65l-1-.47-.27.61L7.08,5.49A1,1,0,0,1,7.15,5.34Zm8,3.28a.71.71,0,0,1,.08-.15s.07,0,.07.06a.18.18,0,0,1-.11.17C15.15,8.71,15.16,8.65,15.17,8.62Z"/><path class="cls-2" d="M15.7,8.83l-.08,0a1.29,1.29,0,0,1,.17.36c.06-.09.07,0,.1.06l-.05.2L16,9.5h.05v0l.56.25h0a.8.8,0,0,0,.08-.16s0,0,0-.06,0-.09.08-.07h0A.28.28,0,0,1,17,9.27a.18.18,0,0,1,.14.11c.05.3-.19.33-.32.48l.36.16c.1,0,.19,0,.23.1l1.35.6a.51.51,0,0,1,.07-.28.26.26,0,0,1,.06.34l.62.28a.21.21,0,0,1,.13-.05c.06,0,.15.07.15.12s0,0,0,0l1.25.56a.38.38,0,0,0,.09-.13h0l.26-.43L18,9.65c0,.06-.07.09-.14,0a.13.13,0,0,1-.05-.13l-.3-.13,0,0a.1.1,0,0,1-.14,0,.15.15,0,0,1,0-.11l-1.66-.74C15.67,8.68,15.75,8.73,15.7,8.83Zm3.38,1.84c0-.09.07-.12.14-.1s.14.08.11.18a.17.17,0,0,1-.19.13C19.06,10.84,19.06,10.76,19.08,10.67Zm-1-.58a.13.13,0,0,1,.15-.09s.07.05,0,.13a.46.46,0,0,1-.15.09C18.09,10.22,18.09,10.14,18.12,10.09Z"/><path class="cls-2" d="M23.49,12.12l-1.87-.83-.16.19h0a.35.35,0,0,1-.2.29l0,.07.3.13s0,0,0,0a.14.14,0,0,1,0,.06l.85.38h0l.09-.13h0c0,.07,0,.14-.06.17l.7.31h0s0-.09.06-.09.06.06,0,.11l0,0,.05,0a.63.63,0,0,1,.21-.19A2.52,2.52,0,0,1,23.49,12.12Z"/><path class="cls-2" d="M23.68,12.64l.16-.36-.13-.06a3.43,3.43,0,0,1-.06.34Z"/><path class="cls-2" d="M9.09,10h0c-.1,0-.15,0-.19-.09l0,0-.23-.1c0,.18-.15.19-.32.12a.5.5,0,0,1,0-.27h0l-.08.09a.29.29,0,0,1,0-.09l0,0L7,9.07c0,.11,0,.27,0,.39a.2.2,0,0,0-.11,0c-.16,0-.15-.23-.25-.32a.15.15,0,0,1-.08.08c-.05,0,0,0,0-.07a.67.67,0,0,1,.06-.12s.06,0,.06,0h0A.38.38,0,0,1,6.74,9l-.24-.1s0,0,0,0L6.42,9s-.07-.05,0-.1l0,0-.84-.38v0l0,.09c0,.08-.07.15-.16.11s0-.1,0-.18l0-.11L4.84,8.1v.1c0,.21,0,.42,0,.62L5.18,9c0-.08,0-.16.11-.12a.15.15,0,0,1,0,.2l.47.21v0s0,0,.08,0,0,.08,0,.12l.48.21a.14.14,0,0,1,.11-.06.21.21,0,0,0,0,.11l1.56.7.09,0a.48.48,0,0,1,.65.36l.73.33a.47.47,0,0,1,.05-.22.21.21,0,0,1,.06.27l.2.09c-.06,0-.06-.1,0-.17s.06-.1.11-.08.12.06.09.15a.15.15,0,0,1-.15.11l.32.14a.12.12,0,0,1,.1,0s.12.05.12.09l0,0,.64.28,0,0,.05-.1c.07-.07.16-.23.15,0a.63.63,0,0,1,0,.19l.68.31.1-.11a.28.28,0,0,1,0-.13l.06-.06a2.21,2.21,0,0,1,.07-.3Zm-3-1.09S6,9,6,9s-.07-.06-.06-.11,0-.11.11-.11S6.09,8.83,6.07,8.92ZM7.56,10A.37.37,0,0,1,7.3,9.6l.33,0C7.66,9.73,7.85,9.94,7.56,10Z"/><path class="cls-2" d="M21.79,15.71l-.17.09-.14.06h0a.19.19,0,0,1-.18.12l0,0a.32.32,0,0,1-.17.11l.84.38.27-.6Z"/><path class="cls-2" d="M13.48,12.51c.1,0,.13-.23.27-.14a1.94,1.94,0,0,1,0-.24v0L13.43,12l0,0c-.06.1-.09.25-.24.2-.06-.21-.09-.33-.06-.4l-.15-.07c-.14.07-.23.08-.22-.1l-.3-.13-.12.33c.06.08.12.16.22.11a.17.17,0,0,1,0,.26l0,.06.48.21a.09.09,0,0,1,0-.06l.08,0c.09.05.2-.33.27,0Z"/><path class="cls-2" d="M20.27,15.28c.05,0,.1-.07.14,0a.25.25,0,0,1,0,.17c-.06.1-.1.2-.16.29l.8.36a.22.22,0,0,1,.14-.18l.08-.05h0l.24-.18,0,0,.05,0-1.17-.53C20.32,15.1,20.2,15.08,20.27,15.28Zm.45.26.11,0,0,.14-.05.14C20.51,15.8,20.73,15.64,20.72,15.54Z"/><path class="cls-2" d="M15.29,12.81h.07l-.06,0v0Z"/><path class="cls-2" d="M17.3,13.83a.11.11,0,0,0,.11,0l0,0a.2.2,0,0,1-.2,0C17.22,13.77,17.24,13.82,17.3,13.83Z"/><path class="cls-2" d="M18.91,14.65v0a.08.08,0,0,1,0,.07v0l.07.06c.17,0,.17.15.14.31s0-.21-.17-.08a.17.17,0,0,1,0,.1l1.05.47a1.47,1.47,0,0,1,0-.21.14.14,0,0,0,0-.06c-.05-.06-.11-.13,0-.21s.06-.09,0-.15v-.08l-.72-.33a.12.12,0,0,1,0,.12s-.07,0-.09,0,0-.11,0-.18l-.22-.1s0,0-.05,0l-.15-.07a.36.36,0,0,0,0,.09C18.91,14.46,19,14.5,18.91,14.65Zm.92.21h0c0,.17-.08.34-.12.54C19.55,15.09,19.59,15,19.83,14.86Z"/><path class="cls-2" d="M17.32,14c-.11-.06-.23,0-.33,0l-.19,0a.11.11,0,0,1-.17-.07h0c-.06,0-.21.14-.17-.09,0,0,.08,0,.12-.07H16.5c-.2.08-.35.07-.39-.11l0,0s0-.08,0-.12a1,1,0,0,1,0-.17l.07-.1,0-.08-.08,0a.13.13,0,0,1-.06.07l-.38-.12a.33.33,0,0,1,.06-.12l-.24-.11a.41.41,0,0,1-.26,0l0-.08h0l0,0-.61-.28s0,.06,0,.09h0c0,.06,0,.1-.08.09s-.18.06-.18.2a.24.24,0,0,1,0,.21l.2.1a.11.11,0,0,1,.1,0h0c.07,0,.17-.08.17,0a.15.15,0,0,1,0,.08l.25.11a.36.36,0,0,1,.15-.32.57.57,0,0,1,0,.41l.86.39s0,0,.05-.05.11,0,.13.13l.42.18,0,0c.05,0,.13,0,.34.08,0,.06,0,.08-.07.08l.25.11a1.14,1.14,0,0,1,.11-.37Zm-2.56-1.27c0,.16-.09.17-.19.11l0-.15C14.69,12.63,14.76,12.59,14.76,12.72Zm1.14.83-.08,0c-.1,0-.14-.09-.1-.2s.11-.11.18-.05A.33.33,0,0,0,15.9,13.55Z"/><path class="cls-2" d="M17.86,14.55a.2.2,0,0,1,0,.11l.67.31a.24.24,0,0,0,0-.14v0a.5.5,0,0,0,.08-.2.94.94,0,0,1,0-.29L18,14l-.06.06C17.8,14.16,18,14.39,17.86,14.55Z"/><path class="cls-2" d="M16.91,13.62a.36.36,0,0,0,0-.09l-.06,0c0,.15-.08.23-.18.25l0,0C16.91,13.9,16.87,13.71,16.91,13.62Z"/><path class="cls-2" d="M3.13,8.06c.05-.05.11-.09.12-.16a.34.34,0,0,1,0,.2L4,8.46A.77.77,0,0,1,4.22,8a1.67,1.67,0,0,1-.13.45l.34.15c0-.24,0-.47,0-.71l-.68-.31,0,0v0L1.9,6.78v.06h0l-.24.54ZM2.07,6.93s.06,0,.08,0a.07.07,0,0,1,0,.11H2.1l0,0A.15.15,0,0,1,2.07,6.93Z"/><path class="cls-2" d="M4.73,12.54a.17.17,0,0,1,0,.07l0,0Z"/><path class="cls-2" d="M5.84,12.92a.21.21,0,0,1-.15.07.09.09,0,0,0-.11,0l0,.06h0v0a.24.24,0,0,1-.07.12h0a.47.47,0,0,1,0,.17L6,13.7a.3.3,0,0,1,0-.1v0a.09.09,0,0,1,0-.09H6a.12.12,0,0,1,0-.05c.1-.1.23-.2.28-.17s.24.05.36,0l-.87-.38Z"/><path class="cls-2" d="M5.17,13.26s0,0,0,0h0v0l0,0v-.1c0-.12-.18-.18-.13-.34H5c-.09.08-.11,0-.12-.06s-.09.06-.12.11a.27.27,0,0,1-.07.08.06.06,0,0,0,0,0h0s.11,0,.16.11l.06.19.31.13A.38.38,0,0,0,5.17,13.26Z"/><path class="cls-2" d="M6.23,13.73a.1.1,0,0,1-.05,0l.11.05S6.3,13.76,6.23,13.73Z"/><path class="cls-2" d="M14.54,17.26a1.35,1.35,0,0,1,.07-.44L12.75,16l0,0a.78.78,0,0,1-.1.15v0c0,.24-.17.23-.32.25l0,0,1.29.58,0,0a.22.22,0,0,1,.17-.09c.09,0,0,.15,0,.22l.73.33,0-.24Z"/><path class="cls-2" d="M17.77,18.24l-1.35-.6h0s0,0,0,0l-1.62-.72c0,.09-.12.19-.08.28s0,.26,0,.39l1.22.55h0s.06,0,.06.05l.18.08c.05,0,.09,0,.1,0l.53.24a0,0,0,0,0,0,0s0-.13.11-.11.05.08,0,.14,0,0,0,.06l.18.08a.47.47,0,0,1,.19-.4,1.27,1.27,0,0,0,.11.54l0,0a.33.33,0,0,1,.18-.14.77.77,0,0,0-.05.19l.18.08s0,0,0,0a.28.28,0,0,1,.05-.08c-.11,0-.16-.2-.15-.31S17.68,18.26,17.77,18.24Z"/><path class="cls-2" d="M12,16.37c-.09-.18-.14-.15-.19-.06l.19.09v0Z"/><path class="cls-2" d="M11.58,16.19l.11,0a.75.75,0,0,0,0-.16Z"/><path class="cls-2" d="M7.3,13.68a.32.32,0,0,1,0-.09l0,0-.47-.21c0,.23,0,.46,0,.7l.42.19a1.55,1.55,0,0,0,0-.37A1.34,1.34,0,0,1,7.3,13.68Z"/><path class="cls-2" d="M12.06,16.1c0,.07,0,.15.07.22a.61.61,0,0,0,.31-.11l.13-.05a1.8,1.8,0,0,1,.06-.22l-1.1-.5,0,0h-.05s0,0,0,0v0l-.6-.27,0,0,0,0L8.1,13.91H8s-.09.1-.15.05a1.39,1.39,0,0,1,0-.17s0,0,0,0l-.37-.17v0s0,.08.08.07a.09.09,0,0,1,0,.13l0,0a.2.2,0,0,0,0,.21.55.55,0,0,1,0,.23L8.94,15l-.13-.1,0-.05c.07,0,.12.08.19.07A.13.13,0,0,1,9,15H9l.06,0H9c.06,0,.11,0,.16.06h0l.13.06c0-.07.08-.12.16,0a.14.14,0,0,1,0,.14l.41.18h0l.86.39a.64.64,0,0,1,.22-.1.42.42,0,0,1-.12.14l.56.25c0-.12,0-.32.21-.31a.17.17,0,0,1,.1,0h0C12,15.77,12.12,15.78,12.06,16.1ZM9.39,14.68s-.1.05-.11,0,0-.12.05-.19S9.41,14.6,9.39,14.68Zm2,1c-.11.14-.19.08-.27,0,.1-.11.19-.13.29-.08A.19.19,0,0,1,11.4,15.63Z"/><path class="cls-2" d="M20.38,19.61l.11.12.1-.22L18.1,18.39c0,.18-.06.34-.19.41a.41.41,0,0,0,.16,0l-.05.11A.43.43,0,0,1,18,19l.2.1a.21.21,0,0,1,0-.11c0-.11.06-.16.14-.13s.07.11.07.16,0,.07-.08.11l.23.1c0-.05.07-.12.08-.18s.09.15.06.25l1.5.67c0-.07.07-.09.12-.05a.11.11,0,0,1,.05.12l.05,0,.11-.23a.24.24,0,0,1-.12-.07C20.23,19.72,20.35,19.67,20.38,19.61Zm-.22.2c-.06,0-.06-.06,0-.1s.05-.09.1-.06,0,.05,0,.06S20.2,19.82,20.16,19.81Z"/><path class="cls-2" d="M3.65,12.35v-.1A.56.56,0,0,1,3.79,12l0,0-.58-.26v0a.08.08,0,0,1,0,0,.67.67,0,0,1-.1.23l0,.1v.05l0,.21.49.22,0,0Z"/><path class="cls-2" d="M3.85,12.46a.7.7,0,0,0-.11.21l.64.29V12.8l-.06-.43s0,.09-.11.07,0-.09,0-.14a.52.52,0,0,1,.06-.13h0l-.17-.07a.14.14,0,0,0,0,.06A1,1,0,0,1,3.85,12.46Z"/><path class="cls-2" d="M1.59,11,.27,10.39l-.14.32c.1,0,.18,0,.26-.15s.08,0,.13,0c0,.22.24.4,0,.65l2.12.95.06-.14h0c0-.1,0-.19-.07-.29l0-.27-.28-.12c0,.13-.2.16-.27.26a.3.3,0,0,1-.07-.42l-.23-.1c0,.09-.09.22-.19.18S1.56,11.12,1.59,11Z"/><path class="cls-2" d="M.37,11.16l.1.05C.46,11.15.45,11.09.37,11.16Z"/><path class="cls-2" d="M.06,10.87,0,11l.22.1v0Z"/></g></g></svg>