<svg xmlns="http://www.w3.org/2000/svg" viewBox="0 0 28.5 12.69"><defs><style>.cls-1{fill:#6b2735;}</style></defs><g id="레이어_2" data-name="레이어 2"><g id="_迹_1" data-name="卵迹_1"><path class="cls-1" d="M6.26,5.41l-.06,0s0,0,0,.05l0,0h0l0,0a.12.12,0,0,0,0,0S6.28,5.42,6.26,5.41Z"/><path class="cls-1" d="M4.49,6.2l-.22,0a.08.08,0,0,0,0,.07h.23s0,0,0,0Z"/><path class="cls-1" d="M6.08,5.45s0,0,0,0,0,0,0,0H6s0,0,0,.06v0h.08Z"/><path class="cls-1" d="M5.77,3.29v0H5.69v0Z"/><path class="cls-1" d="M4.45,4.41H4.29l.07,0s0,.07,0,.07a.14.14,0,0,0,.1,0h.28l.29,0,.28,0a1.06,1.06,0,0,0,.24,0v0l-1-.11Z"/><path class="cls-1" d="M6,5.13l.05,0,0,0a.25.25,0,0,0,0-.07V5s0,0,0,0l.06,0V4.83s0-.07,0-.1a.12.12,0,0,0,0-.09l0-.06a.21.21,0,0,1,.18-.14.16.16,0,0,0,0-.06s0,0,0,0V4.28l0,0V4.19l0,0a.25.25,0,0,1,0-.1.34.34,0,0,0,0-.11l-.05,0,0,0s0,0,0,0,0,0,0,0,0,0,0,0,0,0,0,0L5.93,3.7l0-.07H5.82a.05.05,0,0,0,0,0l0,0H5.71l0,0-.16,0a0,0,0,0,1,0,0s0,0,0,0a.25.25,0,0,0-.16,0H5a.17.17,0,0,1-.12-.06L4,3.22l-.23,0a.35.35,0,0,0-.18,0,.11.11,0,0,0,0,.06s0,0,0,0L3.42,5.25h0v.09l0,0a.24.24,0,0,1,0,.12l0,.11s0,.07,0,.1a.09.09,0,0,0,0,.07s0,0,0,0,0,0,0,0l0,.36,0,0a.28.28,0,0,0,0,.08l0,0s0,0,0,0h0s0,.06,0,.08l0,.06a.07.07,0,0,1,0,.08l0,.06.06,0,.05,0s0,0,0,0l0,.05L3.41,7h.23a.3.3,0,0,0,.07-.23,1.22,1.22,0,0,1,0-.26s0,0,0,0h0a1.42,1.42,0,0,1,0-.19.82.82,0,0,1,0-.22c0-.07,0-.13,0-.19A.13.13,0,0,1,4,5.73a.08.08,0,0,0,0-.06.35.35,0,0,1,0-.06.42.42,0,0,0,.36-.1l0,0,0,0s.08,0,.1,0l.07,0,.06,0,.12,0,.11,0a.1.1,0,0,0,.06,0,.2.2,0,0,1,.06.11.22.22,0,0,0,0,.11H5l0,0h0v.07l.05,0,0,0V6h0s0,0,0,0h0a.33.33,0,0,0,0,.18l.06.11-.21,0-.17,0H4.6l.06,0s0,.06,0,.06a.14.14,0,0,0,.1,0l.35,0a0,0,0,0,0,0,0v0l0,.1a.21.21,0,0,0,.06.08.41.41,0,0,1,0,.09v.1a.21.21,0,0,0,.06.1.17.17,0,0,1,0,.14h.07a.08.08,0,0,0,0,0h0a.12.12,0,0,0,.05,0h0l0,0h0s0,0,0,0,0,0,0,0h.07a.11.11,0,0,1,0,0h.09a.05.05,0,0,0,0,0l0,0,0,0a.25.25,0,0,0,0-.13.05.05,0,0,1,0-.08s0-.07,0-.08,0-.06,0-.12h0l0,0s0,0,0,0h.08a.31.31,0,0,0,0-.13.61.61,0,0,0,0-.12l.14,0H5.9V6.35l-.28,0,0-.06a.14.14,0,0,1,0-.07V6l0,0,0,0a0,0,0,0,1,0,0s0,0,0,0,0-.06,0-.1l-.08-.07,0-.06,0,0h0s0,0-.07,0H5.34s0,0,0,0v0h.18l.07,0,.1,0h.06s0,0,0,0h.07a.1.1,0,0,0,0,0,.1.1,0,0,1,0,0V5.32a0,0,0,0,1,0,0v0s0,0,0,0Zm-2.45.61v0s0,0,0,0l0,0,0-.06h0Zm.09-.14h0V5.56h0v0S3.66,5.61,3.66,5.6Zm.2-.11,0,.06H3.76a.21.21,0,0,1,0-.07s0,0,0-.06v0l0,0,.05,0S3.86,5.46,3.86,5.49Zm1.52.56h.07l0,0h0l0,0h0l0,0Zm-.94-.69,0,0h0s0,0,0,0Zm.42,0H4.79a.08.08,0,0,0,0,0l0,0h0ZM5,5.53v0H5v0s0,0,0,0H5A0,0,0,0,0,5,5.53Zm.3,0h0s0,0-.06,0a.12.12,0,0,0,0,0v0a.12.12,0,0,1,0,0,.1.1,0,0,0,.06,0Zm.38-1.07,0,.13a.59.59,0,0,0,0,.13.2.2,0,0,0,0,.11A.66.66,0,0,1,5.54,5a.54.54,0,0,1-.14.11.23.23,0,0,1-.11,0h-.1l-.07,0a.5.5,0,0,0,0,.12l0,0,0,0H4.9l0,0h-.1a.28.28,0,0,1-.12,0l-.11,0a.11.11,0,0,1,0,0h0l0,0,0,0,0,0-.11,0L4.18,5,4.11,5a.07.07,0,0,1-.06,0,.51.51,0,0,1,0-.21,1.94,1.94,0,0,1,0-.33s0,0,0,0h.17l0,0,0,0H4A2.9,2.9,0,0,1,4.11,4a.47.47,0,0,1,.09-.19h0v0a.35.35,0,0,0,.13-.08l.11-.11h.06a.35.35,0,0,0,.06.09.25.25,0,0,0,.13,0,.23.23,0,0,1,.11,0v0s0,0,0,.05l.1,0A.13.13,0,0,0,5,3.8l.16,0a.32.32,0,0,1,.09.08.17.17,0,0,1,0,.05h.1V4s0,0,0,0h.07a.22.22,0,0,1,.11.13l.07.18,0,0A.34.34,0,0,1,5.69,4.45Z"/><path class="cls-1" d="M6.25,5.09l0,0,0,0-.07,0v.12a.25.25,0,0,0,.15,0l.11-.1s0,0,0,0a.11.11,0,0,1,0,0h0A.13.13,0,0,0,6.25,5.09Z"/><path class="cls-1" d="M7.17,6h0a.45.45,0,0,0,.08.23.32.32,0,0,0,.18.14.32.32,0,0,0-.08-.21A.7.7,0,0,1,7.17,6Z"/><path class="cls-1" d="M7.21,4.58v0h0v0Z"/><path class="cls-1" d="M8.5,4.46h0s0,0,0,0H8.4s0,.09,0,.1,0,0,0,0Z"/><path class="cls-1" d="M8.51,5.23h0a.22.22,0,0,0,0,.1.17.17,0,0,0,0,.1l0,0a.22.22,0,0,1,.07-.09s0-.06,0-.07A.08.08,0,0,0,8.51,5.23Z"/><path class="cls-1" d="M8,4.88l.38,0v0l-.71-.08v0Z"/><path class="cls-1" d="M7.36,6.5l.3,0,.28,0h.24v0l-1-.11h0v0Z"/><path class="cls-1" d="M8.56,5.53,7.21,5.38l0,0s0,0-.08,0V5.26a.11.11,0,0,0,0-.06.08.08,0,0,0,0,0l0,0s0,0,0,0A.06.06,0,0,0,7,5a.63.63,0,0,0,0-.09.24.24,0,0,0,0-.08.06.06,0,0,0,0-.07h0s0,.06,0,.06a.14.14,0,0,0,.1,0h.15v0H7.06a.72.72,0,0,0,0-.17c0-.07,0-.12,0-.14l0,0,0,0s0,0,0,0h0v0h0v-.1l0-.06h0a.46.46,0,0,0,.21,0l0,0c0-.11,0-.22,0-.33l0-.21h0l-.19,0L7,3.58h-.2l-.16,0a.71.71,0,0,0,0,.21V4a.12.12,0,0,1-.05.07s0,0,0,.09l0,0a.18.18,0,0,1,0,.12.36.36,0,0,1,0,.09s0,.07,0,.09a.11.11,0,0,1,0,0l0,.21c0-.06.11-.11.15-.06a.79.79,0,0,1,.13.8.58.58,0,0,1-.33-.28v.11c0,.07,0,.13,0,.19a.12.12,0,0,0,.08.11l-.07.61,0,0,0,.39h.13c0,.14,0,.2-.11.24l0,.2,0,0a.19.19,0,0,1,0,.07.13.13,0,0,1,0,.06l.13.17h.08l0,0a.07.07,0,0,1,.08,0,.09.09,0,0,0,.08,0,.27.27,0,0,0,.09,0l.12,0h.1s.07,0,.09,0,0,0,0,0,0,0,0,0,.07,0,.09,0l.06,0a.11.11,0,0,1,.11,0l.09.06.11,0H8l.08,0,.22,0a.24.24,0,0,0,.15-.09.07.07,0,0,0,0,0s0-.06,0-.09l-.16,0V7.26a.35.35,0,0,1-.14-.06.15.15,0,0,0-.15,0l0,0-.17,0a.09.09,0,0,1-.08,0,.09.09,0,0,0-.09,0,0,0,0,0,1,0,0l0,0s0,0-.11,0l-.2,0-.19,0L7,7.1s0,0,0,0h0A.39.39,0,0,1,7,7S7,7,7,7a.42.42,0,0,1-.14,0l-.09,0a1.05,1.05,0,0,1,0-.19.64.64,0,0,0,0-.07c-.07-.09,0-.23-.06-.35a2.66,2.66,0,0,1-.1-.38h0L6.62,6h0a.09.09,0,0,1,.05-.09.18.18,0,0,0,.07-.05v0h0l.08-.05H6.9A.17.17,0,0,1,7,5.9a.24.24,0,0,0,.24-.09l.09,0,.08,0h0l0,0,.07,0a.14.14,0,0,1,.13,0,.29.29,0,0,0,.13.05h.06l.39,0,0,0v0l.11,0v0l0,0h.06a.23.23,0,0,0,.08-.07l0,0,0-.14,0,0Zm-.37,2h0v0h0Zm-.6-.18h0v0l0,0Zm-.52.06h0v0h0ZM6.92,7.2A.17.17,0,0,0,7,7.14H7l-.11.11h0A.1.1,0,0,1,6.92,7.2Zm-.21-.3h0V7h0Zm0,.42h0v0H6.67v0Zm-.3-.25h0V7l0,0A0,0,0,0,0,6.43,7.07Zm.07.11h0v0h0ZM6.53,6h0V6h0A.11.11,0,0,1,6.53,6Z"/><path class="cls-1" d="M7.66,4.17l.06,0,.06-.05.33,0,0,0v0l.06,0,.05,0,.05,0h0a.14.14,0,0,1,.08,0,.16.16,0,0,0,.12,0v0l0,0,.25,0,0,0h.06c0-.11,0-.23,0-.35v0L7.66,3.66Z"/><polygon class="cls-1" points="7.2 5.12 7.22 5.12 7.24 5.08 7.2 5.06 7.2 5.12"/><path class="cls-1" d="M9.92,5.55a.1.1,0,0,0,.07,0,.21.21,0,0,0,0-.07h0a.09.09,0,0,0,0,0l-.12,0a.22.22,0,0,1,0,.09.16.16,0,0,0,0,.08h.08Z"/><path class="cls-1" d="M10.26,5.51h-.1s-.05,0-.05.06,0,0,0,.07l-.07,0-.07,0,0,.06,0,.09a.44.44,0,0,0,0,.1V6h.05a.36.36,0,0,1,0-.11s0,0,0-.08L10,5.79a.9.9,0,0,1,.05-.09l.07,0,0,0s0,0,0,0l.06,0Z"/><path class="cls-1" d="M10.7,6.07v0l0,.07h0l0,0,0,0,0,0a0,0,0,0,0,0,0h-.06Z"/><path class="cls-1" d="M11,5.78s0,0,0,0v0s0,0,0,0S11,5.8,11,5.78Z"/><path class="cls-1" d="M10.93,5.93V5.87l0,0a.08.08,0,0,0,0,0h0Z"/><path class="cls-1" d="M11.22,6.16v0h.16l0,0-.06,0Z"/><path class="cls-1" d="M11,5v.14H11l0-.17H11Z"/><path class="cls-1" d="M10.9,5.45h-.07a.51.51,0,0,1,0,.09.34.34,0,0,1,0,.11H11c0-.06,0-.11,0-.13A.28.28,0,0,1,10.9,5.45Z"/><path class="cls-1" d="M9.17,6.66s0,.08,0,.1,0,0-.05.06a.65.65,0,0,0,0,.24.78.78,0,0,0,.11.2.8.8,0,0,0,.15.17l.17.13,0,.06.08.07a.16.16,0,0,0,.08.06.14.14,0,0,0,.11,0l0,0a.15.15,0,0,1,.08,0s0,0,.07,0l.05,0s0,0,0,.05a.28.28,0,0,0,.22.07,1,1,0,0,1,.3,0V7.82a.19.19,0,0,1,.07.06s0,0,.08,0A.51.51,0,0,0,11,7.84l.14-.06a.54.54,0,0,1,.19,0l.16,0a.16.16,0,0,0,.08-.06.35.35,0,0,0,0-.08l.06-.09.07-.06V7.34l0,0,.06-.09.06-.07.06-.1a1.06,1.06,0,0,0,0-.14l-.07,0h-.09l0,0,0,0a.2.2,0,0,0,0-.11.2.2,0,0,1,0-.09h0v0h0v0c-.05,0-.09,0-.11,0a.09.09,0,0,0,0,0,.25.25,0,0,0,0,.09.16.16,0,0,1,0,.1L11.4,7l0,.14v0a.45.45,0,0,1-.06.32s-.13,0-.14,0a.43.43,0,0,1,0-.14,1.15,1.15,0,0,1-.25.12,1.2,1.2,0,0,1-.38,0,1.29,1.29,0,0,1-.38-.08,1,1,0,0,1-.34-.19V7.14l-.1-.07a.54.54,0,0,1,0-.11.61.61,0,0,1-.05-.12.3.3,0,0,0-.08-.08l.05-.44s0,0,0,0a.06.06,0,0,0,0-.06v0h0a.5.5,0,0,1,0-.12l.08,0c0-.11,0-.2,0-.28s0-.16,0-.23a1.23,1.23,0,0,1,0-.2,1.34,1.34,0,0,1,.07-.18A.33.33,0,0,1,9.8,5V4.83A.57.57,0,0,1,10,4.57a.92.92,0,0,1,.27-.16l.32,0,0,0v0l.18,0,.16,0H11l.08,0,.1,0,.06,0a.21.21,0,0,1,.11.1.57.57,0,0,1,.08.13l.08.13a.24.24,0,0,0,.09.11,1,1,0,0,1,0,.16.77.77,0,0,0,0,.15.53.53,0,0,0,0,.13.19.19,0,0,0,.05.09l0,.06s0,0,0,.06h.1l.07,0V5.59h.08l.05,0H12l.13,0a.8.8,0,0,1,0-.23.3.3,0,0,0-.07-.19.11.11,0,0,1,.06-.07l.08,0a.09.09,0,0,0,0-.06s0,0,0,0a.82.82,0,0,1-.06-.19A.6.6,0,0,0,12,4.57a.91.91,0,0,0-.25-.27l-.29-.21-.18,0c-.06.16-.14.3-.31.17s-.1-.19,0-.27a1,1,0,0,0-.24,0h-.31l-.26,0L10,4,9.91,4l-.13.07-.14.09-.08.06a1.77,1.77,0,0,0-.16.22c-.05.08-.09.16-.13.24l0,.17a1.34,1.34,0,0,1-.07.6s0,.08,0,.12a.59.59,0,0,0,0,.27V6l0,.18s0,0,0,0a1.29,1.29,0,0,1,0,.44h0A.05.05,0,0,1,9.17,6.66Zm2.55.3h0V7h0V7Zm-.05-.15v0l0,0s0,0,0,0h0ZM11.61,7a.06.06,0,0,0,0,0l0,0,0,.06h0A.09.09,0,0,0,11.61,7Zm-.09.09h0v0l-.05,0Zm-.1.06h.05l0,0h0Zm-1,.52h0v0h0Zm-1-1.07h0v0h0A0,0,0,0,0,9.44,6.63Zm-.07-.1,0,0,0,0h0V6.53Zm0,.37h0l0,0h0V7H9.34Zm-.07-.45h0v0s0,0,0,0S9.29,6.47,9.29,6.45Z"/><path class="cls-1" d="M10,5,10,5V4.89l-.05,0,0,0V5Z"/><path class="cls-1" d="M10.49,6.09l0,0v0h0Z"/><path class="cls-1" d="M11.38,5.69l-.06.09-.05.09a.16.16,0,0,1-.06.08s0,0,0,0V6h.08a.2.2,0,0,1,.07-.1l.11-.09V5.73a.31.31,0,0,0,0-.09A.2.2,0,0,0,11.38,5.69Z"/><path class="cls-1" d="M14.47,5.88h0a.62.62,0,0,0,0,.1.19.19,0,0,0,0,.11v0A.27.27,0,0,1,14.5,6a.18.18,0,0,1,0-.06Z"/><path class="cls-1" d="M14.46,5.12h0v0s0,0,0,0h-.1c0,.06,0,.09,0,.11s0,0,.05,0Z"/><path class="cls-1" d="M13.18,5.23v0h.05s0,0,0,0Z"/><polygon class="cls-1" points="13.16 5.77 13.19 5.77 13.21 5.73 13.17 5.71 13.16 5.77"/><path class="cls-1" d="M13.13,6.67h0l0,0a.63.63,0,0,0,.08.23.38.38,0,0,0,.18.13.27.27,0,0,0-.07-.2A1,1,0,0,1,13.13,6.67Z"/><path class="cls-1" d="M12.84,4.47c.1.22,0,.49.11.71s.05.31-.11.36-.18-.18-.17-.28a.49.49,0,0,0-.14-.5h0a.06.06,0,0,0,0,.09s0,0,0,0a.25.25,0,0,1,0,.12l0,.1a.11.11,0,0,0,0,.08s0,0,0,.06L12.41,6a1.76,1.76,0,0,0,0,.19.12.12,0,0,0,.08.12l-.07.61h-.05l0,.4,0,0s0,.07,0,.08l-.05,0v0l0,0,0,0,0,.19,0,0a.13.13,0,0,1,0,.07.25.25,0,0,1,0,.07l.14.17a.1.1,0,0,0,.07,0l0,0,.08,0a.16.16,0,0,0,.08.05h.1l.11,0h.11l.09,0a0,0,0,0,1,0,0s0,0,0,0h.08l.06,0a.12.12,0,0,1,.12,0l.08.05a.29.29,0,0,0,.11,0H14l.08,0a1.06,1.06,0,0,0,.23,0,.18.18,0,0,0,.15-.09.12.12,0,0,0,0-.05V8l-.16,0V7.91a.2.2,0,0,1-.14,0,.16.16,0,0,0-.15,0l-.06,0h-.16a.11.11,0,0,1-.08-.05.07.07,0,0,0-.09,0l0,0h-.13l-.2,0-.19,0-.09,0s0,0,0,0h0s0-.05,0-.05a.2.2,0,0,1,0,0l-.14,0-.1-.06a1.06,1.06,0,0,1,.06-.19.75.75,0,0,0,0-.24.08.08,0,0,0,0,0,.15.15,0,0,0,.06,0s0,.07,0,.07a.14.14,0,0,0,.1-.05h.28l.29,0,.28,0,.24,0v0l-1-.11-.17,0h-.16l0-.06a.18.18,0,0,1,0-.06h0a.23.23,0,0,0,0-.12.17.17,0,0,1,0-.1s0,0,0-.05,0,0,0-.09v0s0,0,0,0,0,0,0,0l0,0H13l0,0a.25.25,0,0,0,.25-.09l.09,0a.2.2,0,0,1,.08,0h0l.05,0,.06,0a.16.16,0,0,1,.14,0,.21.21,0,0,0,.12,0h.06l.39,0,0,0,0,0h.1l0,0v0h.06l.09-.06.08-.09h0a.17.17,0,0,0,0-.05v0l0,0,.06,0V6.17a.09.09,0,0,0,0,0s-.05,0-.08,0l-.06.1-.06,0a.06.06,0,0,1,0-.05L13.17,6a.05.05,0,0,1,0,0l-.08,0V5.91s0,0,0-.06l0,0s0,0,0,0a0,0,0,0,1,0,0s0,0,0-.06a1,1,0,0,1,0-.1s0,0,0-.08a.15.15,0,0,0,0-.07h0s0,.07,0,.06a.13.13,0,0,0,.1,0h.28a3.32,3.32,0,0,1,.44.06,1.29,1.29,0,0,0,.38,0v0l-.8-.09v0h0l0,0h-.13l-.17,0H13a.58.58,0,0,0,0-.17.37.37,0,0,1,0-.14l0,0,0,0,0,0h0V5h0a.16.16,0,0,0,0-.1.15.15,0,0,0,0-.06h0a.35.35,0,0,0,.21,0,.25.25,0,0,0,.13-.12.19.19,0,0,1,.09,0,.43.43,0,0,1,0,.07l.08,0,.05,0,.34,0v0s0,0,0,0h.06l0,0,0,0h.06l.08.05s.06,0,.11,0l0,0v0l.26,0,0,0h.07s0,0,0,0a.07.07,0,0,1,.05,0l0,0,0,0a.24.24,0,0,0,0-.12.28.28,0,0,1-.06-.08l-1.58-.18-.2,0-.21,0h0a.61.61,0,0,1-.06.24ZM12.4,7.72a0,0,0,0,1,0,0h0V7.69l0,0Zm.07.11h-.05v0h0Zm0-1.14v0h0V6.63l0,0A.05.05,0,0,1,12.5,6.69Zm1.65,1.45h0v0h0ZM13.55,8h0V8l0,0ZM13,8h0v.05h0Zm-.16-.16s0,0,.06,0h0l-.11.11h0S12.86,7.86,12.88,7.85ZM12.7,8h-.06s0,0,0,0h.07Zm0-.42,0,0v0h0v0Zm0-1a.27.27,0,0,0-.08.07h0a.08.08,0,0,1,0-.09.15.15,0,0,0,.08-.08h.05Zm.2-.08h-.08V6.41h.09Z"/><path class="cls-1" d="M15.81,4.84a.45.45,0,0,1,0-.11s0-.07,0-.08,0,0,0-.05,0,0,0,0l-.09,0-.16,0h-.15a.08.08,0,0,0-.08.07.29.29,0,0,0,0,.16.47.47,0,0,1-.06.25s0,0,0,.07a.14.14,0,0,1,0,.09.1.1,0,0,0,0,.09.13.13,0,0,1,0,.12h0l0,0a.45.45,0,0,0,0,.11v.16l-.1.88v.07a.15.15,0,0,0,0,.07h0l-.05.52h0a.16.16,0,0,0,0,.11v.15c0,.06,0,.11,0,.16v.11a.57.57,0,0,0,0,.13S15,8,15,8A.1.1,0,0,0,15,8s0,.05,0,.09h.07v0a0,0,0,0,0,0,.05l.06,0s0,0,0,.05h.16V8.27l0,0s0-.07,0-.07l.08,0V8.06a.37.37,0,0,1,0-.11V7.83a.29.29,0,0,1,0-.1l0,0,0-.35v0h0l0,0,.07-.61s0,0,0,0l0,0a.7.7,0,0,1,0-.29c0-.11,0-.21,0-.31a2.06,2.06,0,0,1,0-.21c0-.09,0-.18,0-.26s0-.17,0-.23a.31.31,0,0,0,0-.14l0-.25,0,0V4.88h0ZM15.21,8h0s0,0,0,0h.05Zm.36-2.36H15.5v0l0,0,0,0,0,0Zm0-.15,0,0,0,0,0,0h0l0,0Zm0-.13h-.06l0,0,.05,0,0,0,0,0Zm0-.15h0l0,0,0,0h.06v0Zm0-.13h-.06l0,0v0h0l.05,0h0l0,0Zm0-.12h0l0,0,0,0,0,0,0,.06Z"/><path class="cls-1" d="M19.12,5.14s0,0,0,0a.12.12,0,0,0,0,0,.21.21,0,0,0-.17.08.76.76,0,0,1-.11.14s0,0,0,0h0A.5.5,0,0,1,18.9,5a.2.2,0,0,0,0-.08l0-.06-.24,0-.24,0a.22.22,0,0,1-.05.12l-.06.1V5.2l-.09,0,0,.18s0,0,0,.05l-.06.06,0,.19L18,5.85a.75.75,0,0,0-.07.12l0,.15-.19.37-.19.37,0,.22a1.86,1.86,0,0,1-.13.23.82.82,0,0,0-.1.26.13.13,0,0,0,0,.09s0,0,0,.1l0,0a.24.24,0,0,1-.14-.09A.4.4,0,0,1,17,7.5h-.08a.68.68,0,0,0,0-.14.56.56,0,0,1,0-.12.44.44,0,0,1,0-.2.31.31,0,0,0,0-.19.15.15,0,0,0-.06-.1.15.15,0,0,1,0-.08l0-.23,0-.09a.16.16,0,0,1,0-.12.14.14,0,0,1,0-.07.06.06,0,0,0,0-.05L16.7,6l0-.18s0-.05,0-.06l-.05-.06a.29.29,0,0,1,0-.16.29.29,0,0,0,0-.16.21.21,0,0,0-.05-.11l-.06-.1,0-.14-.06-.22a1,1,0,0,1-.06-.22l-.16,0a.34.34,0,0,1-.12-.06H16l-.08,0a1.39,1.39,0,0,0,0,.17c0,.09,0,.18.05.28s0,.19.05.27a.46.46,0,0,0,0,.14l0,0,0,0a.19.19,0,0,0,.05.1.12.12,0,0,1,.06.08l0,.18,0,0,0,.06,0,.15a.09.09,0,0,0,0,.05l0,.06v.11a1.5,1.5,0,0,0,.09.18l.08.18v.15l0,.06s0,0,0,.05v.15l0,0,0,0,0,.18a.93.93,0,0,0,0,.13.78.78,0,0,1,0,.14h.07a.79.79,0,0,1-.05.22.41.41,0,0,0,0,.22.76.76,0,0,0,0,.11l0,.12.06,0,.06,0s0,0,0,.07a.22.22,0,0,0,0,.08.1.1,0,0,0,.09,0s.05,0,.07,0a.41.41,0,0,0,.33-.08.64.64,0,0,0,.2-.24l0-.19,0,0,0,0,0,0a.12.12,0,0,0,0-.07.16.16,0,0,1,0-.09.3.3,0,0,0,0-.08.13.13,0,0,0,0-.08.07.07,0,0,0,0-.07.16.16,0,0,1,.06-.08l.07,0a0,0,0,0,0,0,0l0,0c0-.06,0-.08,0-.09l.08,0A2.09,2.09,0,0,1,18,7,.43.43,0,0,1,18,6.8l.05,0,.05,0v-.1l.18-.34A2.15,2.15,0,0,0,18.5,6s0-.09.06-.15a1.42,1.42,0,0,1,.05-.16.54.54,0,0,1,.07-.13.18.18,0,0,1,.09-.08V5.36l.06,0,0,0A.29.29,0,0,0,19,5.28.58.58,0,0,1,19.12,5.14ZM17.51,7.3h0V7.25h0Zm.2-.1h-.05V7.12h0Zm.06.08v0l0,0h0v0h0Z"/><path class="cls-1" d="M17.57,5.42v0h.06a.49.49,0,0,0,.1-.3l0,0h-.06a.69.69,0,0,0,0,.1.12.12,0,0,1-.07.07.19.19,0,0,0,0,.08A.14.14,0,0,0,17.57,5.42Z"/><path class="cls-1" d="M15.85,5.43a.81.81,0,0,0,0,.11s0,.06,0,.12h0a.71.71,0,0,0,0-.16A.11.11,0,0,0,15.85,5.43Z"/><path class="cls-1" d="M17.15,6.76l-.08-.07a.32.32,0,0,0-.09,0,.22.22,0,0,0,0,.08.18.18,0,0,0,.05.07l.07.06a.21.21,0,0,1,0,.06h.09a.16.16,0,0,0,0-.08Z"/><path class="cls-1" d="M18,4.77a.11.11,0,0,1,0,.05l.07,0,0,0v0h-.08l-.07,0A0,0,0,0,0,18,4.77Z"/><path class="cls-1" d="M17.49,5.43h0l0,0h.06Z"/><path class="cls-1" d="M16.7,5.53a.11.11,0,0,0,0,.08.43.43,0,0,1,0,.07h0V5.54Z"/><path class="cls-1" d="M17,5.61a.41.41,0,0,0,0,.16l0,0s0,0,0,0l.07,0,0,0a.32.32,0,0,0,0-.2.38.38,0,0,0-.09-.15h0A.53.53,0,0,0,17,5.61Z"/><polygon class="cls-1" points="19.87 6.5 19.89 6.46 19.85 6.44 19.84 6.5 19.87 6.5"/><path class="cls-1" d="M21.14,5.85h0v0a0,0,0,0,1,0,0h0v.07S21.14,5.86,21.14,5.85Z"/><path class="cls-1" d="M19.85,6V6h0s0,0,0,0Z"/><path class="cls-1" d="M19.81,7.4h0a.63.63,0,0,0,.08.23.34.34,0,0,0,.18.13.24.24,0,0,0-.08-.2Z"/><path class="cls-1" d="M21.13,6.6h0a.62.62,0,0,0,0,.1.13.13,0,0,0,0,.11v0a.26.26,0,0,1,.07-.1V6.66s0,0,0,0Z"/><path class="cls-1" d="M20.21,6.16v0h0l0,0H20l-.17,0H19.7a1.16,1.16,0,0,0,0-.16.44.44,0,0,1,0-.15l0,0,0,0,0,0h0v0h-.05a.16.16,0,0,0,0-.1.15.15,0,0,0,0-.06h0a.35.35,0,0,0,.21,0,.25.25,0,0,0,.13-.12.19.19,0,0,1,.09,0s0,0,0,0c.11-.19.3,0,.43,0v0h.06v0l0,0h.1l.05,0H21l.08,0s.06,0,.11,0v0l0,0,.26,0,0,0h.07l0,0a0,0,0,0,1,0,0l0-.06,0-.05a.17.17,0,0,0,0-.12.28.28,0,0,1-.06-.08L20,5l-.2,0-.21,0h-.19l-.17,0a.65.65,0,0,0,0,.2,1,1,0,0,1,0,.25s0,0,0,.06,0,0,0,.1l0,0a.25.25,0,0,1,0,.12l-.05.1a.11.11,0,0,0,0,.08s0,0,0,.06l-.09.77c0,.08,0,.14,0,.19a.12.12,0,0,0,.07.12l-.06.61h0l0,.4,0,0s0,.07,0,.08l0,.05v0h0l0,0,0,.2h0a.14.14,0,0,1,.1-.08c.07,0,.11,0,.12.15s-.05.11-.13.14h0l.08.1h.07l.05,0a.1.1,0,0,1,.08,0l.08,0h.1l.11,0h.11a.11.11,0,0,1,.08,0s0,0,0,0,0,0,0,0H20l.06,0a.1.1,0,0,1,.12,0,.25.25,0,0,0,.08,0,.16.16,0,0,0,.11,0h.3l.08,0A1,1,0,0,0,21,9a.19.19,0,0,0,.15-.08.35.35,0,0,0,0-.06V8.74L21,8.7V8.64a.2.2,0,0,1-.14-.05.17.17,0,0,0-.16,0l-.05,0-.16,0-.08,0s-.05,0-.1,0,0,0,0,0,0,0,0,0h-.11l-.2,0-.19,0-.1,0s0,0,0,0h0s0-.05,0-.05l0,0v0l0,0-.09,0a.27.27,0,0,1-.1-.06.6.6,0,0,1,.06-.19,1.2,1.2,0,0,0,0-.23s0,0,0-.05l.06.05s0,.06.05.06a.11.11,0,0,0,.09,0H20l.29,0,.28,0,.24,0V7.93l-1-.11-.18,0h-.15l0,0a.07.07,0,0,1,0-.06h.05a.2.2,0,0,0,0-.11.46.46,0,0,1,0-.1.13.13,0,0,1,.05-.06.07.07,0,0,0,0-.09,0,0,0,0,0,0,0s0,0,0,0h0v0h.06l0,0a.23.23,0,0,0,.25-.09l.09,0,.08,0,0,0,.05,0,.06,0a.17.17,0,0,1,.14,0,.16.16,0,0,0,.12,0s0,0,0,0h0l.39,0,0,0v0h.11l0,0v0h.06l.09-.06a.59.59,0,0,1,.08-.08h0a.09.09,0,0,0,0,0V7l0,0s0,0,.06,0V6.9a.09.09,0,0,0,0-.05s-.05,0-.08.05L21.29,7l-.06,0s0,0,0,0l-1.36-.15a.07.07,0,0,1,0,0s0,0-.08,0V6.64s0,0,0-.06,0,0,0,0a.07.07,0,0,1,0,0,0,0,0,0,1,0,0s0,0,0-.06a.26.26,0,0,0,0-.1l0-.08a.15.15,0,0,0,0-.07h0s0,.07,0,.07a.14.14,0,0,0,.1,0h.28l.44.06h0a.16.16,0,0,1,0-.06Zm-1.13,2.3h0V8.42l0,0S19.07,8.46,19.08,8.46Zm.1-1v0h0V7.36l0,0S19.19,7.42,19.18,7.42Zm1.65,1.45h0v.05h0Zm-.6-.19h0v0l0,0S20.23,8.7,20.23,8.68Zm-.51.07h0V8.8h0Zm-.16-.16a.17.17,0,0,0,.06-.06h0l-.11.1h0S19.54,8.59,19.56,8.59Zm-.18.17-.07,0v0h.07Zm0-.43,0,0h0v0Zm0-1-.08.07h0a.08.08,0,0,1,.05-.08.24.24,0,0,0,.09-.08h.05Zm.2-.08h-.09V7.14h.09Z"/><path class="cls-1" d="M24.87,6.68c0-.06,0-.11,0-.13l-.1-.06,0,0s0,.06,0,.07a.25.25,0,0,1,0,.1Z"/><path class="cls-1" d="M24.83,7.05a.18.18,0,0,0,0-.06l0,0a.25.25,0,0,0,0-.1l0-.06a.25.25,0,0,0-.07.09.16.16,0,0,0,0,.11s0,.08,0,.09a.1.1,0,0,0,.06.05v.07h.07a.2.2,0,0,0,0-.11A.15.15,0,0,0,24.83,7.05Z"/><path class="cls-1" d="M23.79,6.2a.11.11,0,0,1,0,0l0,0-.06.48s0,0,0,0,0,0,0,0-.08,0-.09,0,0,0-.05,0l-.29,0,0,0c0,.21.18.37.1.65l.43.05.11-.05.11,0a.71.71,0,0,1,0-.14s0-.1,0-.16,0-.11,0-.16a.61.61,0,0,0,0-.14V6.84a.59.59,0,0,1-.06-.44h0a.64.64,0,0,1-.08-.19Z"/><path class="cls-1" d="M23.12,6.9h.06A0,0,0,0,0,23.12,6.9Z"/><path class="cls-1" d="M23.1,6.92H23l-.12,0-.11,0-.08,0h0c0-.13,0-.24,0-.35s0-.22,0-.33-.08,0-.09,0a.41.41,0,0,0-.05.09.43.43,0,0,0,0,.11.36.36,0,0,1,0,.11c0,.06,0,.14,0,.24s0,.19-.05.28,0,.2,0,.28a.53.53,0,0,0,0,.2l.78.08C23,7.41,23.09,7.14,23.1,6.92Z"/><path class="cls-1" d="M24.09,6.93l0,.17L24,7.52l.12.14a.15.15,0,0,0,0,.06s0,0,0,0v.06l0,0s0,0,0,0a.06.06,0,0,1,0,.06l0,0,0,0s0,0,0,0l0,0a.88.88,0,0,1-.13.31.85.85,0,0,1-.2.22.9.9,0,0,1-.26.13,1.41,1.41,0,0,1-.31.08H23l-.17-.05-.15,0a.11.11,0,0,0-.11,0,.56.56,0,0,1-.18-.05.53.53,0,0,1-.11-.09l-.07-.11a.58.58,0,0,0-.1-.12l.1-.88,0,0,.06,0,.06-.63a1.57,1.57,0,0,0,0-.16l0-.18V6.27a.21.21,0,0,0,0-.12A1.12,1.12,0,0,1,22.46,6l.08-.13a.18.18,0,0,1,.12,0,.14.14,0,0,0,.11-.06l.51.07a1.78,1.78,0,0,1,.39.13A.88.88,0,0,1,24,6.2l.1.15.14.11.23,0,.15-.23s0,0,0,0a.11.11,0,0,0,0-.07.87.87,0,0,0-.2-.31,2.64,2.64,0,0,0-.29-.23.64.64,0,0,0-.18-.06.48.48,0,0,1-.18-.06l-.2,0h-.28l-.25,0c-.08,0-.12,0-.14-.07l-.22,0-.23,0h-.23l-.19,0a.55.55,0,0,0,0,.09.16.16,0,0,1,0,.06L21.83,6.9a.78.78,0,0,1,0,.14l0,.17v.15a.13.13,0,0,0,0,.1s0,.1,0,.17a.83.83,0,0,0,0,.22.6.6,0,0,0,0,.19.13.13,0,0,0,0,.11v0h-.07a1.31,1.31,0,0,1,0,.15.25.25,0,0,0,0,.17.1.1,0,0,0,0,.07s0,0,0,.08h0l0,0a.34.34,0,0,0,.08.21.48.48,0,0,0,.15.14H22l.14.06a.28.28,0,0,0,.2,0l0,0,0,0h.07l.07,0,.08,0h.11l.07,0a.12.12,0,0,1,.08,0,.13.13,0,0,1,.06,0s.05,0,.09,0h0v0l.11,0h.1l0,0,0,0a.42.42,0,0,0,.15-.06,1,1,0,0,1,.17-.07l.16,0A.52.52,0,0,0,24,9a.29.29,0,0,0,.12-.1.26.26,0,0,0,.07-.16h0l0,0a.42.42,0,0,0,.07-.13.13.13,0,0,1,.09-.09.56.56,0,0,1,0-.07.43.43,0,0,0,0-.05V8.27a.17.17,0,0,1,0-.09.11.11,0,0,0,0,0,.16.16,0,0,0,0-.15.15.15,0,0,1,0-.11v0h0a.15.15,0,0,0,0-.1.62.62,0,0,0,0-.13V7.46a.15.15,0,0,0,0-.07.12.12,0,0,1,.1-.11.38.38,0,0,0,0-.15.16.16,0,0,0-.06-.08.1.1,0,0,1,0-.08l.09,0a.5.5,0,0,0,0-.17.32.32,0,0,0-.08-.13.62.62,0,0,1,0-.1l.08,0a.22.22,0,0,0,0-.09l-.24.24C24.36,6.81,24.26,6.94,24.09,6.93Zm-1.3,2.15h0s0,0,0,0h0Zm1.14-.49h0V8.54h0Zm.1-.06h0l0,0h0Zm.25-.15h-.1v0h.09Z"/><path class="cls-1" d="M21.48,11.94h-.13a.43.43,0,0,1-.22-.22L15,11.05a.54.54,0,0,1-.19.28.43.43,0,0,1,0-.31l-7-.76a1,1,0,0,1-.06.55h0l2.15.24c0-.13.06-.21.19-.27h.08c.08.12.29.13.28.34l1.2.13,0-.05c.3-.25.29-.09.26.08l2.72.3c0-.05.06,0,.1,0l6.88.75-.1-.25Z"/><path class="cls-1" d="M27.75,7.37l-.27,2.4a2.62,2.62,0,0,1-1.18,1.92.38.38,0,0,1,0,.26,1.17,1.17,0,0,0-.13.45,3.2,3.2,0,0,0,1.87-2.57l.19-1.76A1.86,1.86,0,0,1,27.75,7.37Z"/><path class="cls-1" d="M26,11.84a2.68,2.68,0,0,1-1.17.27h-.29l-2.3-.25-.08.07-.05-.09-.57-.06c.08.12.18.22.27.33a.11.11,0,0,1-.1.05c0,.07,0,.14,0,.21l2.79.31.35,0a3.13,3.13,0,0,0,1-.16.53.53,0,0,1,.06-.14A.72.72,0,0,0,26,11.84Z"/><path class="cls-1" d="M21.59,2.5l.05,0L25.58,3a2.86,2.86,0,0,1,.58.13c0-.17.11-.29.28-.28s.09.11.08.14a.28.28,0,0,1-.22.2,2.25,2.25,0,0,1,.41.21h.05A.81.81,0,0,1,27.1,3c.13.28,0,.42-.17.55a2.63,2.63,0,0,1,1,2.34V6a1.1,1.1,0,0,1,.25-.19,1,1,0,0,1,.1-.76.38.38,0,0,1,.16-.15,3.2,3.2,0,0,0-2.77-2.46L22,2C22,2.32,21.71,2.3,21.59,2.5Z"/><path class="cls-1" d="M7.68,1l1.49.16L9.26.6,7.51.41A.91.91,0,0,1,7.68,1Z"/><path class="cls-1" d="M7.54,10.23l-4.62-.5-.16,0a1.34,1.34,0,0,0,.07.18c0,.13.06.28.11.42l3.29.36v0l0,.05,1.17.12c0-.16.07-.32.1-.48A.22.22,0,0,0,7.54,10.23Z"/><path class="cls-1" d="M27.84,6.48l-.08.77c.3,0,.41.25.52.48l.2-1.81a3,3,0,0,0,0-.73c-.15.13-.15.37-.22.55C28.42,6.25,28.12,6.35,27.84,6.48Z"/><path class="cls-1" d="M.57,8.66c-.1,0-.27-.19-.22-.3a1.64,1.64,0,0,1,.34-.48,2.5,2.5,0,0,1-.1-1.06L1,3,.71,2.86a.93.93,0,0,1,.32,0A2.64,2.64,0,0,1,3.63.57l.29,0L7.36,1c0-.16.08-.34.12-.56L4,0,3.63,0V0A3.2,3.2,0,0,0,.45,2.85L0,6.76a3.18,3.18,0,0,0,.65,2.3C.8,8.9,1.28,8.66.57,8.66Z"/><path class="cls-1" d="M12.13,1.49a.48.48,0,0,1,0-.17h.34a.84.84,0,0,0,0,.2l.57.06c0-.24.13-.28.35-.12v.16l4.26.47a.37.37,0,0,1,.18-.17v.19l2.16.23c.11,0,.23,0,.34,0v0l1.06.12h0c-.07-.06,0-.12,0-.17s.12-.27.2-.37l-1-.11v.08a.11.11,0,0,1-.2,0l-.1-.15-3.11-.34c0,.14.11.36-.1.35s-.28-.18-.29-.4l-5-.55a1.27,1.27,0,0,0,0,.27.27.27,0,0,0-.12,0c-.15,0-.14-.23-.21-.33L9.7.65c0,.18,0,.37-.07.56Z"/></g></g></svg>