<svg xmlns="http://www.w3.org/2000/svg" viewBox="0 0 26.74 11"><defs><style>.cls-1{fill:#6b2735;}</style></defs><g id="레이어_2" data-name="레이어 2"><g id="_迹_1" data-name="卵迹_1"><path class="cls-1" d="M3.1,3.29l0,0,0,.09h0l0,.28H3a.14.14,0,0,0,0,.14A.29.29,0,0,1,3,4,.05.05,0,0,0,3,4s0,0,0,0,0,0,0,.05a.21.21,0,0,1,0,.06l-.06,0v.08h0l-.08.07-.08.06h-.1a0,0,0,0,0,0,0l0,0a.16.16,0,0,0-.11,0,.2.2,0,0,1-.08,0H2.15l0,0s0,0,0,0,0,0,0,0H2l0,0h0a.11.11,0,0,0-.09-.09v0s0,0,0,0l-.44-.06,0,0H1.22l-.05,0,0,0v0a.22.22,0,0,1,0,.1.37.37,0,0,1,0,.12l-.05,0a.08.08,0,0,0,0,0,.07.07,0,0,1,0,.06H1a.07.07,0,0,0,0,.06.09.09,0,0,0,0,0l.11,0L2,5v0l-.2,0L1.51,5l-.24,0H1A0,0,0,0,1,1,5H1A.14.14,0,0,0,1,5a.28.28,0,0,0,0,.09A.15.15,0,0,0,1,5.2a.06.06,0,0,0,0,0l0,0,0,0h0v.06a.09.09,0,0,1-.07,0H.71V5.34s0,0,0,0v0l0,0,0,0h0s0,0,0-.06,0,0,0,0l-.07,0V5.14a.05.05,0,0,1,0,0S.57,5,.6,5A.41.41,0,0,0,.65,4.9H.58V4.8a.06.06,0,0,0,.05,0s0,0,0-.08V4.59a.16.16,0,0,1,0-.09h0L.78,4a.16.16,0,0,1-.05-.18l0-.25L.93,2.43a.13.13,0,0,0,0-.06.28.28,0,0,1,0-.09.5.5,0,0,1,.18,0l.22,0,.22,0,.2,0,0,0h.1a.07.07,0,0,1,.06,0l0,0a.16.16,0,0,0,.1,0h.08a.07.07,0,0,1,.07,0l.09,0,.24,0s0,0,0,0a.17.17,0,0,0,.1,0,.1.1,0,0,1,.09,0s0,0,0,0,0,0,0,0h0s0,0,.06.06L3,2.88A.75.75,0,0,1,3,3a.13.13,0,0,1,0,.07s0,0,0,0,0,0,0,0v0h0a.2.2,0,0,1,0,.07A.18.18,0,0,0,3.1,3.29Zm-2.23.8,0,0v0h0Zm-.07,1h0v0h0Zm.12-.91h0v0H1a0,0,0,0,1,0,0s0,0,0,0h0s0,0,0,0ZM1,4.37h0l0,0s0,0,0,0l0,0s0,0,0,0Zm.09,0a.3.3,0,0,0,0-.1l0,0,0,0a.34.34,0,0,0,0,.12h.07ZM2.71,3.8H2.63a.64.64,0,0,1,0-.07.06.06,0,0,0,0-.06h0l0-.2,0,0s0,0,0,0,0,0,0,0a.35.35,0,0,0,0-.06.5.5,0,0,1-.1-.18A.34.34,0,0,0,2.46,3h0s0,0,0,0H2.35v0H2.26l0-.05s0,0-.09,0h0l0,0L2,2.82V2.76l-.06,0,0,0H1.79l-.06,0-.05,0-.08.08a.27.27,0,0,1-.12,0s0,0,0,0h0l0,0,0,.06,0,0v0s0,0-.07.05l0,.25s0,0,0,0a.06.06,0,0,1,0,.07s0,0,0,0h0a.46.46,0,0,0,0,.09.43.43,0,0,0,0,.11.52.52,0,0,0,0,.11.08.08,0,0,0,0,.07v0h0v.09h0c.05,0,.08,0,.08,0l.07,0a.31.31,0,0,0,0,.1l.11,0a.17.17,0,0,1,.14,0v0l.06,0,.06,0h.11v0a.17.17,0,0,0,.1,0h.14l.13,0,.08,0a0,0,0,0,0,0,0,0,0,0,0,1,0,0h.06s0,0,0,0l0-.07,0,0,.05,0v0s0,0,0,0H2.7ZM1.2,4.22a.08.08,0,0,1,.05,0s0,0,0,0l0,0-.05,0-.05,0Zm.28-.91a.09.09,0,0,0-.07,0,.1.1,0,0,1-.07,0V3.28a.1.1,0,0,0,0-.07.1.1,0,0,1,0,0l0,0,.05,0Zm-.13.08a.28.28,0,0,1,.13,0l.15,0,.82.12v0H2.35l-.09,0h0l-.16,0-.18,0h0l-.2,0v0l-.12,0H1.52a.1.1,0,0,1-.07,0s-.05,0,0-.06A.09.09,0,0,1,1.35,3.39Zm.41-.28-.08.06a.18.18,0,0,0-.06.08l-.06,0-.07,0V3.13l-.05,0,0-.06h.1a0,0,0,0,0,0,0l.07,0A.3.3,0,0,1,1.7,3s.06,0,.13,0l0,.06v0l0,0h0v0H1.85V3.13Zm-.41.53a.15.15,0,0,0,0,.06.2.2,0,0,1,0,.09H1.32a.08.08,0,0,1,0-.07V3.64Zm.27.78h0v0l0,0s0,0,0,0v0a.08.08,0,0,0,0,0Zm1.28-2h0v0s0,0,0,0h.08S2.91,2.42,2.9,2.43ZM2.75,3.77s0,0,0,0v0h0Zm.2,0h0v0s0,0,0,0Z"/><path class="cls-1" d="M5,5.16s0,0,0,0l0,0,.23,0v0h-.2l0,.1,0,.11s0,0,0,0H5l0,0,0,0s0,.08,0,.09,0,0,0,.08,0,0,0,.06a.36.36,0,0,1,0,.11s0,0,0,0l0,0,0,0H5L5,6,4.89,6l0,0v0H4.85l0-.05h0v0H4.79a.17.17,0,0,0,0-.12.24.24,0,0,1-.06-.09l0-.08a.25.25,0,0,0,0-.07s0-.05,0-.07V5.24l-.29,0a.09.09,0,0,1-.08,0s0,0,0,0l0,0H4.3l.14,0,.18,0,0-.09a.33.33,0,0,1,0-.15h0s0,0,0,0h0s0,0,0,0V5s0,0,0,0l0,0V4.85h0l0,0h0a.19.19,0,0,1,0-.09.19.19,0,0,0,0-.09l0,0-.09,0-.1,0h0a.07.07,0,0,0-.06,0,.1.1,0,0,1-.09,0l0,0s0,0,0,0a.34.34,0,0,1-.31.07.35.35,0,0,0,0,.06s0,0,0,0-.06,0-.08.07,0,.1,0,.16a1.1,1.1,0,0,0,0,.18.63.63,0,0,1,0,.16h0l0,0a.75.75,0,0,0,0,.21.29.29,0,0,1-.07.19h-.2l0-.05,0,0,0,0,0,0-.05,0,0,0a.06.06,0,0,0,0-.06s0,0,0,0a.06.06,0,0,1,0-.07h0s0,0,0,0l0,0s0-.05,0-.06l0,0,0-.29a.05.05,0,0,1,0,0s0,0,0,0a0,0,0,0,1,0-.06.25.25,0,0,1,0-.08l0-.09a.33.33,0,0,0,0-.1l0,0,0-.08h0l.24-1.61s0,0,0,0,0,0,0,0a.24.24,0,0,1,.15,0l.19,0,.7.11s0,0,.1,0l.14,0h.16a.23.23,0,0,1,.13,0v0s0,0,0,0l.14,0,0,0h0l0,0a.05.05,0,0,0,0,0h0l0,.05,0,.06h.06v.07a.08.08,0,0,1,0,0s0,0,0,0,0,0,0,.09a.21.21,0,0,0,0,.08l0,0v.06h0v.05s0,0,0,0l0,0a.19.19,0,0,0-.16.12l0,0a.24.24,0,0,1,0,.08s0,.06,0,.08v.06a.06.06,0,0,0,0,0,0,0,0,0,0,0,0v0a.14.14,0,0,1,0,.06l-.05,0,0,0v.09s0,0,0,0h0a0,0,0,0,0,0,0V4.5a.05.05,0,0,0,0,0s0,0,0,0H5.19l0,0h0L5,4.61H4.83v0s0,0,0,0h.05s0,0,.06,0h0l0,0s0,0,0,0l.06.06s0,.06,0,.08,0,0,0,0,0,0,0,0L5,5,5,5ZM3.31,4.73s0,0,0,0v0h0a.08.08,0,0,0,0,.05h0Zm.07-.12h0l0,0h0Zm.17-.05a.08.08,0,0,0,0,0,.64.64,0,0,0,0-.07h0l0,0v0s0,0,0,0l0,.06Zm1.06-.2a.3.3,0,0,1,0-.09l.06,0h.17A.31.31,0,0,0,5,4.14.77.77,0,0,0,5.09,4a.14.14,0,0,1,0-.09.36.36,0,0,1,0-.11l0-.11a.25.25,0,0,0,0-.08l0,0a.88.88,0,0,1,0-.15A.31.31,0,0,0,5,3.33H4.92a0,0,0,0,1,0,0l0,0H4.81a.06.06,0,0,0,0,0,.18.18,0,0,0-.08-.07l-.13,0a.1.1,0,0,1-.07,0l-.08,0s0,0,0,0v0a.17.17,0,0,0-.1,0,.15.15,0,0,1-.1,0A.56.56,0,0,1,4.2,3h0l-.09.09L4,3.18v0h0s-.05.07-.08.15-.05.18-.07.28l.13,0,0,0h0s0,0-.05,0H3.76a1.24,1.24,0,0,0,0,.27.68.68,0,0,0,0,.18h.11l0,.08H4l0,0s0,0,0,0l0,0h0s0,0,0,0l.08,0,.1,0h.08l0,0,.11,0v0Zm.45-.55a.71.71,0,0,1-.2,0l-.23,0-.25,0-.23,0a.09.09,0,0,1-.08,0s-.05,0,0-.06a.15.15,0,0,1-.06,0H4.1l.14,0,.82.12Zm-1,1.31,0,0a0,0,0,0,1,0,0H4s0,0,0,0a.05.05,0,0,1,0-.05Zm0-.69v0h0a.08.08,0,0,1,0,0Zm.31,0h0a.08.08,0,0,0,0,0l0,0h.06Zm.1.18h0v0h0v0h0Zm.26,0h0v0l0,0a.1.1,0,0,0,0,0v0l0,0a.1.1,0,0,0,0,0Zm.4-1.86a.06.06,0,0,0,0,0h.08v0Zm-.3,2.35h0v0H4.83v0l0,0Zm.52-.6s0,0,0,0,0,0,0,0H5.37a.08.08,0,0,1,0,0v0Zm.29-.22a.08.08,0,0,0,0,0,0,0,0,0,1,0,0l-.1.08a.17.17,0,0,1-.12,0v-.1l0,0s0,0,0,0l0,0h.1Zm-.1.26,0,0a.1.1,0,0,0,0,0H5.56s0,0,0,0l0,0Z"/><path class="cls-1" d="M6.35,3.37h0l0,.21a.39.39,0,0,1,0,.11c0,.06,0,.12,0,.2l0,.21a.74.74,0,0,0,0,.18c0,.08,0,.17,0,.26a.66.66,0,0,0,0,.24h0L6,5.32H6v0H6l0,.3,0,0a.19.19,0,0,0,0,.08.34.34,0,0,0,0,.1.25.25,0,0,0,0,.09V6L5.86,6s0,0-.05.06l0,0v0H5.7s0,0,0,0l0,0a.09.09,0,0,1,0,0s0,0,0,0h0a.35.35,0,0,0,0-.07s0,0,0-.07,0,0,0-.06,0-.07,0-.11a.26.26,0,0,0,0-.09V5.46a.56.56,0,0,1,0-.13.12.12,0,0,1,0-.09h0l.06-.43h0a.13.13,0,0,1,0-.06s0,0,0-.06L5.81,4V3.72h0s0-.07,0-.1a.08.08,0,0,1,0-.08.24.24,0,0,0,0-.07s0-.06,0-.06a.31.31,0,0,0,.06-.2.33.33,0,0,1,0-.14A.07.07,0,0,1,6,3a.24.24,0,0,1,.12,0l.13,0,.08,0s0,0,0,0v0a.21.21,0,0,1,0,.06s0,.07,0,.09a0,0,0,0,0,0,0h0ZM5.72,5.91h0s0,0,0,0h0Zm.45-2.63h0l0,0,0,0h0l0-.05Zm0,.17,0,0H6.08l0,0h.05Zm0,.1v0h0l0,0,0,0h.07Zm0,.13,0,0h0l0,0v0h0Zm0,.09h0l0,0,0,0h.06Zm0,.14,0,0h0l0,0,0,0h0Z"/><path class="cls-1" d="M9,4.27H8.91s0,0,0,.11a.12.12,0,0,1,.05.08l0,.1-.08,0a.13.13,0,0,0-.06.07.06.06,0,0,1,0,0s0,0,0,0v0s0,0,0,.06h0a.11.11,0,0,1,0,.12l-.07.08,0,.3s0,0,0,0,0,0,0,0a.87.87,0,0,1,0,.1.28.28,0,0,1,0,.13l0,0s0,0,0,0l0,.06a.09.09,0,0,1,0,.08.1.1,0,0,1-.06,0L8.53,6a.06.06,0,0,0,0,.06.1.1,0,0,1,0,.09l0,0,0,0-.06.07,0,0-.06,0-.08,0-.06,0L8,6.44l-.09,0a.08.08,0,0,1,0,0,.35.35,0,0,1-.17,0l-.23,0-.13,0,0,0s0,0-.07,0,0,0,0,0l-.17,0s0,0,0,0a.05.05,0,0,0,0,0H6.84a.11.11,0,0,1-.07,0,1.07,1.07,0,0,1-.3-.3,1.13,1.13,0,0,1-.17-.42.1.1,0,0,1,0-.09.13.13,0,0,0,0-.1.06.06,0,0,1-.05-.06.52.52,0,0,1,0-.11l0,0a.08.08,0,0,0,0-.06l0,0,0,0,.05-.3,0,0s0,0,0,0V4.64l0-.06a.29.29,0,0,0,0-.1l-.05-.05s0,0,0-.07,0,0,0,0l0-.06,0-.06a.08.08,0,0,0,0,0l0,0a.06.06,0,0,1,0-.08,1,1,0,0,0,.1-.21,2.14,2.14,0,0,1,.1-.22.69.69,0,0,1,.13-.2A.49.49,0,0,1,7,3.28l.16-.06.13,0,.2,0s0,0,0,0H7.6l.12,0,.1,0,.09,0a1.29,1.29,0,0,1,.42.12,1.41,1.41,0,0,1,.31.21,1.21,1.21,0,0,1,.2.3A1.37,1.37,0,0,1,9,4.19H9A.11.11,0,0,1,9,4.27Zm-2.57.66h0l0,0h0Zm0,.33v0h0v0Zm0,.42h0l0,0s0,0,0,0h0Zm0-.28h0v0h0Zm0,.26h0l0,0h0ZM8.1,6l.05,0,0-.06.05-.07a.09.09,0,0,0,0-.05l0,0a0,0,0,0,1,0,0l0,0a.56.56,0,0,0,.05-.08.59.59,0,0,1,0-.08.2.2,0,0,0,0-.07l0-.06,0-.06a.11.11,0,0,1,0-.08l.05-.06a.19.19,0,0,1-.06-.07.17.17,0,0,1,0-.12.34.34,0,0,1,0-.11l0-.14,0-.14a.49.49,0,0,0,0-.12.39.39,0,0,1,0-.06l0-.1,0-.11a.28.28,0,0,0,0-.09A.51.51,0,0,0,8.41,4a.33.33,0,0,1-.07-.16.1.1,0,0,1-.08,0,.46.46,0,0,0-.07-.07l-.12,0L8,3.67l-.08,0H7.7l0,0s0,0,0,0,0,0,0,0H7.31a.1.1,0,0,1,0,0l0,.05A.55.55,0,0,0,7,3.92a1.32,1.32,0,0,0-.1.3l-.06.34c0,.13,0,.25,0,.37L6.77,5,6.71,5a.22.22,0,0,1,0,.1.24.24,0,0,1,0,.08l0,.06a.14.14,0,0,0,0,.07s0,0,0,0l0,0,0,.16h0l0,0a0,0,0,0,0,0,0h0l.06,0h.06a1.79,1.79,0,0,0,.09.19A.48.48,0,0,0,7,6L7,6A.08.08,0,0,0,7,6h.1l0,0v0a.24.24,0,0,0,.12,0h.46l.1,0a.27.27,0,0,0,.1-.06A.59.59,0,0,1,8,6Zm.23-1.51c0,.1,0,.21,0,.32s0,.2,0,.29h0a.17.17,0,0,0-.14,0L8,5.15a1.15,1.15,0,0,1-.26,0l-.28-.06L7.16,5,6.92,5a.43.43,0,0,0,0,0s0,0,0,0a.17.17,0,0,0,0-.12.91.91,0,0,1,0-.17L7,4.28c0-.1,0-.2.07-.3l0,0,.05,0a.75.75,0,0,0,0,.22.65.65,0,0,1,0,.2l.09.08a.24.24,0,0,0,.08.06h.16l0,0,0,0,.11,0,.15,0,.15,0s.08,0,.09,0a.51.51,0,0,0,0-.1l0-.14s0-.1,0-.16,0-.09,0-.13l0,0h0a.77.77,0,0,0,.07.16.47.47,0,0,1,.06.15ZM7.1,6.39h0l0,0h0ZM8.33,5.9s0,0,0,0h0s0,0,0,0Zm.09-.09h0v0h0Zm.13,0a0,0,0,0,0,0,0h0v0ZM9,4.58l0,0s0,0,0,.1H9l0,0s0,0,0,0Z"/><path class="cls-1" d="M10.93,6a.14.14,0,0,1,0,.06.08.08,0,0,1,0,0l.24,0v0H11a.3.3,0,0,1,0,.1.36.36,0,0,1,0,.11H11l0,0,0,0a.11.11,0,0,0,0,.09.22.22,0,0,1,0,.08s0,0,0,.06a.18.18,0,0,1,0,.11s0,0,0,0l0,0,0,0h-.08l0,0h-.06v0a0,0,0,0,0,0,0H10.8l-.05,0h0l0,0h-.06a.16.16,0,0,0,0-.12.22.22,0,0,1,0-.08V6.39a.09.09,0,0,0,0-.07l0-.07,0-.09v0l-.29,0a.09.09,0,0,1-.08,0s-.05,0,0-.06l-.06,0h.13l.15,0,.17,0,0-.09a.24.24,0,0,1,0-.15h0l0,0h0s0,0,0,0,0,0,0,0l0,0,0,0V5.73h0l0,0h0a.25.25,0,0,1,0-.09.13.13,0,0,0,0-.09l0,0-.09,0-.1,0-.05,0-.06,0a.08.08,0,0,1-.08,0l0,0-.05,0a.31.31,0,0,1-.3.07s0,0,0,.06a.2.2,0,0,1,0,0,.08.08,0,0,0-.07.07.75.75,0,0,0,0,.16,1.1,1.1,0,0,0,0,.18c0,.06,0,.12,0,.16h0a.89.89,0,0,0,0,.22.31.31,0,0,1-.06.19H9.1l0-.05s0,0,0,0a.08.08,0,0,0,0,0l0,0L9,6.42l0,0s0,0,0-.07l0,0a.08.08,0,0,1,0-.08h0s0,0,0,0l0,0a.08.08,0,0,1,0-.07V6l0-.3,0,0s0,0,0,0a.14.14,0,0,1,0-.06.31.31,0,0,1,0-.08l0-.1a.14.14,0,0,0,0-.09l0,0V5.19h0L9.4,3.57l0,0v0a.42.42,0,0,1,.16,0l.18,0,.71.1a.15.15,0,0,0,.09.06l.15,0h.16a.4.4,0,0,1,.13,0s0,0,0,0v0l.14,0v0h0l0,0a.05.05,0,0,1,0,0h0l0,.06a.21.21,0,0,0,0,.06h0s0,0,0,0a0,0,0,0,1,0,0s0,0,0,0l0,.05,0,0a.22.22,0,0,1,0,.09.17.17,0,0,0,0,.08l0,0v.06h0v0l0,0a.06.06,0,0,1,0,0,.18.18,0,0,0-.15.12s0,0,0,0,0,0,0,.08l0,.08V5s0,0,0,0,0,0,0,0v0a.09.09,0,0,1,0,.06l0,0a.05.05,0,0,0,0,0v.08l0,0h0s0,0,0,0,0,0,0,.06,0,0,0,0l0,0h-.06l0,0h0l-.08,0h-.22v0h0a.05.05,0,0,1,.07,0h0l0,0a.1.1,0,0,0,0,0l.06.07a.16.16,0,0,1,0,.08l0,0a0,0,0,0,0,0,0l0,0,0,0ZM9.26,5.61h0v0h0l0,0,0,0Zm.07-.13h0v0h0Zm.17,0a.08.08,0,0,0,0-.05.17.17,0,0,0,0-.07h0l0,0v0s0,0,0,0a.16.16,0,0,0,0,.06Zm1.06-.2s0-.08,0-.09a.09.09,0,0,1,.06,0h.17A.74.74,0,0,0,10.94,5a.5.5,0,0,0,.1-.13.28.28,0,0,1,0-.09l0-.12,0-.1a.11.11,0,0,0,0-.08l0,0A1.31,1.31,0,0,0,11,4.32a.19.19,0,0,0-.09-.11h-.06v0h-.08s0,0,0,0A.17.17,0,0,0,10.67,4l-.13,0a.13.13,0,0,1-.08,0l-.08,0a.08.08,0,0,0,0,0V4a.19.19,0,0,0-.09,0h-.1a.22.22,0,0,1,0-.08H10.1A.39.39,0,0,1,10,4a.17.17,0,0,1-.11.06V4h0a.26.26,0,0,0-.08.15,1.91,1.91,0,0,0-.07.28l.12,0,0,0H9.7a2.45,2.45,0,0,0,0,.27A.37.37,0,0,0,9.7,5l.05,0h.06l0,.07.08,0,0,0s0,0,0,0l0,0h0s0,0,0,0l.09,0,.1,0h.08s0,0,0,0l.11,0,0,0ZM11,4.69a.75.75,0,0,1-.2,0l-.23,0-.24,0a1,1,0,0,0-.24,0,.12.12,0,0,1-.08,0s0,0,0-.06l-.05,0h.13l.14,0,.82.12ZM10,6a0,0,0,0,0,0,0l0,0H9.88s0,0,0,0Zm0-.69v0h0s0,0,0,0Zm.32,0h0s0,0,0,0l0,0h.06Zm.1.19s0,0,0,0h0v0h0v0h0Zm.26,0h0a.07.07,0,0,1,0,0l0,0v0h0l0,.05a.08.08,0,0,0,0,0Zm.39-1.86s0,0,0,0h.08v0ZM10.83,6v0h-.07v0l0,0Zm.52-.6a0,0,0,0,0,0,0l0,0h-.06a0,0,0,0,1,0,0V5.35Zm.28-.22v0s0,0,0,0l-.09.08a.2.2,0,0,1-.13,0l0-.1.05,0,0,0,0,0h.09Zm-.1.26s0,0,0,0,0,0,0,0h-.06s0,0,0,0a.08.08,0,0,0,0,0Z"/><path class="cls-1" d="M12.3,4.25h0l0,.21a.59.59,0,0,1,0,.11l0,.19,0,.22q0,.1,0,.18c0,.08,0,.16,0,.26a.69.69,0,0,0,0,.24h0l-.08.51h0s0,0,0,0h0l-.05.3,0,0,0,.08V6.9l-.07,0a.07.07,0,0,0,0,.06l0,0v0h-.13s0,0,0,0l-.06,0s0,0,0-.05v0h0l0,0V6.8a.64.64,0,0,1,0-.07s0,0,0-.06,0-.07,0-.11v-.1a.49.49,0,0,0,0-.12.53.53,0,0,1,0-.13.2.2,0,0,1,0-.09h0l.07-.43h0a.07.07,0,0,1,0,0,.13.13,0,0,1,0-.06l.1-.74a.07.07,0,0,0,0-.05V4.69a.28.28,0,0,1,0-.09h0a.09.09,0,0,0,0-.1.11.11,0,0,1,0-.08.1.1,0,0,0,0-.07s0-.06,0-.07a.34.34,0,0,0,0-.2.28.28,0,0,1,0-.13.07.07,0,0,1,.07-.06.29.29,0,0,1,.13,0l.13,0,.08,0,0,0s0,0,0,0a.26.26,0,0,1,0,.07.18.18,0,0,0,0,.09l0,0,0,0Zm-.63,2.54h0s0,0,0,0h0v0h0Zm.45-2.63h0l0,0,0,0h0l0,0Zm0,.17,0,0H12l0,0h0Zm0,.1,0,0h0l0,0,0,0h.08Zm0,.13,0,0,0,0,0,0v0h.05Zm0,.08h0l0,0,0,0h.07Zm0,.15,0,0h0l0,0h.07Z"/><path class="cls-1" d="M13,6.08c0-.1,0-.19,0-.28a1.89,1.89,0,0,1,0-.3c0-.08,0-.17,0-.27a.43.43,0,0,0,0-.23.06.06,0,0,1,0-.06h0l0-.18s-.05,0-.05-.08a.24.24,0,0,1,0-.12l-.08,0-.1,0-.1,0-.07,0,0,0a.18.18,0,0,0-.16,0l-.14,0,0,0,0,0h-.07l-.05,0,0,0-.07,0a.5.5,0,0,1,0-.12,1,1,0,0,1,0-.15.26.26,0,0,1,.14,0l.18,0,.19,0L13,4l1.68.25a.2.2,0,0,1,0,.11s0,.09,0,.15l-.07,0-.05,0h-.17s0,0,0,0l0,0-.06,0h-.07l0,0-.06,0,0,0,0,0a.15.15,0,0,1-.09.08l-.13,0v0l0,0,0,.08a.16.16,0,0,0,0,.11.19.19,0,0,0,0,.09.5.5,0,0,0,0,.12.9.9,0,0,1,0,.21c0,.09,0,.17,0,.24l0,.26.71.11v0a1.56,1.56,0,0,1-.33,0,2.32,2.32,0,0,0-.38-.06l0,.12,0,0,0,0a0,0,0,0,0,0,0l0,0,0,.17v.09l0,.15,0,.17.75.11v0h-.16l-.19,0-.21,0-.2,0c0,.1,0,.19,0,.28a.92.92,0,0,0,0,.24l-.05,0s0,0,0,0l0,.06,0,0h-.21l0-.09,0-.09a.08.08,0,0,0,0,0l0,0a.11.11,0,0,1,0-.08l0-.08,0-.08a.11.11,0,0,0,0-.08l0,0,.06-.37,0,0a.64.64,0,0,0,0-.07V6.08Zm-.13-.41h-.06l-.08,0-.06,0s0,0,0,0l.36,0v0h-.14Zm0-1s0,0,0,0,0,0,0,0l0,0h-.08V4.76l0,0a.08.08,0,0,0,0,0ZM12.82,5v0h0V5Zm.08,1.56h-.14s0,0-.06,0a0,0,0,0,1,0,0l.22,0ZM13.66,5h0v.05h0Zm.1-.06,0,0s0,0,0-.06h0s0,0,0,0a.08.08,0,0,1,0,0Z"/><path class="cls-1" d="M14.66,4.52v0h0A.17.17,0,0,0,14.66,4.52Zm2.67.19,0,.08a.15.15,0,0,1,0,.07l-.07,0-.06,0a.15.15,0,0,1-.06,0l-.09,0s0,0,0,0a.05.05,0,0,0,0,0V5a.1.1,0,0,0,0,0l0,0H17v.09a.4.4,0,0,0-.12.1.6.6,0,0,1-.09.15l-.08.07a.19.19,0,0,0-.08.07.09.09,0,0,0,0,.06.09.09,0,0,1,0,.06l-.05,0a.06.06,0,0,0-.06,0v.06s0,0,0,.05a.2.2,0,0,0,0,.08l0,.13a.44.44,0,0,1-.09.11l-.08.12h0s0,0,0,0l-.13.1a.29.29,0,0,0-.11.11l0,0v0a.14.14,0,0,0-.09.12.54.54,0,0,0,0,.19s0,0,0,.07a.28.28,0,0,0,0,.09.8.8,0,0,1,0,.21,2.36,2.36,0,0,0,0,.28l-.06,0a.05.05,0,0,1,0,0h-.17a.64.64,0,0,1-.06-.11.19.19,0,0,1,0-.08.38.38,0,0,1,0-.1l0-.17h0l0,0a.1.1,0,0,1,0-.09.52.52,0,0,1,0-.11.76.76,0,0,1,0-.11.76.76,0,0,0,0-.11.17.17,0,0,1,0-.12,1.43,1.43,0,0,1,0-.16.38.38,0,0,1-.11-.11.89.89,0,0,1-.08-.17A1.46,1.46,0,0,1,15.24,6a1.24,1.24,0,0,1,0-.16.3.3,0,0,1,0-.13.5.5,0,0,0,0-.12l-.05-.06,0-.06a.31.31,0,0,1,0-.08.15.15,0,0,0,0-.08l0,0,0,0a.07.07,0,0,1,0,0s0,0,0,0h0v0h0v0a.41.41,0,0,1,0-.09,1,1,0,0,1-.05-.16,1.54,1.54,0,0,1,0-.17.49.49,0,0,1,0-.12h-.06a.3.3,0,0,1,0-.1s0,0,0-.06l0,0,.06,0a.23.23,0,0,0,.13.07l.16,0a.82.82,0,0,1,.1.26.9.9,0,0,0,.08.28.56.56,0,0,0,.07.13.37.37,0,0,1,.07.12v.09l0,0,0,0,0,.14,0,.16c0,.05,0,.1,0,.14a.31.31,0,0,0,.09.11h0l0,0a.43.43,0,0,1,0,0l0,0h0a1.91,1.91,0,0,0,.28-.4A2.72,2.72,0,0,1,16.44,5l.15-.18a.5.5,0,0,0,.12-.21l.19,0h.18s0,0,0,.08a.22.22,0,0,0,.06.07h0s.06,0,.07,0S17.29,4.72,17.33,4.71Zm-2.57.16h0s0,0,0,0h-.07V4.87ZM15.81,5s0,0,0,0l-.06,0,0-.07a.14.14,0,0,1,0-.09.1.1,0,0,0,0,0,.08.08,0,0,1,0-.05l.08.07A.17.17,0,0,1,15.81,5Zm-.26,1.57h0s0,0,0,0h0Zm0,.06h0v0h0Zm.05.11,0,0h0v0l0,0Zm0,.25h0V7l0,0Zm.08-.09,0,0h0v0h0Zm.39-2a.17.17,0,0,0,0-.09L16,4.79l0,0a.15.15,0,0,0,0-.07h.06V4.62h.07V4.56h0v0a.13.13,0,0,0-.08.07.37.37,0,0,0-.05.11s0,0,0,0v0l0,0,0,0Z"/><path class="cls-1" d="M22.08,5.79v0h0v0l0,0A.26.26,0,0,1,22,6a1.27,1.27,0,0,1,0,.26c0,.09-.05.18-.08.27a1.36,1.36,0,0,0-.06.2l0,0a.06.06,0,0,1,0,.07.07.07,0,0,0,0,0,.2.2,0,0,0,0,.07V7a.13.13,0,0,0,0,.06s0,0,0,.06a.11.11,0,0,0-.08.09s0,0,0,0a.26.26,0,0,1,0,.07h-.06v0a0,0,0,0,1,0,0s0,0,0,.08,0,.07,0,.09,0,0,0,0l0,0a.37.37,0,0,1,0,.12.13.13,0,0,1-.06.11h0l0,.27-.05.11a.26.26,0,0,0,0,.13l-.07.05h-.1l-.05,0h-.08a.43.43,0,0,1,0-.05.09.09,0,0,0,0-.05s0,0,0,0l0,0,0-.19a.74.74,0,0,1,0-.14.34.34,0,0,0,0-.18.08.08,0,0,0,0,0s0,0,0-.08h0a.12.12,0,0,0,0-.1s0-.07,0-.09h0s0,0,0,0a.4.4,0,0,1-.08-.27c0-.11,0-.23,0-.36l-.06,0-.07,0a.1.1,0,0,1,0,0l-.07,0a.28.28,0,0,1-.05.17L21.05,7a.2.2,0,0,0,0,.08.13.13,0,0,1,0,.08H20.9s0,0,0,0a0,0,0,0,1,0,0l0,.1a.17.17,0,0,1,0,.1l0,0,0,0h0l0,.13a.68.68,0,0,1,0,.14,1.5,1.5,0,0,0-.09.18c0,.07-.07.13-.1.19a.7.7,0,0,1-.13.16.28.28,0,0,1-.17.07V8.24h-.06A.54.54,0,0,1,20,7.93a1.13,1.13,0,0,1,0-.45h0l-.08,0a.33.33,0,0,0,0-.14.36.36,0,0,0,0-.11l0-.11a.27.27,0,0,1,0-.13l.07,0a.1.1,0,0,0,.05-.07h-.06a.11.11,0,0,1-.08,0l0-.16s-.07,0-.08-.06a.23.23,0,0,1,0-.12.19.19,0,0,1-.06-.07.13.13,0,0,0-.06-.07.06.06,0,0,1-.05,0l-.06,0,0,.19a1.42,1.42,0,0,0,0,.2.53.53,0,0,0-.06.13,1.27,1.27,0,0,0-.06.18l0,.18a.63.63,0,0,0,0,.16.06.06,0,0,1,0,.06s0,0,0,0l0,0s0,0,0,0h0a.33.33,0,0,1,0,.14.83.83,0,0,1,0,.15s-.05.09-.07.13a.15.15,0,0,1-.08,0l-.05,0H19s0,0,0-.07l0,0,.05-.3,0-.07a.17.17,0,0,0,0-.1.56.56,0,0,1,0-.24,1.6,1.6,0,0,0,0-.29c0-.06,0-.1,0-.11a.16.16,0,0,1,0-.06l.07-.51c0-.21.07-.43.1-.66A3.59,3.59,0,0,0,19.27,5a.53.53,0,0,1,.22,0l.26,0,0,0,0,0a.36.36,0,0,1,0,.1.1.1,0,0,0,.07.08L20,5.15s.05,0,.1,0V5.2L20,5.26l-.08.06a.81.81,0,0,0,0,.22,1.59,1.59,0,0,0,.07.2h0s0,0,0,0,0,0,0,.09a.28.28,0,0,0,0,.09l.06.24c0,.08,0,.16.05.22l0,.13,0,0,0,0v.09s0,0,.05.06,0,0,0,.09a.1.1,0,0,0-.05.06.11.11,0,0,0,0,.08.15.15,0,0,1,.06.09l0,.12V7.3a.53.53,0,0,0,0,.13h0s0,0,0-.05l0,0,.07,0a.2.2,0,0,0,.08,0l.07,0a.3.3,0,0,0,0-.1h.1a.32.32,0,0,0,0-.13.21.21,0,0,1,0-.13l0,0,0,0,0-.16.09-.12A.42.42,0,0,0,21,6.42l0-.12.05,0,0,0,0-.12h0l0,0,0-.13,0,0,0,0,0-.11a1.2,1.2,0,0,1,.11-.17l.11-.17a.16.16,0,0,0,0-.09.11.11,0,0,1,0-.08h.23l.13,0,.11,0a.1.1,0,0,0,0,.08l.06,0s0,0,0,0v0a.05.05,0,0,0,0,0s0,0,0,.07l.08.06.07.07s0,0-.06,0A.22.22,0,0,1,22.08,5.79Zm-2-.36s0,0,0,0a.18.18,0,0,0,0-.05h.07s0,0,0,0A0,0,0,0,1,20.1,5.43Zm0,.63,0,0h0V6h0l0,0v0Zm-.09,1h0l0,0v0l.07,0Zm.15-1.46h0v0h0v.05h0Zm.06,1h-.05V6.47h.06Zm.13-.86h0v0h0Zm-.17,1.66h0v0h-.06v.06h.06Zm-.1.43h0s0,0,0,0h0Zm.41-1.84h0s0,0,0,0,0,0,0,0h0S20.54,5.91,20.54,5.93Zm-.06,1h-.09a.11.11,0,0,0,0,0s0,0,0-.05h.06v.06a0,0,0,0,1,0,0Zm.13-1.07s0,0,0,0v0l0,0,0,0A0,0,0,0,1,20.61,5.86Zm-.18,1.7h-.08s0,.06.07.08Zm.24-1.76h0a.25.25,0,0,1,0-.07h0V5.8Zm-.14,1.92h0l0,0,0,0h.08Zm0-.23,0,0,0,0h0l0,0,0,0h0ZM21,5.42h0V5.34h0Zm-.29,2h0v0ZM21.1,5.3s0,0,0,0V5.2h.08a.21.21,0,0,0,0,.06l0,.06Zm-.26,1.91h0l0,.06h0A.05.05,0,0,0,20.84,7.21Zm.67.43h0a0,0,0,0,1,0,0h0Zm.17-.35s0,0,0,0a.08.08,0,0,1,0,0h0v0l.05,0a.07.07,0,0,0,.05,0Zm0,.27a0,0,0,0,1,0,0l0,0h0Zm.43-1.51a0,0,0,0,0,0,0l0,0s0,0,0,0h-.06S22.06,6.07,22.07,6.05Zm0,.45,0-.06,0,0V6.35l0-.1h.05a.25.25,0,0,0,0,.08.11.11,0,0,0,0,0,.43.43,0,0,1,0,0,.13.13,0,0,1,0,.06h0ZM22,6.63l0,0a.43.43,0,0,1,0,0H22Zm.08.18s0,0,0,0,0,0,0-.06h0s0,0,0,0a.11.11,0,0,1,0,0h0Zm0,.28h0l0,0V7h0v.1Z"/><path class="cls-1" d="M21.78,7h0V7h0Zm2.13,1.25a.3.3,0,0,1,.09.24,2,2,0,0,1,0,.34l0,0h-.06s0,0,0,0l-.07,0v0h0l-.07,0s0,0,0,0h0v0h-.06a.28.28,0,0,0,0-.13l-.05-.1,0-.12a.31.31,0,0,0,0-.09l-.05-.08h-.05l0,0s0,0,0,0l-.23,0V8h0l-.19,0H22.7l-.14,0-.14,0s0,0,0,0l-.06,0s0,0,0,0,0,0,0,0l-.06,0a.09.09,0,0,0-.06,0v.06l0,0,0,0v.1l0,0,0,0,0,.13s-.05,0-.12.06h-.15l0,0a.28.28,0,0,0,0-.13.16.16,0,0,1,0-.1h0a.17.17,0,0,0,0-.1.17.17,0,0,1,0-.1h.05a.31.31,0,0,0,0-.1.11.11,0,0,1,0-.08l.08-.06,0-.15H22a.09.09,0,0,0,0-.09.09.09,0,0,1,0-.09h0l0,0,0-.12,0,0,0,0,0,0a.54.54,0,0,0,0-.08l0,0v0A.14.14,0,0,0,22.29,7a.36.36,0,0,0,0-.11h0l0-.13h0v0h0l0-.12.05,0,0-.14s0,0,0,0l0,0,0-.13h0a.24.24,0,0,0,0-.07l0-.1,0-.1a.26.26,0,0,0,0-.07h0l0-.09,0,0,0,0,0-.08c0-.08.11-.1.28-.07l.27,0,0,.07,0,.06v0s0,0,0,0l0,0,0,.26v0h0v0l0,0v.06l0,0a.11.11,0,0,1,0,.1.14.14,0,0,0,0,.09l0,0h0l0,0v.05a.1.1,0,0,0,0,0s0,0,0,0l0,0,0,0,0,.15,0,0,0,0V7l0,0a.14.14,0,0,1,0,.11l0,.08h0l0,0,0,0s0,0,0,.07a.21.21,0,0,1,.07.1l0,.11,0,.1,0,0,0,0,0,.09,0,.06s0,0,0,0,0,0,0,0a.07.07,0,0,0,0,.06l.05.05s0,0,0,.07l0,0S23.92,8.21,23.91,8.24Zm-2.16.12h0l0,0v0h0Zm.44-2.1h0v0h0ZM22,8.07h0v0h0Zm.39-2h0v0h0Zm1.08,1.49s0,0,0,0,0,0,0,0l0-.13a.83.83,0,0,0,0-.12l0,0a.35.35,0,0,0,0-.06.23.23,0,0,1-.05-.11l0-.17a1.1,1.1,0,0,0,0-.18.71.71,0,0,0,0-.17c0-.14,0-.21-.07-.22a.26.26,0,0,0-.16.08L23,6.49l-.06.07,0,.17h0V6.8h0s0,0,0,0v0s0,0-.08,0a.18.18,0,0,0-.06.08.09.09,0,0,1,0,0,.39.39,0,0,1,0,.06h-.05l0,0a.35.35,0,0,0,0,.07s0,.06,0,.08l-.08,0-.05,0h0s0,0,0,0v.14s0,0,0,0,0,0,0,0h.16a.07.07,0,0,0,.05,0l.1,0,0,0,.05,0s0,0,0,0a.06.06,0,0,0,.06,0l0,0a.19.19,0,0,1,.13,0l.09.06h.07v0h0l0,0V7.62h-.06l.08,0,.07-.06Zm-.9.08,0,0,0,0h0s0,0,0,0,0,0,0,0Zm.59-.9v0h-.07v0h.06Zm.57-.83h-.05V5.86h0Zm0-.41s0,0,0,0a0,0,0,0,1,0,0l0,0S23.76,5.52,23.75,5.52Zm-.17,2.57h0v0h0Zm.06.09h0v0h0ZM24,6h0V6Zm.08.24s-.07,0-.07-.08a.06.06,0,0,1,0-.06A.12.12,0,0,1,24,6H24a.08.08,0,0,1,0,0,.09.09,0,0,0,0,.05s0,0,0,0,0,0,0,.08h0Zm-.35,1.93h0v0h0ZM23.74,8h0l0,0,0,0,0,0,0,0,0,0Zm0,.06,0,0v0h0Zm0,.22h0v0h0Zm.43-1.84v0h0v0A0,0,0,0,1,24.23,6.46Z"/><path class="cls-1" d="M25,6.13h0l0,.21a.54.54,0,0,1,0,.11l0,.19a1.43,1.43,0,0,1,0,.22q0,.11,0,.18c0,.08,0,.17,0,.26a.69.69,0,0,0,0,.24h0l-.08.51h0l0,0h0l0,.3,0,0,0,.08v.26l-.07,0a.07.07,0,0,0,0,.06l0,0v0h-.13s0,0,0,0l-.06,0s0,0,0,0v0h-.06V8.68a.12.12,0,0,1,0-.07s.05,0,.05-.06,0-.07,0-.11V8.35a.57.57,0,0,0,0-.13.53.53,0,0,1,0-.13.2.2,0,0,1,0-.09h0l.07-.43h0a.07.07,0,0,1,0,0,.13.13,0,0,1,0-.06l.1-.73a.13.13,0,0,0,0-.06V6.57a.28.28,0,0,1,0-.09h0a.09.09,0,0,0,0-.1.11.11,0,0,1,0-.08s0,0,0-.07,0-.06,0-.06A.36.36,0,0,0,24.6,6a.33.33,0,0,1,0-.14.07.07,0,0,1,.07-.06h.13l.13,0,.08,0s0,0,0,0,0,0,0,0a.28.28,0,0,1,0,.06A.18.18,0,0,0,25,6l0,0h0Zm-.63,2.54h0s0,0,0,0h0v0h0ZM24.86,6h0l0,0,0,0h0l0,0Zm0,.17,0,0h-.08l0,0h.05Zm0,.1,0,0h-.05l0,0,0,0h.08Zm0,.13,0,0,0,0,0,0v0h0Zm0,.09h0l0,0,0,0h.07Zm0,.14,0,0h0l0,0v0h.06Z"/><path class="cls-1" d="M26.71,9a.16.16,0,0,1,0,.09.28.28,0,0,1,0,.12h-.06s0,0,0,0l-.13,0-.05,0s-.06,0-.07,0,0,0,0,0l0,0h0L26,9.18h0l0,0a.11.11,0,0,0-.11,0l-.07,0-.18,0s0,0,0,0v0s-.06,0-.08,0l-.06,0-.19,0v0s0,0,0-.05V9h0l0,0s0,0,0,.05V9l-.05,0h-.09l0-.06,0,0,0,0,0,0,0-.09,0,0s0,0,0,0a.08.08,0,0,0,0,0s0,0,0-.08l0,0h0v0l0,0a.16.16,0,0,1,0-.14A.24.24,0,0,0,25,8.27a.31.31,0,0,0,0-.11.2.2,0,0,1,0-.11.15.15,0,0,0,.07,0,.15.15,0,0,0,0-.08s0,0,0-.05a.06.06,0,0,0,0-.07s0,0,0,0,0,0,0,0h0l0-.19h0l0,0,0-.08,0,0a.43.43,0,0,0,0,0s0,0,0,0a.15.15,0,0,0,.1-.13,1.64,1.64,0,0,1,0-.22l.15-1a.06.06,0,0,1,0-.07.41.41,0,0,1,0-.1.49.49,0,0,1,.21,0l.24,0a.47.47,0,0,1,0,.24h0l0,0a0,0,0,0,0,0,0,.07.07,0,0,0,0,0h0l0,0V6h0s0,0,0,0a.12.12,0,0,1,0,0,.1.1,0,0,0-.06.05.07.07,0,0,1,0,0h-.05a.16.16,0,0,0-.08.08.34.34,0,0,0,0,.14h0a.15.15,0,0,1,0,.06,1,1,0,0,1,0,.1l-.07.57c0,.08,0,.16-.05.23a1.55,1.55,0,0,1,0,.21c0,.07,0,.14,0,.21a1.5,1.5,0,0,0,0,.24l-.05.36h0a.28.28,0,0,1,0,.1.2.2,0,0,0,0,.11s0,0,.06,0a.06.06,0,0,1,.06,0s0,0,0,.05a0,0,0,0,0,0,0h0a.11.11,0,0,1,.08,0l.09,0,.11,0,.1,0h0l0,0a.11.11,0,0,1,.11,0l.08.05a.15.15,0,0,0,.11,0l.08,0h.07l.08,0,.08,0,0,0,0,0s0,0,0,0h0V9ZM25,8.75h0v0Zm.09.05h0v0h0Zm.08-.14h.05v0l0,0h0v0Zm.12.07h0v0l0,0Zm.11.18.06,0a.33.33,0,0,0,0-.06h0l0,0-.06,0v0h0Zm.49-2.22-.08,0a.11.11,0,0,0-.06.07s0,0,0,.07a.15.15,0,0,0,.05.07.29.29,0,0,0-.05.14c0,.06,0,.12,0,.18a1.11,1.11,0,0,1,0,.19.21.21,0,0,1-.07.15h-.05a.42.42,0,0,1,0-.18,2.32,2.32,0,0,1,0-.24c0-.08,0-.17,0-.25s0-.16,0-.22l0,0a.17.17,0,0,0,0-.08s0,0,0,0a.11.11,0,0,1,0-.08h.06a.22.22,0,0,0,.05.08A.13.13,0,0,1,25.92,6.69ZM25.6,9V9h0V9Zm.29-1.75V7.21s0,0,0-.06l.15,0v0l0,0H26a.05.05,0,0,0,0,0s0,0,0,0ZM25.67,9h0V9Zm.81.11h0v0h0Z"/><polygon class="cls-1" points="12.49 1.69 12.95 2.76 15.52 3.14 15.06 2.07 12.49 1.69"/><polygon class="cls-1" points="7.78 0.99 8.23 2.06 11.47 2.54 11.01 1.47 7.78 0.99"/><polygon class="cls-1" points="1.07 0 0.92 0.99 2.7 1.25 2.24 0.17 1.07 0"/><polygon class="cls-1" points="3.72 0.39 4.18 1.47 6.75 1.85 6.29 0.77 3.72 0.39"/><polygon class="cls-1" points="16.54 2.29 17 3.36 19.62 3.75 19.17 2.67 16.54 2.29"/><polygon class="cls-1" points="24.7 3.49 25.16 4.57 26.45 4.76 26.59 3.77 24.7 3.49"/><polygon class="cls-1" points="20.65 2.89 21.11 3.97 23.68 4.35 23.22 3.27 20.65 2.89"/><polygon class="cls-1" points="11.57 7.93 12.03 9 14.6 9.38 14.14 8.31 11.57 7.93"/><polygon class="cls-1" points="6.85 7.23 7.31 8.31 10.54 8.78 10.09 7.71 6.85 7.23"/><polygon class="cls-1" points="0.15 6.24 0 7.23 1.77 7.49 1.32 6.41 0.15 6.24"/><polygon class="cls-1" points="2.8 6.63 3.26 7.71 5.83 8.09 5.37 7.01 2.8 6.63"/><polygon class="cls-1" points="15.62 8.53 16.08 9.6 18.7 9.99 18.25 8.91 15.62 8.53"/><polygon class="cls-1" points="23.78 9.73 24.24 10.81 25.53 11 25.67 10.01 23.78 9.73"/><polygon class="cls-1" points="19.73 9.13 20.18 10.21 22.75 10.59 22.3 9.51 19.73 9.13"/></g></g></svg>