<svg xmlns="http://www.w3.org/2000/svg" viewBox="0 0 41.89 21.97"><defs><style>.cls-1{fill:#414042;}.cls-2{fill:#6b2735;}</style></defs><g id="레이어_2" data-name="레이어 2"><g id="_迹_1" data-name="卵迹_1"><path class="cls-1" d="M24.93,1.47a.19.19,0,0,1,0,.08.14.14,0,0,0,0,.07L36,.72a.25.25,0,0,1,0-.08.07.07,0,0,0,.07,0v0a.18.18,0,0,0,.1,0l.34,0a.22.22,0,0,1,0-.11.2.2,0,0,1,.12.09l.46,0a.64.64,0,0,1,.1-.13.11.11,0,0,0,.06.11l.6,0h.36c-.06,0-.15-.06-.12-.19L38,.36c-.06,0-.13,0-.11-.12s.09,0,.14-.06a.12.12,0,0,0,.15,0c.06,0,.14,0,.17.08.14-.09.27-.29.44-.06,0,.33-.2.32-.36.39A1.82,1.82,0,0,1,39,.75l.07-.1h0a.12.12,0,0,1,.12-.12L39.11.28l0-.07A2.66,2.66,0,0,0,37.9,0l-.63,0a.57.57,0,0,1-.06.33.43.43,0,0,1-.06-.32l-1,.08a.13.13,0,0,1-.08.15C36,.25,36,.2,36,.16l-11.1.91A.5.5,0,0,1,24.93,1.47Zm10-1.2.07,0c.15.08,0,.23.06.33A.24.24,0,0,1,34.91.27Zm-.73.17c.07,0,.13,0,.13.11s0,.21-.1.22-.1-.11-.12-.19S34.11.45,34.18.44Z"/><path class="cls-1" d="M.69,7.36l0-.48C.65,7,.6,7,.52,7H.47C.41,7,.26,7,.3,6.77l.09-.09c-.09-.3.1-.51.18-.75l0-.22a2.21,2.21,0,0,1,.12-.89.29.29,0,0,0-.16,0l-.09,0A1.22,1.22,0,0,0,.14,5l-.07.07v.14c0,.08.07.17.16.19s0,.06,0,.07-.06.34-.18.34L.16,7.75c0-.12,0-.23.08-.35S.47,7.33.69,7.36Z"/><path class="cls-1" d="M.69,3.94c0-.09.09-.09.15-.11l0-.17s0-.05,0-.08a2.61,2.61,0,0,0-.23.24A1.39,1.39,0,0,0,.47,4h0Z"/><path class="cls-1" d="M1.51,3.16l0,0h.15c.13,0,.13.08.07.19s-.08.26-.2.3a.19.19,0,0,0,0,.08A2,2,0,0,1,2,3.56c0-.09,0-.18,0-.26s.11-.16.2-.11h0l.07-.07c.14.16,0,.24-.07.36h0l.32,0h0a.76.76,0,0,1,.08-.11.16.16,0,0,1,.22.07h0l3.32-.27c-.09-.14.12-.25.11-.4.08.13.22.22.18.38l18.43-1.5V1.55a.86.86,0,0,1-.16-.47L12.87,2l0,0a.34.34,0,0,1,0,.34.12.12,0,0,1-.14,0c-.13-.07-.05-.2,0-.31a.12.12,0,0,1-.1-.06l-6.65.54a.14.14,0,0,1,0,.14s0,0,0,0l0,0-.25-.1v0l-2.8.23-.17.25a.14.14,0,0,1-.09.05.1.1,0,0,1-.08-.07.47.47,0,0,1,0-.21h-.1a2.74,2.74,0,0,0-.94.26v0Z"/><path class="cls-1" d="M14.16,20.61v0l-.62.05c0,.1,0,.2,0,.3a.4.4,0,0,1-.15.24v0l1.21-.1a2.83,2.83,0,0,1,0-.29A.35.35,0,0,1,14.16,20.61Z"/><path class="cls-1" d="M.83,11.72c0-.17.13-.36.16-.58l-.24-3a.21.21,0,0,1-.19,0,.21.21,0,0,1,0-.12c0-.13.11-.14.18-.11l0-.59-.3.12C.24,7.6.47,7.9.23,8L.18,8l.1,1.33,0,0a.17.17,0,0,1,.06.25s0,0-.06,0l.24,3a.12.12,0,0,1,0,.13h0L.66,14a.38.38,0,0,0,0-.1A15.64,15.64,0,0,0,.83,11.72Z"/><path class="cls-1" d="M1.29,3.94a.31.31,0,0,1-.05-.1l-.15-.07L.89,4c0,.09.09.19.06.28L1,4.18A1.88,1.88,0,0,1,1.29,3.94Z"/><path class="cls-1" d="M.65,6.86v-.1l0,0A.59.59,0,0,1,.65,6.86Z"/><path class="cls-1" d="M40.32,3.94h0c0-.09.09-.09.15-.11l0-.17c0-.16-.05-.29.14-.28s.13-.14.12-.26a.09.09,0,0,1,0-.1h0l-.05-.57a1.77,1.77,0,0,0,0-.32h0L40.63,2V1.84a2.44,2.44,0,0,0-.26-.57l0,0,0,.16c-.05,0-.13,0-.15.09s0,.09-.09.11a1.77,1.77,0,0,1-.06.17,1.72,1.72,0,0,1,.16.64Z"/><path class="cls-1" d="M10,20.91l-6.05.49a2.09,2.09,0,0,1-2.26-1.91l-.41-5a.12.12,0,0,1,0-.11h0l-.14-1.82A9.87,9.87,0,0,1,1,13.62c-.07.53-.08,1.07-.19,1.6l.17,2s0,.05,0,.08a.12.12,0,0,1,0,.12l.16,2.08A2.66,2.66,0,0,0,3.76,22H4l5.93-.48a1.46,1.46,0,0,0,0-.2A1.18,1.18,0,0,0,10,20.91Z"/><path class="cls-1" d="M41.53,17.53c-.1-.21.06-.34,0-.52l.11,0s0,.1,0,.12,0,.24,0,.34a2.64,2.64,0,0,0,.21-1.16.58.58,0,0,1-.08.31c0-.23-.1-.48.06-.69V16L41,5c-.06.09-.12.17-.24.16l0-.17a.23.23,0,0,1,0-.2.42.42,0,0,1,.22-.25l-.06-.67-.13-.06L40.55,4c0,.12.19.29-.06.36a.16.16,0,0,1-.12,0l.05.22a.22.22,0,0,1,0,.21l.08,1h0a.48.48,0,0,1,0,.17l.29,3.57v0c.12-.12.05-.31.12-.45.14.08.15.22.12.38A1.73,1.73,0,0,1,41,10c.09.18.16.36,0,.54a1.46,1.46,0,0,1-.07.19v.09l.36,4.44a.08.08,0,0,1,.08,0,.18.18,0,0,1,.07.09c0,.22.13.44,0,.64l0,.13v.19a2.08,2.08,0,0,1-1.21,2.07,2,2,0,0,1-.06.54.24.24,0,0,0,0,.08,2.68,2.68,0,0,0,1.59-1.43l0,0S41.55,17.55,41.53,17.53ZM41,8.73a.1.1,0,0,1-.09,0c-.13-.1-.06-.23,0-.38C41,8.48,41.08,8.59,41,8.73Z"/><path class="cls-1" d="M12.86,20.68l-2.57.21a.64.64,0,0,1,0,.07c0,.17-.05.32,0,.49L13,21.23l-.12-.47A.11.11,0,0,0,12.86,20.68Z"/><path class="cls-1" d="M.84,4.38a.19.19,0,0,1-.13,0l.05.22v0a2,2,0,0,1,.14-.25Z"/><path class="cls-1" d="M39.94,18.4a2.4,2.4,0,0,1-.53.12l-7,.57c0,.1.11.21-.09.21a.37.37,0,0,1-.07-.2l-4.5.37a.28.28,0,0,0,0,.09c0,.18-.1,0-.15,0v-.08l-1.07.09h-.06l-4.88.4a.86.86,0,0,1,0,.27.48.48,0,0,1-.07-.26h-.24s0,0,0,0l0,0-5.48.44V21L28,20V20c.07,0,.15,0,.21,0l2.73-.22a.41.41,0,0,1-.05-.09c-.06-.08-.17-.15,0-.27a.26.26,0,0,1,.4,0,.31.31,0,0,1,0,.37l1.07-.08.07-.08v.07l4-.33a1.14,1.14,0,0,1,0-.37.89.89,0,0,1,.07.36l2.92-.23a3,3,0,0,0,.43-.08l0-.39A.75.75,0,0,1,39.94,18.4ZM25.22,19.9a.18.18,0,0,1-.15.12c-.1,0-.1-.1-.09-.19s.05-.14.14-.11A.14.14,0,0,1,25.22,19.9Zm.61.23s0,0,0,0,0,0,0,0c.09-.17-.22-.1-.11-.26s.09-.1.16-.05S25.88,20,25.83,20.13Z"/><path class="cls-1" d="M41,9.42h0Z"/><rect class="cls-1" x="10.8" y="4.31" width="0.56" height="0.56" transform="translate(-0.34 0.91) rotate(-4.65)"/><rect class="cls-1" x="10.95" y="5.89" width="0.56" height="1.03" transform="matrix(1, -0.08, 0.08, 1, -0.48, 0.93)"/><rect class="cls-1" x="11.45" y="12.08" width="0.56" height="1.03" transform="translate(-0.98 0.99) rotate(-4.64)"/><rect class="cls-1" x="11.11" y="7.96" width="0.56" height="1.03" transform="translate(-0.65 0.95) rotate(-4.65)"/><path class="cls-1" d="M11.74,16.23l0,.28a.11.11,0,0,1,0,.09v0l.06.64.55-.05-.08-1Z"/><rect class="cls-1" x="11.62" y="14.14" width="0.56" height="1.03" transform="translate(-1.15 1.01) rotate(-4.65)"/><path class="cls-1" d="M11.26,10.23l.06.84.56,0-.08-1-.51,0A.3.3,0,0,1,11.26,10.23Z"/><path class="cls-1" d="M11.91,18.29l.05.55.45,0a.27.27,0,0,1,.08-.16h0l0-.4Z"/><path class="cls-1" d="M14.72,9.34l.39,0L15,7.68l.6,0,.13,1.62.4,0-.28-3.54-.16,0c.08,0,.06.14.06.23s0,.15-.12.12-.06-.13-.06-.2,0-.13.09-.15l-.22,0,.12,1.51-.59,0-.12-1.51-.4,0Zm.14-.8c.06.13.07.24,0,.32s-.08,0-.09,0A.21.21,0,0,1,14.86,8.54Z"/><path class="cls-1" d="M16.28,7.81c0,.27,0,.55.07.82l0,.37v.17s0,0,0,0h.15l.18,0h.08V9.06l0-.36-.07-.83V7.62s0,0,0,0h.12l.16,0h.12s0,0,0,0v0c0,.27,0,.54.07.81l0,.4v.31h.41s0,0,0,0l0-.38-.12-1.54c0-.26-.05-.53-.07-.81,0-.07,0-.32,0-.4a.38.38,0,0,0-.18-.26.52.52,0,0,0-.36-.06l-.38,0a.44.44,0,0,0-.29.24.78.78,0,0,0,0,.4C16.2,6.78,16.24,7.3,16.28,7.81ZM17,6l.09,1.14-.41,0L16.56,6Z"/><polygon class="cls-1" points="19.07 8.97 19.48 8.93 19.2 5.41 18.78 5.44 18.96 7.68 18.05 5.5 17.64 5.53 17.92 9.06 18.34 9.03 18.16 6.78 19.07 8.97"/><path class="cls-1" d="M19.6,6.21l.17,2.08v.2l0,.42.41,0,.31,0h0a.68.68,0,0,0,.29-.06A.46.46,0,0,0,21,8.56a.8.8,0,0,0,0-.31L20.92,7l-.1-1.2a.74.74,0,0,0-.05-.29.38.38,0,0,0-.22-.21.76.76,0,0,0-.3,0h-.09l-.21,0-.42,0,0,.42C19.58,5.94,19.59,6.07,19.6,6.21Zm.8-.48.22,2.7-.42,0,0-.21c-.05-.69-.11-1.38-.17-2.07l0-.41Z"/><polygon class="cls-1" points="22.58 8.7 22.55 8.29 21.71 8.35 21.46 5.24 21.04 5.27 21.33 8.8 22.58 8.7"/><path class="cls-1" d="M22.78,8.66l.42,0L24,8.56l0-.41-.83.06,0,.34c-.24-.07-.24-.07-.3-.4l0-.05h0l0-.15.16,0,.05,0-.07-.88L23.8,7l0-.41L23,6.66l-.1-1.15.84-.06,0-.42-.83.07-.42,0Z"/><path class="cls-1" d="M23.15,8.12h0l0,0v0Z"/><path class="cls-1" d="M25.67,8.43c0-.06-.11-.06-.14-.11v.12h.13Z"/><path class="cls-1" d="M25.53,5.22a.32.32,0,0,1-.19-.31h-.09l0,.5c.06,0,.09.08.1.16s0,.12-.07.09h0l.09,1.14.12,1.44.06,0h0c.13,0,.13-.15.17-.25a.54.54,0,0,1,0-.18c0-.18-.14-.49.08-.51s0,.33.06.5h0a1.55,1.55,0,0,1,.07.48l.26-1.33.54,1.42.41,0-.29-3.53-.41,0,.16,2-.53-1.42-.3,1.49-.16-2H25.5A1.16,1.16,0,0,1,25.53,5.22Z"/><rect class="cls-1" x="27.39" y="4.72" width="0.4" height="3.53" transform="translate(-0.44 2.26) rotate(-4.65)"/><path class="cls-1" d="M28,5.12l.42,0,.25,3.11.42,0-.26-3.12.42,0,0-.42-.85.07s0,0,0,0-.06.08-.11.08-.11,0-.12-.06v0H28Z"/><path class="cls-1" d="M30.26,6.41s0,0,0,0l.43,0L30.83,8l.4,0L31,4.47l-.41,0L30.66,6l-.31,0h0C30.29,6.16,30.21,6.26,30.26,6.41Z"/><path class="cls-1" d="M30.23,8.08l-.1-1.22a.14.14,0,0,0,0,.06l-.24-.14c.05-.18.17-.12.25-.08h0l0-.22s0-.1,0-.17a.79.79,0,0,0,.08-.26h-.1L30,4.55l-.4,0,.29,3.53Z"/><path class="cls-1" d="M32.49,5.1l0,.38.06.71v.18a.08.08,0,0,1,0,0s0,.08,0,.12,0,.08-.08.07l0,.41c0-.18.06-.33.22-.34s.12.13.11.2c0,.25-.21.13-.32.17s0,.24,0,.36a.64.64,0,0,0,.08.33.42.42,0,0,0,.31.18s.31,0,.36,0a.56.56,0,0,0,.34-.09.4.4,0,0,0,.17-.32s0-.33,0-.37V6.94a0,0,0,0,0,0,0h-.06l-.18,0h-.15s0,0,0,0V7l0,.19v.18H33.1s0,0,0,0V7.31l0-.35,0-.54-.16-.2a.05.05,0,0,1,0,0c0-.08,0-.17.07-.23l0-.29c-.07,0-.16,0-.19,0s.09-.12.17-.14h0V5.31a.2.2,0,0,1-.12-.09.12.12,0,0,1,.11-.08l0-.42.37,0h0s0,0,0,0v.18s0,0,0,0h.4a0,0,0,0,0,0,0h0v0a.68.68,0,0,0-.08-.34.44.44,0,0,0-.32-.18L33,4.3a.5.5,0,0,0-.33.1.39.39,0,0,0-.16.33c0,.06,0,.13,0,.19A1.1,1.1,0,0,1,32.49,5.1Z"/><path class="cls-1" d="M34.16,6.36c0,.27.05.54.07.82l0,.37,0,.17v0h.41V7.61l0-.36c0-.28,0-.55-.07-.83l0-.23v0s0,0,0,0H35s0,0,0,0v0l.06.81,0,.4,0,.19v.12h.4s0,0,0,0l0-.38c-.05-.51-.09-1-.13-1.54l-.06-.81c0-.08,0-.33,0-.4a.33.33,0,0,0-.18-.26.47.47,0,0,0-.36-.07l-.38,0a.42.42,0,0,0-.28.24.78.78,0,0,0,0,.4Zm.7-1.81L35,5.69l-.42,0-.09-1.14Z"/><path class="cls-1" d="M36.93,5.4Z"/><path class="cls-1" d="M35.57,4.17l0,.31c0,.19,0,.49,0,.69,0,.5.06.72.1,1.21,0,.3.06.78.09,1.07v.14s0,0,0,0h.41s0,0,0-.05c0-.3-.06-.78-.09-1.08V6.11s0-.12,0-.07h0a.14.14,0,0,0,0,.06l0,.11c.08.24.16.62.24.85s.08.28.11.4l0,0s0,0,0,0H37s0,0,0,0v0a.06.06,0,0,0,0,0l-.06-.18c0-.12-.08-.29-.12-.41s-.16-.61-.23-.85a.41.41,0,0,0,.38-.38c0-.07,0-.14,0-.21h0l0-.51c0-.14,0-.29,0-.43a.5.5,0,0,0-.12-.33A.42.42,0,0,0,36.41,4l-.35,0-.26,0h-.24v.09Zm1.36,1.27Zm-.5-1,.09,1.17-.41,0L36,4.45Z"/><path class="cls-1" d="M37.37,6.14c.16.12,0,.26,0,.38s0,0,0,0l.07.92.42,0,.83-.06,0-.42L37.78,7l-.09-1.15h.06a.3.3,0,0,1,.08-.08.37.37,0,0,1,.14,0,.94.94,0,0,1,0,.09l.45,0a.75.75,0,0,1,0-.16.41.41,0,0,1,0-.09l0-.17-.72.06-.09-1.14.83-.07,0-.42-.83.07-.41,0,.17,2.13Z"/><path class="cls-2" d="M15.53,17.23s0,0,0,0h0a.15.15,0,0,1,0-.06h.06v0l0,0a.27.27,0,0,0-.12,0l0,.08.12,0a.05.05,0,0,1,0,0v-.14Z"/><path class="cls-2" d="M15.55,17.22h0S15.54,17.22,15.55,17.22Z"/><path class="cls-2" d="M15.54,17.37a.33.33,0,0,1,0,.06l.09,0v0Z"/><path class="cls-2" d="M18.36,11.68v.06a.08.08,0,0,0,0,0v0h0s0,0,0,0,0,0,0,0Z"/><path class="cls-2" d="M17.69,14.93l.1,0a.2.2,0,0,0,.11,0,.34.34,0,0,0,0-.16l-.1-.1-.1-.08s-.06-.06-.09-.11l-.18,0-.2,0-.17,0a.29.29,0,0,0-.1.06.1.1,0,0,1-.06,0l0,0a.18.18,0,0,1-.07.05.11.11,0,0,1-.16,0v0h-.07l0,0,0,0-.32,0L16,14.52a.41.41,0,0,0-.21,0l0,0a.14.14,0,0,1,0-.09l0-.07-.08,0-.06,0,0-.32.07,0v-.07h-.07a.41.41,0,0,0,0-.11s0-.09,0-.14.12,0,.16-.09l.39-.06.42,0,.4,0,.34,0v-.07l-1.4.12-.33,0a1.11,1.11,0,0,1,0-.26.17.17,0,0,1,.11-.15l0,0h-.05v-.13a.2.2,0,0,1,0-.11h.1s0,0,.05,0L16,12.7a.26.26,0,0,0,.12-.11h.06l0,0,.21-.09.18-.06h.17l0,0v0c.05,0,.08,0,.08,0s0,0,.09,0l.08,0a.14.14,0,0,0,.13,0l.08,0,.09,0,.11,0a.2.2,0,0,0,.15,0l0,0,0,0,.28,0a.22.22,0,0,1,0-.12s.09,0,.09,0h0l.12-.11a.52.52,0,0,0-.05-.23l-.11-.16L15.7,12h-.25l-.28,0a1.09,1.09,0,0,0-.26,0,.52.52,0,0,0-.2.06v.19h.07l0,.34c0,.08,0,.17,0,.27s0,.19,0,.28a1,1,0,0,1,0,.25.38.38,0,0,1-.08.18.18.18,0,0,0,.14.14l0,.34-.1,0,0,.15.07,0a.23.23,0,0,1,0,.11.94.94,0,0,1,0,.16.43.43,0,0,1,0,.16.12.12,0,0,1-.05.11A.39.39,0,0,0,15,15a.39.39,0,0,1,.08.1v0c.27-.17,0-.43.08-.64s0-.15.16-.1.07-.15.12-.1,0,.14-.05.2v.08a.84.84,0,0,1-.05.48,0,0,0,0,1,0,.06s-.05.08-.08.08h0l0,0c0,.09.08.25,0,.24a.06.06,0,0,1-.06,0h0l0,.1a.17.17,0,0,0,0,.12l0,.09s0,.09,0,.11l-.06,0,.06.71s0,0,0,0a.06.06,0,0,1,0,.06l-.07,0v.11c.16.05.35,0,.39.32l.09.07.15,0s0,0,0-.06a.35.35,0,0,1,.05-.13v0h-.1a1.28,1.28,0,0,1,0-.19,1.21,1.21,0,0,0,0-.18l0-.32.06,0a.15.15,0,0,1,0-.06l0,0a.43.43,0,0,1,0-.11s0-.06,0-.09a.22.22,0,0,0,0-.08.17.17,0,0,0-.06-.06v-.13l0-.05,0,0s0,0,0,0V15.4l.06-.07h0l0,0a.43.43,0,0,0,.15,0,.15.15,0,0,0,.07-.1.23.23,0,0,0,.16,0l.15,0,.18-.07a.65.65,0,0,1,.21,0l.17,0a.25.25,0,0,0,0,.07h.14l.1-.06.08,0s.07,0,.11.05h.1l.08,0v0s0,0,0,0v-.11Zm-2.43.86,0,0v-.06a.09.09,0,0,0,0-.05h.05v.11Zm.21-2.85c-.16,0-.2-.13-.19-.3s.05-.16.15-.11.22.07.2.25A.17.17,0,0,1,15.47,12.94Zm.06,2.36h0v.05h0S15.54,15.33,15.53,15.3Zm-.12.17s0,0,0-.05h.09v.1h-.12ZM15.7,17s0,0,0,0v0s0,0,0,0a.06.06,0,0,0,0,0h0S15.69,17,15.7,17Zm-.14-.4c-.11-.17-.31-.33-.07-.57.11-.08.23-.19.24.1v.69C15.58,16.81,15.57,16.7,15.56,16.57Zm.19-1.32,0,0h-.1V15.2a.08.08,0,0,1,0,0h.09s0,0,0,0v.05Zm.1-.38c0,.16.23.12.29.28C15.85,15.33,15.79,15.19,15.85,14.87Zm.57-.07v0h0v0Zm.35.19a0,0,0,0,1,0,0H16.7l0,0a0,0,0,0,0,0,0h.07l0,0A0,0,0,0,0,16.77,15Z"/><path class="cls-2" d="M15.93,14h-.07a.48.48,0,0,0,0,.18.49.49,0,0,0,.07.11H16l0,0c0-.09,0-.14-.05-.16Z"/><path class="cls-2" d="M21.47,11.32h.12v-.06h-.13A.14.14,0,0,1,21.47,11.32Z"/><path class="cls-2" d="M21,13.22h.39a1.63,1.63,0,0,0,.34-.05v-.07l-1.4.12-.24,0a.56.56,0,0,0-.21,0,.19.19,0,0,0,.1.05c0,.06,0,.09.09.08l.08,0s0,0,0-.08h0l0,0a2.16,2.16,0,0,1,.38-.06Z"/><path class="cls-2" d="M20.58,15.7l-.31,0a.08.08,0,0,0,.07.08h.09a.12.12,0,0,1,.09,0s.07,0,.08,0h.06l0,0Z"/><path class="cls-2" d="M22.83,14.28l.05,0,.05,0s0-.07,0-.07l-.05,0a.18.18,0,0,1-.09.06l0,.06Z"/><path class="cls-2" d="M22.55,14.18s0,0,0,0h-.06a.2.2,0,0,1,0,.07s0,0,0,.06l.08,0h0S22.56,14.18,22.55,14.18Z"/><path class="cls-2" d="M20,14.77l.12-.1a.2.2,0,0,1-.12-.22c-.07-.17.21-.13.24-.25h0l0,0h-.08l-.05,0h-.15l-.09-.11h-.19a.53.53,0,0,1-.08-.22h-.13l0-.18v-.18h.07a1,1,0,0,0,0-.17l.05,0,.09,0s.07,0,.09,0h.05l0,0,0,0h-.2a3.84,3.84,0,0,1,0-.48c0-.15,0-.25.08-.29h0l0,0,0,0s0,0,0-.07l0-.16.09.13v0a1.36,1.36,0,0,0,.12-.17H20a.56.56,0,0,0,.11.11.21.21,0,0,0,.17-.06l0,0-.07-.13c-.19.06-.29-.14-.43-.22a.64.64,0,0,1,.67-.14c.13.1.32.06.43.22-.06.29-.28.14-.41.23s.06.08.13.07l0,0a1,1,0,0,1,.23,0,.37.37,0,0,1,.15.08.13.13,0,0,1,0,.07h.15l0,0,0,0h.1a.38.38,0,0,1,.19.15l.14.23.06,0a.18.18,0,0,1,0,.13v.19a.61.61,0,0,0,0,.19.33.33,0,0,0,0,.15h0c.14,0,.24.15.4.12s.11.22.17.33V14a.57.57,0,0,0,0,.26s0,0,.06-.05,0-.09,0-.11v0l0,0s0,0,0-.06V13.8a.15.15,0,0,1,.06,0l.07-.06a.18.18,0,0,0,0-.1v-.07a.06.06,0,0,1,0-.06.21.21,0,0,1,.08-.05.23.23,0,0,0,0-.09s0-.09-.05-.13l0-.06c-.09.09-.18-.15-.27-.06,0-.11,0-.17.13-.18a.16.16,0,0,1,0-.1s.05,0,.08,0l.14,0h0a.14.14,0,0,0-.06-.07s0,0,0,0l0,0a.17.17,0,0,1-.1,0,.28.28,0,0,0-.27-.09c-.11,0-.2.12-.32,0l0-.18c.14,0,0-.25.14-.29l0-.07a.19.19,0,0,1,.13,0h.08s0,0,0,0l0,0s0,0,0-.06,0,0,0-.05a0,0,0,0,0-.05,0,0,0,0,0,1-.06,0l-.08-.07-.08-.08h-.08l-.05,0-.05-.05h-.08l-.05-.06-.23,0,0,0,0,0a.52.52,0,0,0-.22,0l-.27,0-.25,0a.21.21,0,0,1-.18-.05l-1.2.09-.26,0a.16.16,0,0,1-.12.07.1.1,0,0,1,0,0,.34.34,0,0,0-.15.06c0,.05,0,.07,0,.08s0,0,0,.05l.22,2.75h.06v.13l.07,0A.3.3,0,0,1,19,15v.31a.1.1,0,0,0,.06.08c0,.06,0,.08,0,.09s0,0-.06.06l0,.5v.08a.36.36,0,0,0,0,.11l.07.06s0,.05,0,.05,0,0,0,0,0,.1,0,.12l.06.07a.13.13,0,0,1,0,.12.31.31,0,0,0-.05.1l.1,0,.08,0a.45.45,0,0,1,0,.08l0,.07.09.08.06,0,.1,0L19.6,17a.5.5,0,0,0,0-.34,1.5,1.5,0,0,1,0-.37l0,0,0,0c0-.07,0-.16,0-.26a1.73,1.73,0,0,1,0-.32,1.14,1.14,0,0,1,0-.27.18.18,0,0,1,.1-.16s0-.06-.05-.07a.22.22,0,0,1,0-.09.82.82,0,0,0,.29-.07C19.92,14.89,20,14.83,20,14.77Zm2-2,.15-.12.07,0c0,.2-.12.18-.22.21h0l.07.06c-.05.08-.1.2-.19.15s0-.16,0-.24Zm-1-1,.29.07c.23-.24.22.1.31.19-.15,0-.19-.17-.31-.18s-.19.07-.29.08ZM19.26,15l0,0,0,0s0,0,0,0V15Zm-.09.28s0,0,0,0,0,0,0,0l0,0,0-.08h0A.08.08,0,0,0,19.17,15.32Zm.28.29c0,.14-.11.08-.18,0a.18.18,0,0,1-.07-.17c.11,0,.22-.07.26.12Zm0-.64h-.1a.53.53,0,0,1,0-.11s0,0-.07-.07v-.05h.15a.49.49,0,0,1,0,.12A.2.2,0,0,1,19.49,15Z"/><path class="cls-2" d="M21.66,13.8s.08.15.15,0a.25.25,0,0,1,0-.22l-.07.13A.35.35,0,0,0,21.66,13.8Z"/><path class="cls-2" d="M22.24,16.75h.1s0,0,.05,0l.13,0a.12.12,0,0,0,.05-.05s0,0,0-.07l0-.06a.67.67,0,0,0-.08-.17.07.07,0,0,1,0-.11.17.17,0,0,0-.08-.11s0-.06-.06-.15l-.05,0-.05,0s0,0,0,0l.05,0h.07c0-.06-.05-.12-.08-.17a.78.78,0,0,0-.1-.15l.19,0a.45.45,0,0,0,.16,0v-.07h-.05c0,.14-.13.07-.21,0H22.2s0,0,0,0a.09.09,0,0,0,0,.05c-.06-.05-.17-.08-.13-.19s0-.06,0-.07v-.14l-.07,0a.18.18,0,0,0-.07-.05.08.08,0,0,1,0-.08.09.09,0,0,1,0,0s0-.07-.08-.11l-.13-.09s0-.08,0-.08l0,0,0,0h0s-.07,0-.1.05h-.06l0,0V14.6s0,0,0,0h.07c-.07-.05-.16-.09-.15-.21s.07-.06.09,0,.1.15.07.26h.08l.11,0a.18.18,0,0,0,.09,0l.09-.06a.46.46,0,0,1,0-.14c0-.15-.1-.16-.18-.19s-.24-.07-.26-.22l-.06.05a.27.27,0,0,1-.14.05l-.13,0a.16.16,0,0,0-.09.07.37.37,0,0,0,0,.17l-.06,0s0,0,0,0H21a.5.5,0,0,1-.14.17h0v-.1h0a.26.26,0,0,1-.14,0l-.14,0c.05.14.07.27-.1.33l-.13,0,0,.21,0,0a.35.35,0,0,1,.09-.06h.08l.18,0,.17,0H21a.27.27,0,0,1,.1.13.53.53,0,0,0,.11.14h0l0,0h0c0-.06,0-.18,0-.25.18,0,.12.17.17.28H21.3v.07h.08l.05,0s0,0,0,0a0,0,0,0,1,0,0h-.05l0,0,0,0a.46.46,0,0,0,.07.24l.11.13-.3,0-.24,0-.22,0a.23.23,0,0,0,.11,0c0,.06,0,.09.09.08a.17.17,0,0,0,.12-.1,3.5,3.5,0,0,1,.48-.06s0,0,0,0l0,0v.15s.05.06.09.1a.31.31,0,0,1,.1.1v.14a.34.34,0,0,0,.12.12.26.26,0,0,1,.1.19h.1a.28.28,0,0,0,0,.06l-.05,0,.09.06h0l0,0h.06v.05A.11.11,0,0,0,22.24,16.75Zm-1.46-2.24a.18.18,0,0,0,0,0s0,0,0-.06h.06v.1Zm.34.13a0,0,0,0,1,0,0H21s0,0,0,0a.16.16,0,0,1,0,0h.09A.08.08,0,0,0,21.12,14.64Zm.23-.18a0,0,0,0,0,0,0v0a.19.19,0,0,1,.09,0,.15.15,0,0,0,.09.06v0h0v0a.19.19,0,0,1-.09-.05A.15.15,0,0,0,21.35,14.46Zm.29.83c-.15,0,0,.12-.08.17s0-.24-.06-.36c.19-.17.2.07.28.18v0h.11l0,0v0l0,0h-.09c0,.08,0,.18,0,.2S21.63,15.39,21.64,15.29Zm.29.88c-.1-.13-.21-.23-.12-.41,0,0,.08-.06.09,0S21.93,16,21.93,16.17Z"/><path class="cls-2" d="M22.89,13.78a0,0,0,0,0,0,0v-.07l0,0a.21.21,0,0,0-.14,0,.13.13,0,0,0-.06.07.16.16,0,0,0,0,.07.19.19,0,0,1-.08.07v.17a.29.29,0,0,0,.2-.11A1.36,1.36,0,0,0,22.89,13.78Z"/><path class="cls-2" d="M25.12,11.11s0,0,0,0l0,0s0,0,0,0S25.1,11.13,25.12,11.11Z"/><polygon class="cls-2" points="22.53 14.28 22.44 14.29 22.45 14.34 22.53 14.33 22.53 14.28"/><path class="cls-2" d="M25.21,11.7h-.08v.08l.09,0Z"/><rect class="cls-2" x="22.8" y="12.9" width="0.04" height="0.04" transform="translate(-0.95 1.86) rotate(-4.56)"/><path class="cls-2" d="M24.52,13.4a0,0,0,0,0,0,0,0,0,0,0,1,0,0h.12v0l0,0Z"/><path class="cls-2" d="M25.34,15.41c-.19-.11-.23-.24,0-.4,0-.4.31-.4.44-.64a1.08,1.08,0,0,1-.16.91l.06.05c.05-.1.12-.12.2-.07s.21,0,.31,0,.17,0,.2.17v0l0,0c-.08.06-.15.13-.14.22h.05v.06h-.05l0,.06c.14.22-.07.32-.13.45v0h.1s0,0,0,0h0a.08.08,0,0,1,0,0s0,0,0,0h.13l0,0v.08h.12a.15.15,0,0,1,.08.05l.08,0,.06-.05a3.43,3.43,0,0,0-.07-.56.49.49,0,0,0-.24-.37v-.11s0,0,0-.06,0-.11-.06-.11a.13.13,0,0,1-.08-.07.11.11,0,0,1,0-.1l0-.07a.23.23,0,0,0-.07-.08l-.08-.08v-.15a.1.1,0,0,1-.13,0c0-.1,0-.17-.08-.25l.07-.07a.33.33,0,0,0-.06-.08.27.27,0,0,0-.14-.13.31.31,0,0,1,0-.14.22.22,0,0,0,.06-.07l0,0H25.8s0-.08,0-.15a.2.2,0,0,0,0-.19l-.06,0v-.16a.06.06,0,0,0-.06,0l-.06,0,0-.27-.08,0-.07,0s0,0,0-.09a.1.1,0,0,1,.07-.08.3.3,0,0,0,0-.09s0,0,0,0l0,0,0,0a.21.21,0,0,1,0-.15.26.26,0,0,0,0-.17h-.07v-.11l-.06,0v-.08l0,0h0v0H25l-.08.08-.37,0c-.11.23-.21.27-.31,0,.09-.05.16-.16.28-.1,0-.1-.06-.3.15-.28.14-.21.27.08.41,0l0-.17s0,0-.05,0l-.05,0V11.5l-.08-.09-.09-.1-.46,0c-.29,0-.43.09-.43.21l-.05.17,0,0-.05.06V12l0,0,0,0a.31.31,0,0,1,0,.11,1.1,1.1,0,0,1,0,.18h0l.26,0c.16.08.31.19.46.25a.74.74,0,0,1,.13.08l.07,0c.06,0,.13.1.2.32s.08.17.12.27l.12.3a1.69,1.69,0,0,0,.11.27.43.43,0,0,0,.13.16c0,.06,0,.09,0,.09l0,.05a1.6,1.6,0,0,1,.11.19,1.28,1.28,0,0,1,.11.2s0,0,0,.05,0,.06,0,0v-.1l-.09.12-.13.07h.1v.1h-.09s0,0,0,0l0,0-.1,0-.17,0h-.14v0c0,.15,0,.38-.18.38s-.26-.07-.24-.29h-.16l-.08,0v0c0,.2-.08.28-.15.23h0s0,0,0,0l0,0h0c-.17,0-.15.15-.13.29s.05.23-.09.28h0a.35.35,0,0,0,0,.2l.05-.05a.06.06,0,0,0,0-.06s0,0,0-.05a.21.21,0,0,1,.09-.05s0,0,.05-.07l.24,0h.25l.22,0a.48.48,0,0,0,.18-.06h.15c0-.06,0-.13.05-.21l.13-.07a.14.14,0,0,0,0,.06.33.33,0,0,1,0,.2h0v.06l.29,0h0Zm.73-.27,0,0,.07,0,0,.06a.11.11,0,0,0,0,.05h-.06C26.06,15.17,26.06,15.15,26.07,15.14ZM24,12c0-.17.13-.14.23-.14C24.14,12.08,24,12,24,12Zm1.5,1.83c-.1,0-.2.07-.29-.07s-.12-.37,0-.34.06.19.17.07a.28.28,0,0,1,.1-.32c.12.1.07.23.06.36S25.59,13.79,25.45,13.85Z"/><path class="cls-2" d="M25.86,12.16h.05l0,0c0-.07,0-.1-.05-.11a.12.12,0,0,1-.07-.07.11.11,0,0,1,0-.08.15.15,0,0,0,0-.07h-.09a.41.41,0,0,0,0,.12.41.41,0,0,0,0,.1A.17.17,0,0,0,25.86,12.16Z"/><polygon class="cls-2" points="23.06 12.52 23 12.52 23 12.58 23.07 12.57 23.06 12.52"/><path class="cls-2" d="M26.28,12.48a.08.08,0,0,0,0,0,0,0,0,0,1,0,0l0,0Z"/><path class="cls-2" d="M23.29,14h0s0,.06,0,.09,0,0,0-.06Z"/><path class="cls-2" d="M23.53,15.56c-.12-.3-.36-.56-.11-1,.08-.13-.1-.29-.12-.47v0a.2.2,0,0,1-.09.15s0,.07,0,.08l0,0a1,1,0,0,1,0,.14.16.16,0,0,1,0,.06s0,0,0,0l0,.07v.22l0,0,0,0a.17.17,0,0,0,0,.17.16.16,0,0,1,0,.15s0,0,0,0l-.06,0,0,.25-.11.13a.2.2,0,0,0,0,.14.31.31,0,0,1,0,.16l-.07,0a.23.23,0,0,0,0,.17.32.32,0,0,1,0,.17.06.06,0,0,1-.05,0,.3.3,0,0,0,0,.17,1,1,0,0,1,.06.22h0a.88.88,0,0,0,.25-.07c.1,0,.16-.09.17-.13l0-.24.07,0s.05,0,.05-.05v-.17l0,0v-.19C23.59,15.83,23.5,15.68,23.53,15.56Zm-.56,1,0,0v-.07H23S23,16.55,23,16.54Zm0-.7s.1-.12.16-.07,0,.16,0,.23A.14.14,0,0,1,22.94,15.84Zm.18.23V16h.07v.06Z"/><path class="cls-2" d="M27.87,13.13a.32.32,0,0,0,.13-.05l.07-.1v0l0,0L28,13a.19.19,0,0,1-.1,0Z"/><rect class="cls-2" x="28.22" y="12.37" width="0.07" height="0.32" transform="translate(-0.92 2.33) rotate(-4.65)"/><polygon class="cls-2" points="27.85 12.68 27.83 12.66 27.75 12.67 27.75 12.73 27.86 12.72 27.85 12.68"/><path class="cls-2" d="M28.32,13.92s-.05,0-.07,0v0l.15,0v-.06Z"/><path class="cls-2" d="M30.07,10.71l0,.06h0l.06-.07v-.07l-.17,0S30.06,10.71,30.07,10.71Z"/><path class="cls-2" d="M28.49,14.93s0,.06.08.08h0l0,0,0,0h.05l.08,0a.12.12,0,0,0,.09,0h.05l-.08,0Z"/><path class="cls-2" d="M30.81,13.1a.07.07,0,0,0,0,.05v0h.11v-.1h-.07Z"/><path class="cls-2" d="M30.61,10.85h0v0s0,0,0,0l0,0a.1.1,0,0,1,0,0v-.05h-.06Z"/><polygon class="cls-2" points="28.21 13.89 28.2 13.88 28.2 13.89 28.21 13.89"/><path class="cls-2" d="M27.82,12.56h0l0,0a.25.25,0,0,0,0-.1s0-.05-.06-.06a.31.31,0,0,0,0,.08.11.11,0,0,0,0,.07Z"/><path class="cls-2" d="M29,13.13v0s0,0,0,0l.07,0,.05,0v-.06A.2.2,0,0,0,29,13.13Z"/><path class="cls-2" d="M28.94,12.47s0,0,0-.06a.1.1,0,0,0,0-.12.09.09,0,0,1,0-.11h-.13l0,.48-.06.06a.18.18,0,0,0-.09,0h0l0,0,.34,0a.47.47,0,0,0-.05-.1.15.15,0,0,1,0-.13Z"/><path class="cls-2" d="M29.5,12.42l0-.05h0a1.5,1.5,0,0,1-.09.18.23.23,0,0,1-.14.13l0,0a.08.08,0,0,0,0,0l.15,0,.07,0,0,0,.06-.09v-.08A.08.08,0,0,0,29.5,12.42Z"/><path class="cls-2" d="M28,13.57v0h0l0,0,.06,0h0a.19.19,0,0,1-.1,0l-.08-.05a.89.89,0,0,0,0,.36.82.82,0,0,0,.09.31h0l0,0v0l.13,0a.28.28,0,0,0,0-.09C28,13.83,28.09,13.6,28,13.57Z"/><path class="cls-2" d="M28.54,13.24l0-.05h0a.11.11,0,0,0-.1,0h-.16V13l-.24,0a.28.28,0,0,1,0,.13.75.75,0,0,0,0,.11.08.08,0,0,0,0,.07l.06.05h0s0,.06,0,.1a.13.13,0,0,0,0,.06l0,0a.36.36,0,0,1,.16-.14c0-.05,0-.1,0-.13l0-.11,0,0h.11Z"/><path class="cls-2" d="M32.25,15.53l0-.16a.34.34,0,0,1,0-.15l.06-.05,0-.51v0l0,0,0,0-.07-.86,0,0,0,0a1.44,1.44,0,0,1-.07-.4c0-.17,0-.32,0-.45s0-.18,0-.31,0-.25,0-.37,0-.23,0-.33a.49.49,0,0,0,0-.19l0-.36.06,0v-.1h0l0,0a.41.41,0,0,1,0-.16q0-.1,0-.12a.1.1,0,0,1,0-.06s0,0-.06,0h-.36a.65.65,0,0,0-.21,0,.14.14,0,0,0-.09.13.5.5,0,0,0,0,.23.54.54,0,0,1,0,.35s0,0,0,.11,0,.11,0,.12a.14.14,0,0,0,.05.13.14.14,0,0,1,0,.16l0,0,0,0a.83.83,0,0,0,0,.15l0,.12a.58.58,0,0,1,0,.1l0,.7a.65.65,0,0,0,0-.21.39.39,0,0,1,0-.14l0,0-.27,0,0-.09-.06,0v-.13a.31.31,0,0,1,0-.1.16.16,0,0,1,.11,0l.07.07a.2.2,0,0,0,.11,0s0,0,.05-.07a.19.19,0,0,0,0-.13.58.58,0,0,0-.17,0h-.17a.32.32,0,0,0-.06-.19l-.1-.12a.35.35,0,0,1-.06-.16.38.38,0,0,0-.07-.15l-.09-.1-.14-.14-.15-.13-.07-.06-.15.16c-.08.09-.06.29-.23.29a.53.53,0,0,1-.16.2l0,0,.09,0,.09,0A.28.28,0,0,1,30,12c0,.05.05.09.07.14l.06.14a.31.31,0,0,0,.08.11c0,.13,0,.22,0,.29a.35.35,0,0,0,.1.19h.15a.56.56,0,0,1,0,.08s0,0,0,.1a.18.18,0,0,0-.13,0,.46.46,0,0,0-.05.1h-.11c0,.07,0,.12,0,.13a.2.2,0,0,0,0,.13,0,0,0,0,0,0,0l-.22,0-.3,0h-.28c-.09,0-.14,0-.16,0l-.16,0-.11.06c0,.08,0,.14,0,.18a.23.23,0,0,0,0,.1A.22.22,0,0,0,29,14a.49.49,0,0,1,.08.1.56.56,0,0,1,.3,0,.86.86,0,0,1,.18.16l.34,0a.33.33,0,0,1,.26,0,.41.41,0,0,0,.27-.19h0a.3.3,0,0,1-.06.11l-.09.09,0,.26a.4.4,0,0,0,.23-.08.29.29,0,0,0,.11-.18h.05l0,0a1,1,0,0,1-.17.23.59.59,0,0,0-.16.2v.07l-1,.08h-.25a.65.65,0,0,0-.21,0l.05,0,.06,0c0,.06,0,.08.09.07a.14.14,0,0,0,.12-.09,2.21,2.21,0,0,1,.54-.07l.56,0,0,.2h0l0,0v.21l-.11.12-.07.14s-.06.06-.15.08v.11h0c.13.23.2.42-.12.61a.66.66,0,0,0,0-.37h0v-.06h0a.41.41,0,0,1,0-.11.27.27,0,0,1-.08.07l-.26,0v0s0,0,0,0h-.14s0,0,0,.07l-.13,0H29l-.16,0-.09,0-.1-.11-.21,0s0,0,0-.06h-.11l-.09-.09-.06-.07,0,0h0V15.6a.31.31,0,0,0-.14-.12s-.09-.06-.14-.15h-.08a.42.42,0,0,1,0-.16.61.61,0,0,1,0-.11c-.05.06-.1.08-.14-.05a.2.2,0,0,1,0-.16v0l.05-.05a.32.32,0,0,0,0-.16s-.05,0-.12,0a.3.3,0,0,1,.06-.11l0-.07a.09.09,0,0,1-.06,0c-.08,0-.18.17-.21.08s.11-.16.2-.2,0-.15.06-.17v0l0,0h0l-.09-1,0-.14.05,0a.2.2,0,0,0,0-.1.2.2,0,0,0,0-.08l0-.07a.07.07,0,0,1,0-.06l0,0,0,0a.32.32,0,0,0,0-.14.22.22,0,0,1,0-.14A.42.42,0,0,1,27.8,12a.62.62,0,0,0,.18-.14v-.08a.13.13,0,0,1,.07,0h.09a.09.09,0,0,0,.07,0,.18.18,0,0,0,.06-.08.27.27,0,0,1,.15.05.21.21,0,0,0,.17,0l0,0s0,0,0,0h.08a.22.22,0,0,1,0-.22c.1,0,.1.12.1.21l.31,0,0,0v0a.24.24,0,0,0,.14,0,.32.32,0,0,1,.14,0l.11.1h0c0-.11.07-.18.15-.25l.16-.27.14-.14a.08.08,0,0,0,0,0l-.15,0,0-.07-.15,0,0-.06-.33,0,0-.06-.19,0h-.24s0,0,0,0l0,0-.51,0-.06.08H28s0,0,0,0v0l-.2,0-.06.06-.05.06a.34.34,0,0,1-.17,0,.33.33,0,0,0-.17,0l-.29.34v.09l-.05,0,0,.05V12l0,0,0,0v.1h-.06l0,.34-.06,0,.06.73.07-.07h.21c.38,0,.1.33.16.49l0,0h-.12c0-.08,0-.22-.13-.11l0,0a1.45,1.45,0,0,1,0,.36l0,0A.1.1,0,0,1,27,14l0,0c0,.12.07.24.09.36l0,0a.09.09,0,0,1,0,.05.62.62,0,0,1,0,.13l0,0v.09a.19.19,0,0,1,0,.08H27A.32.32,0,0,0,27,15a.66.66,0,0,0,0,.15l0,.07a.14.14,0,0,1,0,.09s0,.07,0,.09,0,0,0,.05v0h0a.09.09,0,0,0,0,.05h.06v.11h.06l0,0h.09a.31.31,0,0,1,0,.27l.13.14a.87.87,0,0,0,.15.13.37.37,0,0,0,.1.07h.09l.23.22a.38.38,0,0,0,.13,0,.13.13,0,0,1,.11.07l.11,0a.1.1,0,0,0,.05-.06c.1,0,.16,0,.18,0a.17.17,0,0,0,.12.06l.2,0,.08.06a.09.09,0,0,0,.11,0s0,0,0,0,0,0,0,0l.4,0,.09,0,.06,0,0,0s0,0,0,0a.15.15,0,0,1,.11,0,.27.27,0,0,0,.12,0,.16.16,0,0,1,0-.07l0-.07.15-.05a.25.25,0,0,0,.12,0,.31.31,0,0,0,.09-.12.31.31,0,0,1,.09-.12l.08,0a.09.09,0,0,0,.08,0,.66.66,0,0,0,.12-.22.23.23,0,0,1,.19-.15.23.23,0,0,0,0-.11c0-.06,0-.09,0-.1l.05-.06.06-.06a.35.35,0,0,0,0-.26c0-.1-.07-.16-.09-.2s0-.11,0-.12.05,0,.06-.05l0-.41a.47.47,0,0,1-.17,0s0-.08,0-.09l0,0s0,0,0,0l0,0a.39.39,0,0,0-.13-.3l0-.07.07,0a.72.72,0,0,0,0-.17l-.06-.12a.3.3,0,0,0-.16,0,.2.2,0,0,0-.07.1h-.22a.6.6,0,0,1-.19,0v-.08l.49-.41v-.11h.19a.33.33,0,0,1,.14,0s.06,0,.1.11a.25.25,0,0,1,.07.15h.13l.11,0,0,.54s0,.07,0,.11l0,.09h0l.06.74-.06,0a.27.27,0,0,0,0,.16,1.55,1.55,0,0,0,0,.21q0,.12.06.21a.61.61,0,0,1,0,.16,1.23,1.23,0,0,1,0,.19.1.1,0,0,1-.06.12.3.3,0,0,0,.05.1.43.43,0,0,1,0,.11h.1a.25.25,0,0,1,0,.08.11.11,0,0,0,0,.07.12.12,0,0,0,.1,0s0,0,.08.05h.12a.17.17,0,0,0,.1,0,.26.26,0,0,1,0-.07l0,0c0-.07,0-.11,0-.13l.1-.06s0-.06,0-.1S32.26,15.59,32.25,15.53ZM30,12s-.06-.07-.05-.09.17-.1.24-.17C30.18,11.86,30.15,12,30,12Zm-.29,2.19c0,.05-.11.06-.17.07s0-.06-.06-.09.11-.08.16-.08S29.77,14.1,29.72,14.17Zm-2-2.53c.05.19,0,.3-.12.36A.24.24,0,0,1,27.74,11.64Zm-.42,3.24s0,0,0,0l-.06,0v-.05h.06l0,0S27.32,14.87,27.32,14.88Zm.24.78h0v0h-.05s0,0,0,0Zm.47.25V16h0a.24.24,0,0,1-.06.11c-.15.16-.33,0-.42-.07s0-.27.13-.32.12-.15.22-.12a.23.23,0,0,1,.16.18.92.92,0,0,1,0,.16Zm.08.23h-.06v-.07a.08.08,0,0,1,0,0h.08v.07Zm.12.11h-.05v0h0a.15.15,0,0,1,0-.07l0,0h.06v.06Zm.16,0s0,0,0,.05H28.3a.1.1,0,0,1,0-.06l0-.05h.07A.1.1,0,0,1,28.39,16.29Zm.38.17v0h0s0,0,0,0a.15.15,0,0,1,0-.06h.05Zm.25-.29h0s0-.05,0,0,0,0,.05,0v.06Zm.15.1s0,0,0,0v-.06h0l0,0Zm.61-.16h0s0-.05,0,0l0,0v.07Zm.47-.41s0,0,0,0a.06.06,0,0,0,0,0h.07Zm.05-.11v-.1h.07v.1Zm.53-.15v.07h-.11v-.07Zm-.07-1.21c-.1-.09-.18-.18-.08-.26s.11,0,.11.12A.89.89,0,0,1,30.76,14.23Zm-.05-.44,0,0,0,0v.09c-.08,0-.13-.06-.13-.13Zm.93-2.58.05,0,.06.06-.05.1h0l-.06-.06A.14.14,0,0,1,31.64,11.21Zm0,.28,0,0,0,0,.06,0,.06,0,.05,0,0,.06h-.09Zm0,.18,0-.06.08,0,0,0,0,0-.07,0,0,0Zm0,.21.06-.06.05,0,.05.05,0,.06h-.09Zm0,.18,0-.06h.06l.07.06-.06,0,0,0Zm.15.24h-.09l0,0s0-.06.05-.06l0,0,.05.06ZM32,15.67l0,0v0h0a.1.1,0,0,0,0,0H32S32,15.67,32,15.67Z"/><path class="cls-2" d="M33.44,12c0,.1,0,.23,0,.37s0,.29,0,.44,0,.28,0,.41a.68.68,0,0,0,.12.27l.08,0h0a.25.25,0,0,1,0-.11s0-.09.08-.06v0a.49.49,0,0,0,0-.12l0-.22a.54.54,0,0,1-.05.11.86.86,0,0,1-.15-.53.06.06,0,0,1,.12,0h0a.45.45,0,0,1,0-.23.16.16,0,0,1-.1-.1.25.25,0,0,0-.12-.1.24.24,0,0,1,.07-.13l.11-.11a.26.26,0,0,0-.09-.15l-.13-.11h-.1a.24.24,0,0,0,0,.12l.08.06a.72.72,0,0,1,0,.13A.1.1,0,0,1,33.44,12Z"/><path class="cls-2" d="M33.87,12.85h.06a.22.22,0,0,0,0-.09.12.12,0,0,1,0-.07l.07,0s.06,0,.08,0h0l0,0,0,0-.26,0a.87.87,0,0,0,0,.1A.63.63,0,0,1,33.87,12.85Z"/><path class="cls-2" d="M35.89,15.35H35.8v.06h-.06s0-.05,0-.05l0-.06h-.07l-.14,0h-.26l-.12.07a.27.27,0,0,1-.19,0l-.14-.05a.2.2,0,0,0-.2,0s0,0,0,0,0,0,0,0h-.11a.13.13,0,0,1,0,.06.27.27,0,0,1-.1-.08l-.15,0h-.07a.09.09,0,0,1-.11.09l-.09,0h-.09a.13.13,0,0,1,0-.08s0-.07,0-.09a.13.13,0,0,0-.12,0s-.06,0-.1,0a.42.42,0,0,1,0-.1l-.06,0c-.06,0-.17,0-.18-.07s0-.28.13-.33l-.05-.5c0-.15,0-.28,0-.4s0-.25,0-.37,0-.24,0-.36,0-.25,0-.4l-.09-1a.51.51,0,0,1,0-.17.34.34,0,0,0,0-.11l0,0h0a.66.66,0,0,1,0-.2s0,.06-.06.08-.1,0-.12-.07a.06.06,0,0,1,.05-.09s.1,0,.13.07a.06.06,0,0,1,0,0,.23.23,0,0,1,.11-.15h.08a.14.14,0,0,0,0-.1s0-.07.07-.1,0-.08,0-.08l-.05-.06H33.4a0,0,0,0,1,0,0v0h0a.29.29,0,0,0,0,.09.08.08,0,0,1-.07,0v0a.13.13,0,0,1,0,.06h-.11a.87.87,0,0,0-.09-.4h-.41a.73.73,0,0,0-.34.09.86.86,0,0,0,0,.17s0,.07.07.1l.14,1.73c0,.13,0,.26,0,.37v0h0c.09,0,.1.1.09.18s0,.12-.1.11-.06-.05-.07-.09l0,0,0,.07,0,.07.06,0v.14l0,0,0,0,0,.32-.06,0s0,0,0,0,0,0,0,0,0,.08,0,.1,0,0,0,.08a.3.3,0,0,1,0,.15.29.29,0,0,1-.1.08.38.38,0,0,0,0,.17.32.32,0,0,1,.05.18.41.41,0,0,1-.05.21.26.26,0,0,0,0,.24h.06a.06.06,0,0,1,0,.05v0s0,0,0,0l.06,0s0,.1,0,.13a.1.1,0,0,1-.06.09s0,.06.06.06,0,0,0,.05l0,.15a.08.08,0,0,0,0,.05l.06,0,0,0a.29.29,0,0,1,.07.08h.15s0,0,.07-.09,0,0,0,0a.09.09,0,0,1,0-.06h.11a.18.18,0,0,1,0,.06V16h0l.32,0,.08-.07a.15.15,0,0,1,.15,0l0,0s0,0,0,0l.3,0,.12-.07a.21.21,0,0,1,.19,0l0,0,0,0,.53,0,0,0,0,0s.06,0,.08,0,.07,0,.13,0l.06-.06.24,0s0,0,0,0,0,0,.07,0l0,0a.49.49,0,0,0,0-.2ZM33,15.56l0,0s0,0,0,0l0,0a.06.06,0,0,0,0,0h0S33,15.57,33,15.56Zm.08.14v-.07h.07v.06Zm0-3.79c0,.09,0,.17,0,.26s0,.07,0,.11-.1.29-.26.29-.07-.05-.08-.08c0-.21.19-.2.26-.32l-.15-.11c-.09,0-.21.1-.24-.05s.1-.11.17-.1,0-.22.15-.19.11-.32.23-.06C33.21,11.75,33.32,11.91,33.1,11.91Zm.2,3.47h0a.08.08,0,0,0,0,0s0,0,0,0v0l.06,0a.16.16,0,0,1,0,.08Zm.15.1v0h0v.07Zm.37.14-.08.08a0,0,0,0,0,0,0h0l0,0a.16.16,0,0,0,.08-.06.24.24,0,0,0,.06-.09h0A.3.3,0,0,1,33.82,15.62Zm.25.22s0,0,0,0v0h.06A0,0,0,0,1,34.07,15.84Zm.1-.14v0s0,0,0,0v0a.08.08,0,0,0,0,0h.07S34.17,15.71,34.17,15.7Zm1.31-.09v0h.07v0Z"/><path class="cls-2" d="M38.83,11.14h0s0,0,0,0h-.05Z"/><path class="cls-2" d="M39,12.63h-.19a.24.24,0,0,1,.12.26h-.21c0-.08-.09-.19,0-.24l-.39,0q0,.29-.21.12a.17.17,0,0,1,0-.1l-.8.06s-.05,0-.05,0,0,0-.13,0v-.08a.22.22,0,0,0,0-.09.07.07,0,0,0-.06,0s0,0,0-.05,0,0,0,0,0-.05,0-.08l0-.15s0-.08,0-.12A.12.12,0,0,0,37,12h0c0,.07,0,.09.09.08a.18.18,0,0,0,.12-.09l.15,0,.15,0h0l.08,0a5.83,5.83,0,0,1,.59,0s0,0,0-.08l-.57.05v0h0l0,0-.19,0-.23,0a.87.87,0,0,0-.21,0c0-.05,0-.13,0-.24a.47.47,0,0,1,0-.2l0-.05,0,0,0,0H37v-.06H37a.41.41,0,0,0,0-.14l-.06-.07,0,0a.64.64,0,0,0,.29-.07.53.53,0,0,0,.15-.2.17.17,0,0,1,.12,0,.3.3,0,0,1,.08.08.14.14,0,0,0,.1-.06l.06-.08.48,0s0,0,0,0,0,0,0,0h.09l.06,0h0a.75.75,0,0,0,0-.3c0-.09,0-.19.06-.22s.12.11.11.17.05.32.2.36a.12.12,0,0,0,.08,0s0,0,0,0,0,0,0,0l.37,0v-.06h.1s0,0,0-.06,0,0,.06-.05,0-.06,0-.09,0,0,0-.07a.3.3,0,0,0-.07-.16.35.35,0,0,1-.12-.1L37,10.29h-.28l-.3,0-.28,0-.22.08a1.51,1.51,0,0,0,0,.28,1.88,1.88,0,0,1,.06.29c0,.11.06.22,0,.29v0l.05,0a.24.24,0,0,1,0,.17.84.84,0,0,1,0,.14.12.12,0,0,0,0,.12.17.17,0,0,1,0,.07L36.2,13a1.87,1.87,0,0,0,0,.27.19.19,0,0,0,.14.15l.07.86s0,0-.06,0l0,.57.07,0q0,.08,0,.12a.23.23,0,0,0,0,.07v.07l0,0h0l0,.28.07,0a.35.35,0,0,1,0,.08v.1l.23.2c.06,0,.09,0,.1,0l.07,0a.11.11,0,0,1,.11,0,.22.22,0,0,0,.13,0l.13,0,.15-.05.15,0a.23.23,0,0,1,.12,0s0,0,0,0,0,0,.05,0,.1,0,.12,0a.22.22,0,0,1,.07-.06.17.17,0,0,1,.17,0l.12.06a.74.74,0,0,0,.15,0c0-.13-.11-.26.05-.4a.27.27,0,0,0,.06-.16h0a.16.16,0,0,1-.12,0,.1.1,0,0,0-.13,0l0,0,0,0a.32.32,0,0,1-.16,0h-.69s0,0,0,0l0,0,0-.07s0,0,0,0h-.19a.3.3,0,0,1-.15,0,2.64,2.64,0,0,1,0-.28.79.79,0,0,0,0-.34.07.07,0,0,0,0-.06l.1,0c0,.06,0,.09.09.08a.19.19,0,0,0,.12-.1,2.28,2.28,0,0,1,.39-.06l.42,0,.4,0,.34,0v-.07l-1.41.11-.24,0-.22,0,0-.07a.09.09,0,0,1,0-.09l.06,0a.18.18,0,0,0,0-.16.5.5,0,0,1,0-.14.1.1,0,0,1,.05-.08.09.09,0,0,0,0-.13l0,0s0,0,0-.05v0h.08s0,0,0,0a.36.36,0,0,0,.32-.2l.14,0,.12,0,0,0,.07-.06a.1.1,0,0,1,.08,0,.19.19,0,0,1,.19,0,.3.3,0,0,0,.19,0,.06.06,0,0,0,.05,0l0,0,.55,0,0,0s0,0,0,0H39c0-.05,0-.1,0-.15h.07s.06,0,.08.08h0a.44.44,0,0,0,.1-.12l.1-.14h0a.25.25,0,0,0,0-.07v0s0,0,0,0,0,0,.08-.06l0-.09s0,0-.06,0-.06,0-.09.08a.77.77,0,0,0-.06.15l-.09,0s0,0-.05-.06H39l0,.05A.1.1,0,0,1,39,12.63Zm-.64,2.7h0v.07l0,0Zm-.65.23v.06h-.06v-.07Zm-.31-.18a.2.2,0,0,0,.07-.1h0l-.12.18H37.3A.19.19,0,0,1,37.35,15.38Zm-.84-1.52v0h0v-.11l.07,0S36.52,13.85,36.51,13.86Zm.13,1.47v0l0,0v-.09l0,0Zm.06.14v-.06h.06v.06Zm0-1.83-.09.11h0a.11.11,0,0,1,.05-.13.26.26,0,0,0,.1-.13h.07Zm.25-.15h-.11v-.09H37v.09Zm.17,2.11v0h0v0h-.09s0,0,0-.05ZM37,15v0H37L37,15h0Z"/><path class="cls-2" d="M39,12.51a.34.34,0,0,1,.08-.16.22.22,0,0,0,0-.08l0-.07H39a.22.22,0,0,0,0,.09l0,.22Z"/><path class="cls-2" d="M38.7,15.69l.09,0,.2,0c.06,0,.09,0,.1-.06a1.33,1.33,0,0,0,.32,0,.29.29,0,0,0,.19-.16V15.3a.51.51,0,0,1,0-.13h-.24v-.09a.36.36,0,0,1-.21,0,.22.22,0,0,0-.22,0l0,0a1.12,1.12,0,0,1-.13.45A.57.57,0,0,0,38.7,15.69Zm.55-.26v.06H39.2v-.07Z"/><path class="cls-2" d="M37.38,13.66h-.05l0,0a.92.92,0,0,0,.17.29.42.42,0,0,0,.29.14.38.38,0,0,0-.16-.26A1.5,1.5,0,0,1,37.38,13.66Z"/><path class="cls-2" d="M37.05,11.65v.06l.06,0s0,0,0,0Z"/><polygon class="cls-2" points="37.18 12.4 37.22 12.4 37.23 12.34 37.17 12.32 37.18 12.4"/><rect class="cls-1" x="14.59" y="10.16" width="0.56" height="0.56" transform="translate(-0.8 1.24) rotate(-4.65)"/><path class="cls-1" d="M21.82,9.6l-1.12.09.05.56.41,0a.27.27,0,0,1,.2-.25.38.38,0,0,1,.19.22l.31,0Z"/><path class="cls-1" d="M23,10.07,23.9,10a.16.16,0,0,1,0-.1c0-.06,0-.08.07-.08a.09.09,0,0,1,.08.12L24,10h.12l0-.56-1.12.09Z"/><rect class="cls-1" x="16.26" y="10.01" width="1.12" height="0.56" transform="translate(-0.78 1.4) rotate(-4.65)"/><path class="cls-1" d="M26.23,9.58a1.42,1.42,0,0,1,.05.22h0l-.05-.55h-.1l.06.33Z"/><rect class="cls-1" x="36.33" y="8.38" width="1.12" height="0.56" transform="translate(-0.58 3.02) rotate(-4.65)"/><path class="cls-1" d="M26,9.26l-.87.07.05.55,1-.07s0-.05,0-.07S26.05,9.42,26,9.26Z"/><path class="cls-1" d="M35.19,8.51l-.91.08,0,0a.11.11,0,0,1-.08.13s-.1,0-.09-.06a.2.2,0,0,1,0-.08h-.09l0,.56,1.12-.09Z"/><path class="cls-1" d="M27.44,9.48l0,0V9.7l1.12-.09-.05-.55-1.11.09,0,.19S27.47,9.4,27.44,9.48Z"/><path class="cls-1" d="M19.59,9.78l-1.12.09.05.56.47,0c-.09,0-.16-.1-.1-.32.29-.1.32.1.35.3l.39,0Z"/><path class="cls-1" d="M30.09,9.24a.41.41,0,0,1,0,.25l.72-.06-.05-.56L29.62,9l0,.56h.13C29.89,9.42,29.9,9.2,30.09,9.24Z"/><path class="cls-1" d="M32,9.33A.45.45,0,0,1,32,9c.16.06.14.19.12.3L33,9.25l0-.56-1.11.09,0,.56Z"/><rect class="cls-1" x="38.56" y="8.22" width="0.56" height="0.56" transform="translate(-0.56 3.17) rotate(-4.64)"/><path class="cls-1" d="M7.37,17.62l-.45-5.51A2.26,2.26,0,0,0,8.46,11c0-.21,0-.21.15-.38v.09a2.32,2.32,0,0,0,.17-1.06L8.45,5.6l-2,.16a.11.11,0,0,1,0,.11c0,.13-.14.09-.21,0l0-.08H6.13a.1.1,0,0,1-.07,0v0l-.4,0a.31.31,0,0,1,0,.13.08.08,0,0,0,0,0,1.15,1.15,0,0,1,.06.17,3.29,3.29,0,0,0,.1,1.13c.22.1.51.12.46.55L6.56,8A.21.21,0,0,1,6.8,8c.08,0,.18,0,.23.1H7c.16-.05.3,0,.45.1l.52,0c0-.07,0-.17.11-.08s.11.2,0,.27-.16.38-.35.14l-.15-.2A.71.71,0,0,1,7,8.19v0a.16.16,0,0,1-.24,0c-.13,0-.27,0-.39-.09a.07.07,0,0,1-.06,0c0,.1-.45.29,0,.29.06,0,.16.12.13.19s-.2.33-.26.31S5.9,9,5.71,9c0-.31-.22-.57-.16-.91C5.57,8,5.47,8,5.41,8c-.29.11-.34-.13-.42-.38s0-.43-.32-.49c-.1,0-.06-.36,0-.51a3.17,3.17,0,0,0,.34-.66l0-.06L3.84,6,4.17,10a2.3,2.3,0,0,0,1.12,1.79.38.38,0,0,1,0-.36c.11-.1.14.32.27,0,0-.11,0-.24.12-.28s0,.25.07.37l.55.34c-.18.07-.37,0-.48.12a2.19,2.19,0,0,0,.57.09L6.62,15l0-.05c-.1-.38,0-.5.29-.28,0,.15,0,.18-.13.2l.06.17c.08.25-.09.3-.22.38l.18,2.27-.36.05v0c.1,0,0,.19.15.18v-.18c.05-.05.1-.06.15,0h0a1.59,1.59,0,0,1,.13.22.35.35,0,0,1-.1.36s0,0,0,0l.08.13H7l.31,0a.47.47,0,0,1,.15-.52.14.14,0,0,0,0-.07l.14.07a.33.33,0,0,0,.27-.07c.12.21-.23.16-.1.35s.12.16.06.27h0a.23.23,0,0,1-.22,0,.15.15,0,0,1,0,.09l.16,0v-.07l0,0,.43,0h0c.1-.09.09-.37.31-.28a.89.89,0,0,1,.29-.29A.31.31,0,0,1,9,17.76,4.71,4.71,0,0,0,7.37,17.62ZM8.54,9.15c0-.06,0-.16.1-.16s.07.08.07.14a.32.32,0,0,1-.14.29A.2.2,0,0,1,8.54,9.15ZM6.2,6.9c-.07,0-.13,0-.17-.12H6c0-.1-.18-.12-.16-.28a.13.13,0,0,1,0-.12c.06-.17.11-.36.31-.23,0,.09.15.14.08.26s0,.2,0,.3S6.32,6.85,6.2,6.9Zm.5,0c-.09,0-.26-.13-.28-.33a.16.16,0,0,1,.23,0C6.79,6.68,6.83,6.86,6.7,6.93Zm.86-.18c.08.19.12.24-.13.33s-.31-.1-.37-.25a1.34,1.34,0,0,1,.34-1c.2,0,.06.23.16.28C7.83,6.33,7.48,6.55,7.56,6.75Zm.61-.43h0c-.08,0-.19.12-.22-.07A.15.15,0,0,1,8,6.07c.16,0,.12.14.13.24h0c.07,0,.14-.15.21,0a.13.13,0,0,1-.05.18c-.12,0-.15-.05-.16-.17Zm-.91,4.76c.07.09.32-.2.29.11l0,.06-.06.13,0,.12c-.1-.1-.27-.11-.24-.34A.08.08,0,0,1,7.26,11.08Zm-1.1-.59c-.06.12-.15,0-.21-.05s-.17,0-.23.07c-.26.16-.29-.08-.34-.29v0l0,0,0,.49c-.09.06-.11,0-.14-.09v-.45a4.7,4.7,0,0,1-.08-.92c0-.11-.08-.27,0-.32s.11.12.13.22,0,.43.07.65c.08,0,.22,0,.16.16a2.45,2.45,0,0,1,.53.38C6.12,10.34,6.21,10.41,6.16,10.49Z"/><path class="cls-1" d="M8,8.29l0,.06A.07.07,0,0,0,8,8.29Z"/><path class="cls-1" d="M5,18.32c0,.21.54.35,1.28.37-.06-.25,0-.52-.06-.75H5.65l-.09,0C5.21,18.05,5,18.19,5,18.32Z"/></g></g></svg>