<svg xmlns="http://www.w3.org/2000/svg" viewBox="0 0 31.15 10.34"><defs><style>.cls-1{fill:#2f444f;}</style></defs><g id="레이어_2" data-name="레이어 2"><g id="_迹_1" data-name="卵迹_1"><rect class="cls-1" x="2.81" y="3.95" width="0.05" height="0.04"/><path class="cls-1" d="M4.87,3.54v0l0,0s0,0,0,0l0,0a.16.16,0,0,0,0,0h0Z"/><rect class="cls-1" x="2.64" y="4.22" width="0.03" height="0.03"/><path class="cls-1" d="M4.52,3s0,0,0,0,0,0,0,0,0,0,0,0S4.5,3,4.52,3Z"/><rect class="cls-1" x="2.27" y="5.26" width="0.07" height="0.04"/><path class="cls-1" d="M3.91,4.71v0H4v0Z"/><rect class="cls-1" x="4.48" y="3.45" width="0.06" height="0.08"/><path class="cls-1" d="M5.25,6.47s0-.08,0-.09,0,0,0,0,0-.09,0-.09L5.2,6.19a.09.09,0,0,1,0-.07.39.39,0,0,0,0-.06s0,0,0-.07l0-.06V5.82l0,0,0,0,0-.13A1.15,1.15,0,0,0,5,5.49a.19.19,0,0,0-.1-.1c0-.06,0-.09,0-.1l0-.06H4.86a.79.79,0,0,1,0-.12.22.22,0,0,0,0-.14l0,0V4.8l0,0,0,0V4.54l-.06,0,0,0a.08.08,0,0,1,0-.07.17.17,0,0,1,.06-.06.56.56,0,0,0,0-.07l0,0,0,0,0,0a.13.13,0,0,1,0-.12.29.29,0,0,0,0-.13H4.53V3.86l0,0V3.78h0l0,0V3.4l0,0,0,0V3.29a.35.35,0,0,0,0-.08l-.06-.08H3.88c-.22,0-.33,0-.33.14l-.06.12,0,0s0,0,0,0l0,.11,0,0,0,0a.11.11,0,0,1,0,.08.78.78,0,0,1,0,.14l0,.14a.41.41,0,0,1,0,.1h0v.16a.15.15,0,0,1,0,.06l-.05.05v.2l0,0v.15l0,0v.06l0,0H3V5H2.94a.43.43,0,0,1,0,.16.2.2,0,0,1-.08.1.15.15,0,0,0,0,.06l0,0v.11l0,0,0,0,0,.06V5.8l0,0,0,0a.15.15,0,0,0,0,.13.12.12,0,0,1,0,.12.05.05,0,0,1,0,0l0,0v.19l-.1.1s0,0,0,.1a.28.28,0,0,1,0,.13h0a.14.14,0,0,0,0,.13.27.27,0,0,1,0,.13H2.4a.23.23,0,0,0,0,.13.61.61,0,0,1,0,.17l0,0a.93.93,0,0,0,.19,0,.27.27,0,0,0,.15-.09V6.93l0,0,0,0V6.74L3,6.7l0,0V6.58a.14.14,0,0,1,.07-.06.13.13,0,0,0,.07,0s0,0,0,0a0,0,0,0,1,0,0,.13.13,0,0,1,.07,0s0,0,0,0h.55l.14,0h.26s0,0,0,0v0h.3l.06,0,0,0h.06a.19.19,0,0,1,.09.09s.06.08.06.1v.16l.09.12A.44.44,0,0,1,5,7h.08v0H5s0,0,0,0h0a.22.22,0,0,0,.1,0h0v.06h.09a.12.12,0,0,1,0,0l.07,0s0,0,0,0a3.1,3.1,0,0,0,0-.43A.37.37,0,0,0,5.25,6.47ZM2.53,7h0V7h0l0,0Zm.2-.35h0v0h0ZM3.87,3.73s.06.06.07.07,0,.16-.08.18-.1-.06-.09-.12S3.8,3.72,3.87,3.73ZM3.42,5.94l0,0H3.34l0,0s0,0,0,0h0ZM4.53,5.7V5.62l-.08.09-.1,0H4.4l0,0v.07H4.36v0l0,0-.08,0-.13,0a.25.25,0,0,0-.17,0l0,0s-.07,0-.08,0,0,0-.05,0H3.74l0,0H3.58a.13.13,0,0,1-.09,0H3.25s0,0,0,0V5.52a.12.12,0,0,0,0,0h0a.1.1,0,0,1,.07,0h.09a.27.27,0,0,0,0-.11V5.25a.07.07,0,0,1,.05,0l.06,0,0-.07s0,0-.05-.06,0-.1.07-.11l.08-.08a0,0,0,0,1,0,0v0l.05,0V4.73l0,0V4.49l.07-.1a.36.36,0,0,1,.07-.1A.28.28,0,0,1,4,4.16s.09.08.13.25a1.43,1.43,0,0,1,.08.22c0,.08,0,.16.07.23a1,1,0,0,0,.07.21.37.37,0,0,0,.08.14v.07l0,0,.08.15a1,1,0,0,1,.06.16s0,0,0,0S4.55,5.71,4.53,5.7Zm.29.64h0l0,0h0v0Zm.07.14h0V6.43h0ZM5,6.38h0v0H5Zm0-.19s0-.05,0-.05l0,0,.05,0,0,0,0,0H5Zm0,.1s0,0,0,0h0v0Zm.1.32h0V6.56h0Z"/><path class="cls-1" d="M5,3.84v0h0l0,0a.22.22,0,0,0,0-.09s0,0,0,0a.13.13,0,0,1,0-.06s0-.05,0-.06H4.91a.22.22,0,0,0,0,.09s0,.07,0,.08A.12.12,0,0,0,5,3.84Z"/><path class="cls-1" d="M5.31,4.12v0s0,0,0,0h0Z"/><path class="cls-1" d="M6.52,4.38V4.25H6.45s0,0,0,0a.08.08,0,0,0,0,.08.12.12,0,0,1,0,.08.41.41,0,0,0,0,.11c.05,0,.08,0,.09,0A.12.12,0,0,1,6.52,4.38Z"/><path class="cls-1" d="M6.54,4.49a.37.37,0,0,0-.16,0s0,0,.07,0,0,.07.06.07a.17.17,0,0,0,.1-.07H6.7v0h.15v0h1v0H6.54Z"/><path class="cls-1" d="M8.57,4a.09.09,0,0,0,0-.08l0,0h0a0,0,0,0,1,0,0,.08.08,0,0,0,0,0,.5.5,0,0,0-.06-.08l-.12-.14a1.59,1.59,0,0,0-.13-.13l-.08-.08H8.07l0,0,0,0a.18.18,0,0,0-.13,0,.3.3,0,0,1-.13,0,.18.18,0,0,1,0,0H7.43a.27.27,0,0,1-.12,0,.15.15,0,0,0-.09,0l-.1,0H7s0-.05,0-.05a.12.12,0,0,0-.08,0l-.07,0-.06,0,0,0H5.85a.77.77,0,0,0-.23.06.21.21,0,0,0,0,.12.08.08,0,0,1,0,.07V5.21a.25.25,0,0,0,.1.22V6h0l0,0a.22.22,0,0,0,0,.11.49.49,0,0,0,0,.12v.1s0,0,0,.07a.5.5,0,0,0,0,.12h.08a.34.34,0,0,1,0,.11.2.2,0,0,0,0,.15.11.11,0,0,0,0,.05s0,0,0,.1h.1s0,.06,0,.08a.11.11,0,0,0,0,.07h0l0,0s0,0,0,0v0s0,0,0,0v.07H6a.28.28,0,0,0,.13,0,.14.14,0,0,0,.08,0V7.09h0a.21.21,0,0,0,0-.06l0-.06s0,0,0,0,0-.06,0-.09a.49.49,0,0,1,0-.12.24.24,0,0,1,0-.09l0,0,0,0a0,0,0,0,0,0,0l.31,0h.88v0H6.22s0-.05,0-.07a.08.08,0,0,1,0-.08l0,0h0a.06.06,0,0,0,0-.07s0-.05,0-.06l0,0A.35.35,0,0,0,6.3,6a.25.25,0,0,0,0-.12v0l.07,0,.07,0s.07,0,.08,0a.15.15,0,0,0,0-.06H7.1a.43.43,0,0,1,0-.05.06.06,0,0,1,0,0,.13.13,0,0,1,.13.09h.06l0,0h.16s0,0,0,0,0,0,.06,0l0,0v0h.15a.22.22,0,0,0,.09-.07A.23.23,0,0,1,8,5.65s0,0,0,0a.08.08,0,0,1,0-.05h.11v0a.22.22,0,0,0,.1-.09.39.39,0,0,0,.08-.1l.06,0V5.21s.06,0,.07,0,0,0,0-.08a.64.64,0,0,1,0-.07.14.14,0,0,1,0-.06s0,0,.07,0a.37.37,0,0,0,0-.16.19.19,0,0,1,0-.18h0V4.2l.05,0V4.07l-.05,0A.16.16,0,0,1,8.57,4ZM6,5.56H6a0,0,0,0,1,0,0,.08.08,0,0,0,0,0H6v0Zm-.1-.06s0,0,0,0h0v0ZM6,6.82h0V6.75H6Zm0-.91H6l0,0s0,0,0,0h0Zm.18-.09H6.11a.63.63,0,0,1,0-.16l0,0,0,0A.51.51,0,0,1,6.19,5.82Zm.2-.29s0,0,0,.07h0a.22.22,0,0,1,0-.08.14.14,0,0,0,.06-.07l0,0A.09.09,0,0,1,6.39,5.53Zm.53.24h0l0,0,0-.06s0,0,0,0l0,0Zm1.27-.94H8.12s0,0,0,0,0,0,0,0l-.06,0L8,5a.31.31,0,0,0,0,.09.13.13,0,0,1-.06.07l0,0,0,0s0,0,0,0,0,0,0,0l-.09,0-.17.05-.17,0a.28.28,0,0,1-.14,0,0,0,0,0,1,0,0v0a.06.06,0,0,0-.06,0l-.07,0L7,5.38a.14.14,0,0,1-.09,0l0,0v0a.25.25,0,0,0-.19,0l-.14.06a.39.39,0,0,1,0-.13l-.09,0a.25.25,0,0,0-.12,0V5.06h0l0,0a.25.25,0,0,1,0-.1V4.79s0-.1,0-.15a.74.74,0,0,0,0-.12h0s0,0,0,0,0-.07,0-.09,0,0,0,0V4a.11.11,0,0,1,.08-.08s0,0,0-.06l0,0a.1.1,0,0,1,0-.07.09.09,0,0,0,0-.06h.06s0,0,0,0a.18.18,0,0,0,.14-.06.47.47,0,0,0,.09-.12l.08,0,.07,0h.07a.13.13,0,0,0,.06,0l.08,0a.41.41,0,0,0,0,.07h.18s0,0,0,0l0,0a.12.12,0,0,1,.12,0l.07,0h.12v0h.08a.11.11,0,0,1,0,.05h.07a.55.55,0,0,1,.18.19,1,1,0,0,0,.17.22.35.35,0,0,1,0,.07s0,0-.05,0,0,.06,0,.06,0,0,0,0V4.6h0s0,.05,0,.07,0,.06,0,.1h.1Zm.09-.1s0,0,0,0v0h0A.08.08,0,0,0,8.28,4.73Zm-.12-.64c-.07-.14-.09-.27,0-.36s.09,0,.1,0A.24.24,0,0,1,8.16,4.09Zm.35.69h0v0h0Z"/><path class="cls-1" d="M8.13,3h0a.07.07,0,0,0,0,0h-.1s0,0,0,0Z"/><path class="cls-1" d="M6.42,4.83h0v.1A.19.19,0,0,0,6.4,5h.12a.12.12,0,0,0,0-.1A.28.28,0,0,1,6.42,4.83Z"/><path class="cls-1" d="M6.69,4.28a.15.15,0,0,1,.07-.12.24.24,0,0,0,.08-.09H7v.07h.1s0,0,0,0H7l0,0V4l-.06-.07a.28.28,0,0,0-.16,0,.31.31,0,0,0-.07.12H6.57a.05.05,0,0,1-.05,0H6.39a.18.18,0,0,0,.05.07l.08.05v.1l.09,0Z"/><path class="cls-1" d="M9.79,4.49a.44.44,0,0,0-.17,0l.08,0s0,.07.06.07a.17.17,0,0,0,.1-.07H10v0h.15v0h1v0H9.79Z"/><path class="cls-1" d="M9.77,4.38V4.25H9.7s0,0,0,0a.08.08,0,0,0,0,.08.12.12,0,0,1,0,.08.41.41,0,0,0,0,.11c.05,0,.08,0,.09,0A.12.12,0,0,1,9.77,4.38Z"/><path class="cls-1" d="M9.94,4.28A.15.15,0,0,1,10,4.16a.24.24,0,0,0,.08-.09h.13v.07h.1s0,0,0,0h-.05s0,0,0,0V4l-.06-.07A.28.28,0,0,0,10,4a.31.31,0,0,0-.07.12H9.82a.05.05,0,0,1-.05,0H9.64a.18.18,0,0,0,0,.07l.08.05v.1l.09,0Z"/><path class="cls-1" d="M11.82,4a.09.09,0,0,0,0-.08l0,0h0a0,0,0,0,1,0,0l0,0-.06-.08-.12-.14a1.59,1.59,0,0,0-.13-.13l-.08-.08h-.07l0,0,0,0a.19.19,0,0,0-.13,0,.3.3,0,0,1-.13,0,.18.18,0,0,1,0,0h-.31a.27.27,0,0,1-.12,0s-.07,0-.09,0l-.1,0h-.13s0-.05,0-.05a.12.12,0,0,0-.08,0l-.07,0-.06,0-.05,0H9.1a.77.77,0,0,0-.23.06.21.21,0,0,0,0,.12.08.08,0,0,1,0,.07V5.21a.25.25,0,0,0,.1.22V6H9l0,0a.22.22,0,0,0,0,.11A.49.49,0,0,0,9,6.3v.1s0,0,0,.07a.5.5,0,0,0,0,.12H9A.34.34,0,0,1,9,6.7a.2.2,0,0,0,0,.15A.11.11,0,0,0,9,6.9s0,0,0,.1h.1s0,.06,0,.08a.11.11,0,0,0,0,.07h0l0,0s0,0,0,0v0s0,0,0,0v.07h0a.24.24,0,0,0,.12,0,.13.13,0,0,0,.09,0V7.09h.05a.21.21,0,0,0,0-.06l0-.06s0,0,0,0a.29.29,0,0,1,0-.09.49.49,0,0,1,0-.12.24.24,0,0,1,0-.09l0,0,0,0a0,0,0,0,0,0,0l.31,0h.88v0H9.47a.19.19,0,0,1,0-.07.08.08,0,0,1,0-.08l0,0h0a.06.06,0,0,0,0-.07s0-.05,0-.06l0,0a.66.66,0,0,0,0-.15.25.25,0,0,0,0-.12v0l.07,0,.07,0s.07,0,.08,0l0-.06h.58a.07.07,0,0,1,0-.05.06.06,0,0,1,0,0,.13.13,0,0,1,.13.09h.06l0,0h.16s0,0,0,0,0,0,.06,0l0,0v0H11a.22.22,0,0,0,.09-.07.23.23,0,0,1,.14-.06s0,0,0,0a.08.08,0,0,1,0-.05h.11v0a.28.28,0,0,0,.1-.09.39.39,0,0,0,.08-.1l0,0V5.21a.15.15,0,0,0,.08,0s0,0,0-.08,0,0,0-.07l0-.06s0,0,.07,0a.37.37,0,0,0,0-.16.19.19,0,0,1,0-.18h0V4.2l.05,0V4.07l-.05,0A.16.16,0,0,1,11.82,4ZM9.23,5.56h0a0,0,0,0,1,0,0,.08.08,0,0,0,0,0h0s0,0,0,0v0Zm-.1-.06v0h0v0Zm.1,1.32H9.18V6.75h.05Zm0-.91h0l0,0s0,0,0,0h.05Zm.18-.09H9.36a.37.37,0,0,1,0-.16l0,0,.05,0A.51.51,0,0,1,9.44,5.82Zm.3-.13c-.08,0-.12-.05-.13-.13a.05.05,0,0,0,0,0H9.54a.22.22,0,0,1,.05-.08h0c0-.09,0-.16.11-.15s.1.07.11.12A.15.15,0,0,1,9.74,5.69Zm.43.08h0l0,0,0-.06s0,0,0,0l0,0Zm1.27-.94h-.08s0,0,0,0,0,0,0,0l0,0-.05,0a.31.31,0,0,0,0,.09.13.13,0,0,1-.06.07l0,0,0,0s0,0,0,0v0l-.1,0-.16.05-.17,0a.28.28,0,0,1-.14,0,0,0,0,0,1,0,0v0a.06.06,0,0,0-.06,0l-.07,0-.07,0a.14.14,0,0,1-.09,0l0,0v0a.25.25,0,0,0-.19,0l-.14.06a.39.39,0,0,1,0-.13l-.1,0s0,0-.11,0V5.06H9.53l0,0a.22.22,0,0,1,0-.1s0-.09,0-.14,0-.1,0-.15a.74.74,0,0,0,0-.12h0s0,0,0,0,0-.07,0-.09,0,0,0,0V4a.11.11,0,0,1,.08-.08s0,0,0-.06l0,0a.1.1,0,0,1,0-.07.09.09,0,0,0,0-.06h.06s0,0,0,0a.18.18,0,0,0,.14-.06.47.47,0,0,0,.09-.12l.08,0,.07,0h.07a.13.13,0,0,0,.06,0l.08,0a.41.41,0,0,0,0,.07h.18s0,0,0,0l0,0a.12.12,0,0,1,.12,0l.07,0h.12v0h.08a.11.11,0,0,1,0,.05H11a.55.55,0,0,1,.18.19,1.4,1.4,0,0,0,.16.22v.07s0,0-.05,0,0,.06,0,.06l0,0V4.6h0a.2.2,0,0,1,0,.07s0,.06,0,.1h.1Zm.09-.1s0,0,0,0v0h0S11.52,4.73,11.53,4.73Zm.22,0h0s0,0,0,0h0Z"/><path class="cls-1" d="M9.67,4.83h0v.1a.19.19,0,0,0,0,.08h.12s0-.09,0-.1A.28.28,0,0,1,9.67,4.83Z"/><path class="cls-1" d="M11.38,3h0a.43.43,0,0,0,0,0h-.1s0,0,0,0Z"/><path class="cls-1" d="M13.46,6.22h-.24a.08.08,0,0,0,0,.07h.07a.1.1,0,0,1,.07,0h.11l0,0Z"/><path class="cls-1" d="M15.28,5.16a.09.09,0,0,1-.07,0,.11.11,0,0,0,0,0l0,0h.08s0-.06,0-.06S15.3,5.17,15.28,5.16Z"/><path class="cls-1" d="M13.39,4.3H13.2l-.17,0,.08,0s0,.07.06.07a.14.14,0,0,0,.1-.07h.17a.08.08,0,0,1,0,0Z"/><path class="cls-1" d="M13.67,4.34h.53a1.06,1.06,0,0,0,.26,0v0h-.78S13.68,4.33,13.67,4.34Z"/><path class="cls-1" d="M14.05,3.09l-.21,0h-.19a.15.15,0,0,1-.13-.06h-.67c0,.13-.17.21-.2.33-.13-.08-.24-.14-.25-.33h-.05a.39.39,0,0,0-.2,0,.15.15,0,0,0,0,.06s0,0,0,0V5.32h0v.1l0,0a.27.27,0,0,1,0,.13l0,.12v.11a.07.07,0,0,0,0,.07s0,.06,0,.06,0,0,0,0v.45a.12.12,0,0,0,0,.08l0,.06s0,0,0,0h0s0,.07,0,.09l0,.06a.07.07,0,0,1,0,.09l0,.07.07,0,.06,0a.08.08,0,0,1,0,.06.39.39,0,0,1,0,.06l.06.06h0l.08,0,.07,0h.05a.4.4,0,0,0,0-.26.93.93,0,0,1,0-.29h0l0,0a1.56,1.56,0,0,0,0-.2,1,1,0,0,1,0-.24.66.66,0,0,1,0-.21.12.12,0,0,1,.08-.11.16.16,0,0,0,0-.06h0s0,0-.07,0-.08-.08-.11-.12h0a.22.22,0,0,1,0-.08s0,0,0-.07v0h.11v.08l.08,0c.05,0,.1,0,.09.12a.14.14,0,0,0,0,.06.45.45,0,0,0,.31-.14h.06s0,0,0,0,.09,0,.11,0l.07,0h.07l.13,0,.13,0,.06,0a.2.2,0,0,1,.08.1.24.24,0,0,0,.07.12h0l0,0h0v.08h.06l0,0v0s0,0,0,0h0s0,0,0,0h0a.41.41,0,0,0,0,.19,1,1,0,0,0,.08.11h-.42l-.17,0,.08,0a.05.05,0,0,0,.06.06.12.12,0,0,0,.1-.06,2.25,2.25,0,0,1,.38,0l0,0v.14a.33.33,0,0,0,.06.08.18.18,0,0,1,.07.09v.1a.25.25,0,0,0,.08.1A.21.21,0,0,1,14.5,7h.08l0,0h0a.1.1,0,0,0,.06,0h0s0,0,0,0h0v.08h.07l0,0h.1l.05,0a.08.08,0,0,0,0,0l0,0a.22.22,0,0,0-.05-.13s0-.07,0-.09,0-.08,0-.09,0-.05,0-.12h0l0,0s0,0,0,0h.09a.69.69,0,0,0,0-.13l-.06-.12h.14l.12,0v0h-.3s0,0,0-.06l0-.07V5.92l-.05,0-.05,0a0,0,0,0,1,0,0s0,0,0,0,0-.06,0-.09l-.09-.08a.35.35,0,0,1,0-.06l0,0h0s-.06,0-.08,0h0l0,0s0,0,0,0v0h.2l.07,0,.1-.06h0a.07.07,0,0,1,0-.05s0-.1.11-.06a.11.11,0,0,1,0,.06.1.1,0,0,0,.05,0,.12.12,0,0,1,0-.05s0-.06,0-.08a0,0,0,0,1,0,0v0s0,0,0,0V4.88l0,0a.11.11,0,0,0,.05,0,.12.12,0,0,0,0-.08v0a.07.07,0,0,1,0-.05l.06,0a.23.23,0,0,0,0-.07l0-.11a.36.36,0,0,0,0-.09s0,0-.05,0a.27.27,0,0,1,.18-.19.1.1,0,0,0,0,0,.11.11,0,0,1,0,0V3.94l-.05,0V3.84H15a.56.56,0,0,1,0-.1.19.19,0,0,0,0-.12l-.05,0-.06,0s0,0,0,0,0,0,0,0,0,0,0,0h-.05l-.06-.07-.05-.06h-.07l0,0,0,0h-.07l0,0h-.18a0,0,0,0,1,0,0,.2.2,0,0,1-.08,0ZM12.41,5.84v0l0,0,0,0s0-.05,0-.07h0v0Zm.08-.16h0V5.64h0ZM14.4,6h.1V6H14.4Zm-1.52-.7a.12.12,0,0,1-.11-.13c0-.07,0-.14.1-.14s.1.07.1.14S13,5.26,12.88,5.26Zm.43.06a.07.07,0,0,0,0-.05l0,0v0Zm.45,0h-.08l0,0a.08.08,0,0,1,0,0h0Zm.18.12v0h0l0,0s0,0,0,0v0h0v0Zm.32-.05h0v0a.1.1,0,0,1-.06,0,.18.18,0,0,0-.07,0s0,0,0,0a0,0,0,0,1,0,0l.06.05.07.06S14.26,5.4,14.26,5.39Zm.38-.75c.08,0,.13,0,.13.14s0,.15-.14.16a.12.12,0,0,1-.13-.15A.23.23,0,0,1,14.64,4.64Zm-.37-.9a.32.32,0,0,1,.13.13,1.62,1.62,0,0,0,.1.18l0,0a.28.28,0,0,1,0,.1s0,.09,0,.14a.76.76,0,0,0,0,.15.37.37,0,0,0,0,.12.55.55,0,0,1-.1.18.37.37,0,0,1-.14.14.23.23,0,0,1-.11,0l-.1,0A.08.08,0,0,0,14,5a.23.23,0,0,0,0,.13l0,0,0,0h-.15s0,0,0,0a.11.11,0,0,1-.08,0c0,.09-.06.17-.17.18s-.19-.13-.25-.24h-.07s0,0,0,0h-.11L13,5h-.14a.45.45,0,0,1-.06-.22c0-.12,0-.23,0-.36H13a0,0,0,0,0,0,0l0,0h-.16a2.05,2.05,0,0,1,0-.37c0-.12,0-.19.08-.22h0l0,0,.13-.09.1-.13h.06l.08.09a.26.26,0,0,0,.14,0,.17.17,0,0,1,.11-.06V3.6h.11a.09.09,0,0,0,.08,0h.18a.23.23,0,0,1,.11.07.17.17,0,0,1,0,.05h.11l0,0,0,0Z"/><path class="cls-1" d="M15,5.14h0a.18.18,0,0,1,0,.06.09.09,0,0,0,0,0l.07,0h0l0,0S15,5.17,15,5.14Z"/><path class="cls-1" d="M18.07,6.81c0-.1-.17-.15-.09-.3a.17.17,0,0,0,0-.07v0l-.06.09-.06.05h-.08a.34.34,0,0,0-.12.12.35.35,0,0,1-.12.1h-.13l-.13,0-.23,0h-.24a.73.73,0,0,1-.19.26c-.23,0-.07-.26-.19-.32a.26.26,0,0,1-.1-.15.47.47,0,0,1-.13-.11A2,2,0,0,1,16,6.34h-.17v0s0,0,0,0a.08.08,0,0,1,0,0H16V6l0,0,0,0a.22.22,0,0,1,0-.09l0-.09a.17.17,0,0,0,0-.1.27.27,0,0,0-.05-.13s.06,0,.07,0l.07,0c0-.16,0-.32,0-.48s0-.31,0-.45a.68.68,0,0,1,0-.14h-.1c0,.08,0,.2-.12.1s-.13-.23,0-.31.17-.39.35-.2l.13-.17.06-.06.06-.07.09,0h.21l.09,0v0l0,0,.08,0h.26l.12,0,.1.05h.17l.1.08a.16.16,0,0,0,.11,0l0,0c0-.06.1-.1.13-.09s.32-.06.46-.11a1.47,1.47,0,0,0-.29-.32,1.44,1.44,0,0,0-.43-.21A1.72,1.72,0,0,0,17.06,3a.13.13,0,0,1-.1,0h-.29a.29.29,0,0,0-.16,0,0,0,0,0,0,0,0v0h-.26l-.17.08-.19.1a.7.7,0,0,0-.21.21,2.39,2.39,0,0,0-.13.28c0,.11,0,.21-.08.31a1.1,1.1,0,0,1-.09.29c0,.05,0,.08,0,.1l0,0,0,0a.19.19,0,0,1,0,.08l0,.08,0,0-.1,0s0,0-.05.05l0,0a.1.1,0,0,1-.06,0v.13A.22.22,0,0,0,15.24,5l.1-.12h0a.22.22,0,0,0,.07.06.31.31,0,0,1,0,.13l0,.08v.06s0,.06,0,.06a0,0,0,0,1,0,0v.39s0,0,0,.06l0,0s0,.08,0,.09a.09.09,0,0,1-.06,0,.36.36,0,0,0,0,.15.11.11,0,0,0,.07.08.25.25,0,0,1,0,.13.14.14,0,0,0,0,.11.79.79,0,0,0,0,.09l.06-.05a.1.1,0,0,1,.14,0h.05v0h0a.36.36,0,0,1,0,.11h0c.1,0,.22-.14.26.08a.16.16,0,0,1-.11.19c-.17,0-.13-.15-.15-.27h0a.35.35,0,0,1-.13.08l.15.2a1.79,1.79,0,0,0,.44.34l.1,0h.1l.08,0h.05l0,0,0,.05h.22l0,0a.07.07,0,0,0,.09,0,.23.23,0,0,1,.05,0h.47a.49.49,0,0,0,.21-.08.17.17,0,0,1,0-.12c.06-.13.16-.1.23,0l.05,0L18,7l.1,0,.07,0s0,0,0-.06a.28.28,0,0,0,.06-.08C18.23,6.87,18.16,6.87,18.07,6.81ZM15.49,5.6h0l0,0,0-.06h0Zm.06.34V5.87h0a.25.25,0,0,0,0,.07Zm.18.16v0h0v0Zm.09.36h0a.13.13,0,0,1,0,0h0Zm.85.81h0v0h0l0,0Z"/><path class="cls-1" d="M18.49,6.18s0,0,0-.06v0a3,3,0,0,0-.11-.6A1.5,1.5,0,0,1,18,5.29h0a.33.33,0,0,0,0,.15.15.15,0,0,0,.09.08.19.19,0,0,1-.05.09.11.11,0,0,0,0,.11s0,0,0,.07l0,.07a.34.34,0,0,1,0,.09.43.43,0,0,0,0,0l0,.07.08,0a.61.61,0,0,0,.13.15V6.18h0a0,0,0,0,1,0,0l0,0a.17.17,0,0,1,.06.16.13.13,0,0,1,0,.06l0,0a.15.15,0,0,0,.07-.07s0-.09,0-.14Z"/><path class="cls-1" d="M18.34,6.76l.05,0a.12.12,0,0,0,0-.1.52.52,0,0,1-.07.15Z"/><path class="cls-1" d="M18.67,4.18a.3.3,0,0,0,0-.1h0l0,.11Z"/><path class="cls-1" d="M18,4.42s0,0,0-.07v.06Z"/><path class="cls-1" d="M15.92,4.37l0-.06A.07.07,0,0,0,15.92,4.37Z"/><path class="cls-1" d="M18.8,4.74a.25.25,0,0,0,0-.1s0,0-.07,0a.08.08,0,0,1,0,0,.16.16,0,0,0,0,.06v0Z"/><path class="cls-1" d="M16.08,5a1.49,1.49,0,0,0,0,.21.24.24,0,0,1,0,.16l0,.06a.16.16,0,0,1,0,.06l.32,0,.36,0,.36,0a1.9,1.9,0,0,0,.35,0l.17-.06a.31.31,0,0,1,.18,0h0c0-.11,0-.24,0-.38V4.87l-.31-.13a.25.25,0,0,1-.19,0l-.15.06-.2,0a.21.21,0,0,1-.14,0l0,0,0,0-.21,0-.13-.07-.12-.08a.94.94,0,0,0-.06-.24l-.18,0c0,.07,0,.13,0,.19S16.09,4.84,16.08,5Z"/><path class="cls-1" d="M17.57,3.91l0,0a1.09,1.09,0,0,0,0,.17c0,.07,0,.14,0,.2a1.11,1.11,0,0,1,0,.19v0a.33.33,0,0,1,.2.09.06.06,0,0,1,.07,0,.12.12,0,0,1,.06-.09V4.31h-.11c-.07,0-.19-.14-.15-.21A.83.83,0,0,1,17.67,4a.3.3,0,0,1,0-.08Z"/><path class="cls-1" d="M19.8,4.06h-.1a.09.09,0,0,0,0,.08l.05.07h0v0s0,0,0-.06Z"/><path class="cls-1" d="M20.21,4.32l0,0a.51.51,0,0,0,0-.22.58.58,0,0,0-.12-.14,1.64,1.64,0,0,0,0,.18.37.37,0,0,0,0,.17s0,0,0,0l0,0Z"/><path class="cls-1" d="M20.32,5.33l-.09-.06-.09,0a.1.1,0,0,0,0,.09.19.19,0,0,0,.06.07l.08,0,.05.06h.1a.2.2,0,0,0-.05-.09A.6.6,0,0,0,20.32,5.33Z"/><path class="cls-1" d="M18.85,4.29h0a.63.63,0,0,0,0-.16.12.12,0,0,0-.11-.08.23.23,0,0,0,.05.11A.23.23,0,0,1,18.85,4.29Z"/><path class="cls-1" d="M19.15,3.66c-.1,0-.13-.13-.15-.25l0-.33h0a.37.37,0,0,0-.14,0l-.09.05a.65.65,0,0,0,0,.18c0,.1,0,.19.08.3s.06.2.09.28S19,4,19,4.05l0,0,0,0a.14.14,0,0,0,.06.1.19.19,0,0,1,.07.08V4.5a.13.13,0,0,0,.05.06l.05.06v.16s0,0,0,0l0,.06V5s0,.1,0,.15l.06.09a1.45,1.45,0,0,1,.12.19v.17l0,0,0,.06v0l.11,0c.09,0,.08.26,0,.44l0,0a.42.42,0,0,1,0,.15h.08a1.66,1.66,0,0,1,0,.24.49.49,0,0,0,0,.24s0,.07.06.11a.65.65,0,0,1,0,.13l.07,0,.08,0a.14.14,0,0,1,0,.07l0,.09a.17.17,0,0,0,.1,0s.05,0,.08,0a.48.48,0,0,0,.35-.13.73.73,0,0,0,.19-.28V6.7l0,0,0,0s0,0,0,0a.22.22,0,0,0,0-.09.44.44,0,0,1,0-.1.36.36,0,0,0,0-.09s0,0,0-.08a.09.09,0,0,0,0-.08.18.18,0,0,1,.06-.09L21.16,6s0,0,0,0l0,0s0-.09,0-.09l.08,0c0-.11,0-.21,0-.3a.66.66,0,0,1,.07-.25l.05,0,.05,0V5.07c.05-.12.1-.25.16-.38a4,4,0,0,0,.15-.4,1.24,1.24,0,0,1,0-.16,1.16,1.16,0,0,1,0-.18.66.66,0,0,1,0-.15.18.18,0,0,1,.1-.09V3.63a.08.08,0,0,1,.06,0h0a.37.37,0,0,0,.14-.14.56.56,0,0,1,.11-.17s0,0,0-.05a.13.13,0,0,1,0,0,.25.25,0,0,0-.18.11,1,1,0,0,1-.1.17s0,0,0,0h0A.48.48,0,0,1,22,3.27a.14.14,0,0,0,0-.09s0,0,0-.06h-.2l-.16.06,0-.06h-.19a.47.47,0,0,1,0,.14l-.06.11v.14l-.08.07v.19a.23.23,0,0,1-.05.07l-.05.06v.21l-.06.14s-.05.1-.07.14v.16L20.87,5l-.16.43v.24c0,.08-.07.17-.12.27a1,1,0,0,0-.08.29.12.12,0,0,0,0,.09.19.19,0,0,1,0,.1.06.06,0,0,1,0,0,.27.27,0,0,1-.17-.08.92.92,0,0,1-.11-.14h-.08a.66.66,0,0,0,0-.15,1.39,1.39,0,0,1-.06-.13.41.41,0,0,1,0-.22.44.44,0,0,0,0-.2.19.19,0,0,0-.08-.1l-.07-.08V5a.31.31,0,0,0-.05-.1.21.21,0,0,1,0-.12.19.19,0,0,1,0-.08s0,0,0,0l-.08-.07V4.41l-.06-.06-.07-.06a.32.32,0,0,1,0-.17.34.34,0,0,0,0-.17.4.4,0,0,0-.07-.12.36.36,0,0,1-.07-.09V3.58l-.09-.23a1.36,1.36,0,0,1-.09-.23H19.2c0,.06,0,.12,0,.18S19.27,3.61,19.15,3.66Zm1.9,2.14h0v0l0,0h0a.08.08,0,0,0,0,0Zm-.12-.14H21v.08h-.05Zm-.16.16h0v0l0,0V5.82Z"/><path class="cls-1" d="M20.5,3.84s0,0,0,.05h.06v0h0Z"/><path class="cls-1" d="M20.67,3.48l0,.11a.16.16,0,0,1-.06.08s0,.07,0,.1l0,.07v0h0l0,0a0,0,0,0,1,0,0,.55.55,0,0,0,.07-.34l0,0Z"/><path class="cls-1" d="M21.05,3s0,0,0,.06l.05,0,.06,0,.05,0V3h-.16Z"/><path class="cls-1" d="M23.28,5.71h-.05a.53.53,0,0,0,.11.24.3.3,0,0,0,.21.12.31.31,0,0,0-.11-.21A1.21,1.21,0,0,1,23.28,5.71Z"/><path class="cls-1" d="M23.16,4.15v0l.05,0,0,0Z"/><path class="cls-1" d="M24.53,3.84h-.1c0,.06,0,.1,0,.11s0,0,.05,0a.13.13,0,0,0,.05-.06h0v0Z"/><polygon class="cls-1" points="23.21 4.73 23.23 4.73 23.25 4.69 23.21 4.67 23.21 4.73"/><path class="cls-1" d="M24.66,4.77v0s0,0,0,0h-.06s0,.06,0,.11a.23.23,0,0,0,0,.12A.18.18,0,0,1,24.66,4.77Z"/><path class="cls-1" d="M23,3.1h-.22l-.22,0a.47.47,0,0,0-.17,0,1.08,1.08,0,0,0,0,.22,1.38,1.38,0,0,1,0,.26.09.09,0,0,1,0,.08s0,0,0,.1,0,0,.05,0a.2.2,0,0,1,0,.13l0,.11s0,.07,0,.09a.08.08,0,0,1,0,.06v1s0,.09.1.12v.66l-.05,0v.44l.05,0s0,.07,0,.09l0,0v0l0,0h0V7h.05a.13.13,0,0,1,0,.07s0,0,0,.08l.17.16s.07,0,.07,0l.06,0a.08.08,0,0,1,.08,0,.13.13,0,0,0,.1,0h.1l.12,0h.11a.16.16,0,0,1,.1,0l0,0s0,0,0,0,.08,0,.09,0l.06,0a.15.15,0,0,1,.13,0,.19.19,0,0,0,.1.05l.12,0h.17l.16,0s.07,0,.08,0a1,1,0,0,0,.24,0,.23.23,0,0,0,.16-.11V7l-.18,0V6.91a.25.25,0,0,1-.16,0,.16.16,0,0,0-.12,0,1.23,1.23,0,0,0-.12.37c0,.11-.17-.05-.26,0a.69.69,0,0,1,0-.32h0a.08.08,0,0,0-.1,0l0,0s0,0,0,0a.31.31,0,0,1-.13,0h-.53s0,0,0,0h.05a.16.16,0,0,0,0-.06s0,0,0,0l-.15,0a.34.34,0,0,1-.11,0,1.55,1.55,0,0,1,0-.21.94.94,0,0,0,0-.26.17.17,0,0,0,0-.05l.07.05s0,.07.06.06a.1.1,0,0,0,.1-.06,1.56,1.56,0,0,1,.31,0h.65v0a.05.05,0,0,0,0,0h-1l-.17,0,0-.06V6.05H23a.24.24,0,0,0,0-.12.28.28,0,0,1,0-.11.07.07,0,0,1,0-.06s0-.06,0-.1,0,0,0,0a.11.11,0,0,1,0,0s0,0,0,0l0,0h.06l0,0a.27.27,0,0,0,.26-.13l.1,0,.09,0,0,0a.11.11,0,0,1,0,0s0,0,.06,0a.19.19,0,0,1,.15,0,.32.32,0,0,0,.14,0h0l0,0h.29l-.16,0,.34-.14c.08-.06.07-.16.06-.27H23.25s0,0,0,0,0,0-.09,0V4.9a.12.12,0,0,0,0-.07l0,0s0,0,0,0a0,0,0,0,1,0,0V4.65l0-.11a.22.22,0,0,0,0-.09.08.08,0,0,0,0-.07h0s0,.07.06.06a.12.12,0,0,0,.1-.06h.24l.07,0,.48,0a1.81,1.81,0,0,0,.41,0v0h-.88v0h0v0h0l0,0h-.33l-.16,0a.87.87,0,0,0,0-.18A.36.36,0,0,1,23,4s0,0,0,0l0,0,0,0h.05V3.92H23.1a.25.25,0,0,0,0-.1s0,0,0-.06l0,0a.36.36,0,0,0,.22,0,.32.32,0,0,0,.13-.15.19.19,0,0,1,.09,0,.15.15,0,0,1,.05.06.19.19,0,0,0,.09,0l.05-.06h.37l0,0s0,0,0,0,.05,0,.06,0l.05,0,.05,0h.06a.2.2,0,0,1,.09,0,.15.15,0,0,0,.13,0s0,0,0,0v0h.29V3.51H25s0,0,0,0a.11.11,0,0,1,.05,0V3.37l0-.05a.23.23,0,0,0,0-.13h0a.21.21,0,0,1-.22,0c-.05,0-.11.1-.17,0a.32.32,0,0,1-.08-.09h-.92c-.05.12,0,.28-.07.4a.33.33,0,0,1-.14-.4H23Zm1.56,4.07h0v0h0ZM23.88,7h0v0h0Zm-.54.13h0v0h0ZM23.15,7A.22.22,0,0,0,23.21,7h0l-.11.13h0A.13.13,0,0,1,23.15,7Zm-.51-3.43.17,0c0,.13,0,.34-.14.3S22.56,3.71,22.64,3.59Zm0,3.34a0,0,0,0,1,0,0h0V6.9h0ZM22.7,7h-.05V7h.05Zm0,0a.7.7,0,0,1,0-.74C22.83,6.54,22.71,6.78,22.73,7Zm.06-1.41a.65.65,0,0,1,0,.19h0c0,.09,0,.18-.1.18s-.1-.07-.09-.14,0,0,0-.08v0h0a2.56,2.56,0,0,1,.05-.27c0-.16-.08-.32,0-.53a2.42,2.42,0,0,1,.14.61h0Zm.09,1.15,0,0h0v0Zm.09.41h0v0H22.9v0H23Zm0-1.65v0h-.08V5.47H23Z"/><path class="cls-1" d="M24.88,5l-.05.11h0l-.07.29h0a.59.59,0,0,0,.08-.08.3.3,0,0,1,.09-.1h0s0,0,0-.06v0L25,5A.35.35,0,0,0,25,5l0,0h0Z"/><path class="cls-1" d="M28.61,4.2a.33.33,0,0,0-.12,0h0a.22.22,0,0,0,0,.08.22.22,0,0,1,0,.1h.13A.14.14,0,0,0,28.61,4.2Z"/><path class="cls-1" d="M28.48,4.64a.67.67,0,0,0-.05-.19.25.25,0,0,0-.1-.12.27.27,0,0,1,0-.11.19.19,0,0,1,.08-.07c0-.08,0-.13-.05-.15a.31.31,0,0,1-.08-.11.16.16,0,0,1,0-.08.24.24,0,0,0,0-.08A1,1,0,0,0,28,3.42a1.85,1.85,0,0,0-.34-.21.5.5,0,0,0-.21,0,.45.45,0,0,1-.2,0,.65.65,0,0,0-.22,0l-.3,0a2.42,2.42,0,0,1-.27,0q-.12,0-.15-.06h-.51l-.24,0-.2,0a.22.22,0,0,0,0,.1l0,0V4.93a.86.86,0,0,1,0,.15v.19a.76.76,0,0,0,0,.16.19.19,0,0,0,.05.1,1.56,1.56,0,0,1,0,.2,1.69,1.69,0,0,0,0,.23c0,.08,0,.15,0,.21h0l0-.09c.32-.27.13.14.19.21s-.08.22-.18.15a.34.34,0,0,1-.06-.06.36.36,0,0,1,0,.11.34.34,0,0,0,0,.19.16.16,0,0,0,0,.07s0,0,0,.09l0,0h0a.36.36,0,0,0,.11.22.55.55,0,0,0,.18.14h.19c0-.16.12-.26.15-.4l0-.16,0-.06a.68.68,0,0,0-.12-.12v-1l0-.06.06,0V4.56a1.41,1.41,0,0,0,0-.2,1.15,1.15,0,0,0,0-.19.23.23,0,0,0-.06-.12L26,3.9a.91.91,0,0,1,.07-.14.19.19,0,0,1,.12-.07.18.18,0,0,0,.11-.08,4.79,4.79,0,0,1,.56,0,1.43,1.43,0,0,1,.44.09,1.08,1.08,0,0,1,.33.2,1.07,1.07,0,0,1,.23.34V5.34l.14.14a.32.32,0,0,1,0,.06l0,0v.07l0,0,0,0a.11.11,0,0,1,0,.08.17.17,0,0,1,0,.05l0,0v0h0a1.18,1.18,0,0,1-.1.36c0,.06-.07.11-.1.16a.13.13,0,0,1,.06.18h0l-.06,0c0,.12,0,.41-.2.15a.2.2,0,0,1-.09-.14l-.06,0a1.85,1.85,0,0,1-.33.12.41.41,0,0,1-.19,0,1.08,1.08,0,0,1-.19,0l-.16,0q-.09,0-.12,0a.49.49,0,0,1-.2,0l.05.12a.78.78,0,0,1,.16.33h0l.09,0a.23.23,0,0,0,.11,0l.08,0a.15.15,0,0,1,.09,0,.13.13,0,0,1,.06,0s.05,0,.1,0l0,0v0a.23.23,0,0,0,.12,0h.11l.05,0,.05,0a.44.44,0,0,0,.15-.08l.17-.1L27.83,7A.51.51,0,0,0,28,6.93a.43.43,0,0,0,.11-.12.29.29,0,0,0,0-.19h0a.05.05,0,0,0,0,0,.58.58,0,0,0,.06-.15.11.11,0,0,1,.09-.11s0-.06,0-.08,0,0,0,0v0s0,0,0,0v0s0-.07,0-.09a.15.15,0,0,0,0-.06.18.18,0,0,0,0-.16.24.24,0,0,1,0-.13v0l0,0h0a.41.41,0,0,0,0-.12.65.65,0,0,0,0-.14.5.5,0,0,0,0-.12s0-.07,0-.08a.15.15,0,0,1,.1-.13.3.3,0,0,0,0-.15.14.14,0,0,0-.08-.09.13.13,0,0,1,.05-.09ZM27.13,3.58s-.05-.11-.06-.16a.29.29,0,0,1,0-.1c.12.05.14.11.14.18S27.18,3.62,27.13,3.58ZM26.7,7.17h0v0h0Zm.34,0a.4.4,0,0,1-.16,0c0-.18.14-.29.22-.25S27.11,7.14,27,7.2Zm.83-.7h0v0h.05S27.87,6.51,27.87,6.5Zm.1-.07h0s0,0,0,0h0Zm.25-.2h-.1v0h.1Z"/><path class="cls-1" d="M28.7,4.64a.22.22,0,0,0,0-.1l-.05-.07a.23.23,0,0,0-.07.11s0,.09,0,.12a.22.22,0,0,0,0,.1l.08,0v.08h.08a.39.39,0,0,0,0-.13l-.06-.07a.35.35,0,0,1,0-.06S28.68,4.65,28.7,4.64Z"/><path class="cls-1" d="M27.62,5.4l.12-.06s0-.09,0-.15V5c0-.06,0-.12,0-.18s0-.11,0-.15V4.33a1,1,0,0,0-.11-.2.52.52,0,0,1-.11-.19h0a.16.16,0,0,1,0,.06s0,0,0,0v.53s0,0,0,0,0,0,0,.06-.09,0-.09,0a.1.1,0,0,1-.06,0h-.37s0,0,0,0l0,0-.12,0-.13,0a.5.5,0,0,1-.13,0l-.09,0h0c0-.14,0-.26,0-.38s0-.23,0-.36a.11.11,0,0,0-.1,0,.29.29,0,0,0,0,.1.5.5,0,0,0,0,.12.37.37,0,0,1,0,.12c0,.07,0,.16,0,.26s0,.21,0,.32a2.66,2.66,0,0,0,0,.3.64.64,0,0,0,.05.21h1.39Z"/><path class="cls-1" d="M19,.57h3.47l0-.18.06-.3,0-.09H18.72C18.82.19,19,.33,19,.57Z"/><path class="cls-1" d="M23.27,10.18l0,0h-.16c-.15,0-.15-.09-.09-.22a.35.35,0,0,0,.09-.17h-.3a2.43,2.43,0,0,0,0,.27c0,.14-.12.17-.23.12h0l-.09.08c-.15-.18,0-.28.08-.41V9.76h-.4A.33.33,0,0,1,22,10a.17.17,0,0,1-.25-.08l0-.14H1.5a.93.93,0,0,1-.93-.92V2.17s0,0,0-.08A.28.28,0,0,1,.57,2V1.5A.93.93,0,0,1,1.5.57H3.62c0-.07,0-.12.14-.15a.44.44,0,0,1,.1.15H9.34A.26.26,0,0,1,9.53.48a.11.11,0,0,1,.13.09h2.7a.2.2,0,0,1,0-.14.36.36,0,0,1,.15-.06c.07,0,.12.06.12.16s0,0,0,0H14c0-.13-.1-.26.06-.36s.11,0,.15,0-.06.23-.1.34h4.27L17.85.24c.24-.09.51,0,.6-.24H14a.21.21,0,0,1,0,.06l0-.06H2l0,.07c.21-.06.32.16.48.25A.73.73,0,0,1,1.8.49C1.65.36,1.43.42,1.31.23,1.36,0,1.55,0,1.7,0H1.5A1.52,1.52,0,0,0,.66.26c0,.06.1.13.17.14.09-.16.22-.08.33-.1V.48L.83.4C.65.59.6.46.56.33A1.52,1.52,0,0,0,0,1.5V8.84a1.5,1.5,0,0,0,1.5,1.5H17.71a.3.3,0,0,1,0-.2c.06-.12.15-.07.22,0a.2.2,0,0,1,.08.22h3.86l.06-.1a.14.14,0,0,1,.1-.05.12.12,0,0,1,.09.08v.07h1.21a.77.77,0,0,1-.07-.16Z"/><path class="cls-1" d="M22.75.57h.81a3.24,3.24,0,0,0,.19-.52.09.09,0,0,0,0,0h-1s0,0,0,.06A1.1,1.1,0,0,1,22.75.57Z"/><path class="cls-1" d="M24,.49a.19.19,0,0,1,0,.08h1a.38.38,0,0,1,0-.1h.11c.12,0,.11-.44.3-.11l.16,0c.09-.07.06-.31.24-.25l0-.17H24C24,.16,24,.33,24,.49Z"/><path class="cls-1" d="M30.44,10c.15-.12.06-.62.42-.37l-.07.21a1.55,1.55,0,0,0,.36-1V4.09l0,0S31.05,4.05,31,4a.15.15,0,0,1,.09-.16h0V1.5A1.5,1.5,0,0,0,30.49.25v.1c0,.12-.25.19-.39,0a.25.25,0,0,0-.19-.08.38.38,0,0,1,0-.26l-.17,0,0,.06V0H26.86s0,.06,0,.1h0c0,.07,0,.12-.06.13s-.18.13-.12.29l0,0h2.94a.93.93,0,0,1,.92.93V8.84a.92.92,0,0,1-.92.92H29a.24.24,0,0,1-.06.11.16.16,0,0,1-.07-.11H26.13A.31.31,0,0,1,26,9.9c-.1.09-.15.45-.37.14a1.26,1.26,0,0,0,0-.28H24c0,.11,0,.18-.19.17s-.15.16-.14.3a.09.09,0,0,1,0,.11h6a1.51,1.51,0,0,0,1-.41Zm.33-5.83c.05,0,.08,0,.08.11s0,.08-.09.1-.07,0-.08-.07A.13.13,0,0,1,30.77,4.15Z"/><path class="cls-1" d="M22.1,2.12a.33.33,0,0,1-.23-.43.3.3,0,0,1,0-.08H15.34l-.11.12V1.61h-.91a0,0,0,0,0,0,0V2c-.18,0-.16-.19-.18-.33v0h-.84v0a.45.45,0,0,1-.16,0h-.7c0,.08,0,.13-.13.12s-.11-.06-.1-.12H4.65A.34.34,0,0,1,4.47,2a.42.42,0,0,1,0-.34H2.42v.57h.81a3.23,3.23,0,0,1-.06-.33c.09.18.43.06.44.33h8.63l0,0a.07.07,0,0,1,.1,0h.47c0-.1,0-.19.06-.22a.56.56,0,0,1,.66.21h4.69l-.11-.11c-.09,0-.19-.09-.14-.18s.17,0,.24.05.19,0,.26-.08c.3-.18.33.09.38.32h0l0-.53c.1-.07.12,0,.16.11v.42H23.4a.4.4,0,0,1,.11-.33l.08-.21v0h-.87v.12c0,.08-.1.07-.16,0V1.61h-.51A.56.56,0,0,1,22.1,2.12Z"/><path class="cls-1" d="M28.69,1.61H26.4a.66.66,0,0,0,0,.25c0,.11,0,.22-.07.26s-.13-.13-.12-.19a.39.39,0,0,0-.07-.32H23.84a1.16,1.16,0,0,1-.06.49v.08h4.92ZM24.8,2c-.08,0-.09-.06-.09-.13s0-.13.09-.13.09.07.1.13S24.86,2,24.8,2Z"/><path class="cls-1" d="M25.67,8.77l-.08,0h.14A.09.09,0,0,0,25.67,8.77Z"/><path class="cls-1" d="M25.48,8.68l.11-.2a.47.47,0,0,1,0-.24h-.17c0,.16-.14.33-.09.48s0,.06,0,.09h0Z"/><path class="cls-1" d="M25.9,8.47l0,.21,0,.13h2.74V8.24h-2.2a.36.36,0,0,1-.26.14.39.39,0,0,1,0-.14h-.27A.93.93,0,0,0,25.9,8.47Z"/><path class="cls-1" d="M23.79,8.38a.58.58,0,0,1-.4.35c0-.17,0-.32,0-.46l0,0H22.12c0,.14-.07.25-.17.24s-.25.11-.34-.05a.2.2,0,0,0,.05-.19H2.42v.57H11l.18,0h0l.27-.12.67-.28c-.1.5-.39.44-.66.43H24a.2.2,0,0,1,.11,0h0l-.06-.23a.26.26,0,0,1,.08-.29c.07.05.14,0,.21,0l.1-.05h-.7A.22.22,0,0,1,23.79,8.38ZM8.64,8.7a.09.09,0,0,1-.08-.13.2.2,0,0,1,.09-.14c.08,0,.08.08.08.13S8.71,8.69,8.64,8.7Zm4.64-.12s-.13,0-.09-.09a.43.43,0,0,1,.15-.15s.06.05.09.07S13.35,8.57,13.28,8.58Zm9.4.05c-.09-.06,0-.17-.05-.26a.13.13,0,0,0,0-.08c.1,0,.16,0,.15.18S22.7,8.63,22.68,8.63Z"/></g></g></svg>